M48
;Layer_Color=9474304
;FILE_FORMAT=4:4
METRIC,TZ
;TYPE=PLATED
T01F00S00C0.3000
T02F00S00C0.6600
T03F00S00C0.7100
T04F00S00C0.7112
T05F00S00C0.9100
T06F00S00C1.0500
T07F00S00C1.1000
;TYPE=NON_PLATED
T08F00S00C0.6500
%
T01
X27940Y10762
X53340
X78740
X104140
X129540
Y36162
Y61562
Y86962
Y112362
Y137762
X78740Y112362
Y86962
X53340
X27940
Y112362
Y137762
X104140Y36162
X154940Y10762
X180340
X205740
X231140
X256540
X281940
X307340
X332740
X358140
X383540
X408940
X434340
X459740
X485140
X510540
X535940
Y36162
Y61562
Y86962
Y112362
Y137762
X510540
Y112362
X485140
Y137762
Y86962
X459740
Y112362
X434340
Y86962
Y61562
X459740
X510540
Y36162
X485140
X408940Y61562
Y86962
Y112362
X383540
Y86962
Y61562
X358140
Y86962
Y112362
X332740
Y86962
Y61562
X307340
Y86962
Y112362
X256540
Y137762
Y86962
Y61562
X231140Y86962
Y112362
X205740
Y86962
Y61562
X180340
Y86962
Y112362
X561340
X586740
X612140
X637540
X662940
X688340
X713740
X739140
X764540
X789940
X815340
X840740
Y137762
X815340
X789940
X764540
X739140
X713740
X688340
X662940
X637540
X612140
X586740
X561340
Y86962
X586740
Y36162
Y10762
X612140
X637540
X662940
X688340
X713740
X739140
X764540
X789940
X815340
Y86962
X840740
X789940
X764540
Y61562
Y36162
X739140
Y61562
Y86962
X713740Y61562
Y36162
X688340
Y61562
X662940
Y36162
X561340
Y10762
Y163162
X586740
X612140
X637540
X662940
X688340
X713740
X739140
X764540
X789940
X815340
X840740
Y188562
Y213962
Y239362
X815340
Y213962
Y188562
X789940
Y213962
Y239362
X764540Y213962
Y188562
X739140
X713740
X688340
X662940
X637540
X612140
Y213962
Y239362
X586740
Y213962
Y188562
X561340
Y213962
Y239362
Y315562
X586740
X612140
Y340962
Y366362
X637540
X662940
X688340
X713740
X739140
X764540
X789940
X815340
X840740
Y391762
Y417162
Y442562
Y467962
X815340
Y442562
Y417162
Y391762
X789940
Y417162
Y442562
Y467962
X764540
Y493362
Y518762
Y442562
Y417162
Y391762
X739140
Y417162
Y442562
Y467962
X713740Y493362
X688340
X662940
Y442562
X688340
X713740
Y417162
Y391762
X688340
Y417162
X662940
Y391762
X637540
Y417162
Y442562
X612140
Y417162
Y391762
X586740
Y417162
Y467962
Y493362
Y518762
X561340Y493362
Y366362
X586740
Y340962
X561340
X764540
X789940
X815340
X840740
Y315562
X789940
X535940
Y340962
Y366362
X485140Y391762
X459740
X434340
Y417162
Y442562
X408940
Y417162
Y391762
X383540
X332740
Y417162
Y442562
X358140
Y493362
X383540
X408940
X434340
Y518762
X459740
X485140
X510540
X535940
Y467962
X510540
Y442562
X485140Y467962
X475000Y485000
X408940Y518762
X383540
X358140
X332740
Y493362
X307340
Y518762
X281940
Y493362
X231140
Y518762
X256540Y442562
X307340
X256540Y391762
X281940Y340962
X256540Y315562
X231140Y340962
X205740Y264762
X180340
X231140Y213962
X256540
X281940
X307340
X332740
X358140
X408940
X434340
X459740
Y239362
X434340
X510540
X535940
Y264762
Y213962
Y188562
Y163162
X510540
Y188562
Y213962
X459740Y188562
Y340962
X485140
X434340
X256540Y163162
X162560Y441960
X154940Y493362
X129540
X27940Y442562
Y417162
Y391762
Y340962
Y315562
X53340
X75000Y325000
X78740Y290162
X104140
X129540Y264762
X104140Y239362
X78740
Y264762
Y213962
Y188562
X27940
Y213962
Y239362
Y264762
Y290162
Y163162
T02
X462280Y418940
X487680Y444340
X462280Y469740
T03
X147320Y207992
X172720
X198120
Y309592
X172720
X147320
X223520
X121920
X96520
Y207992
X121920
T04
X228600Y132080
X307340Y137160
X347980Y35560
X609600Y68612
X543560Y418812
X518160Y495300
X510540Y317500
X459740Y281940
X431800
X388620Y233680
X393700Y208280
X406400Y187960
X444500Y198120
X492760Y246380
X358140Y233680
X337820
Y162560
X307340Y175260
X289560Y307340
X284480Y374818
X226060Y385792
X190500Y393412
Y416272
X232664Y466692
X246380Y457040
X335280Y429260
X342900Y332740
X223520Y264160
X58420Y223520
X99060Y375920
X109220Y413860
X116840Y429100
X137160Y413732
X134620Y393700
X53340Y413860
T05
X678180Y48292
X703580
Y88932
X678180
T06
X680720Y467072
X706120
Y510252
X680720
T07
X292100Y457440
X317500
X342900
X368300
T08
X59070Y382580
Y440380
M30
