G04*
G04 #@! TF.GenerationSoftware,Altium Limited,Altium Designer,25.8.1 (18)*
G04*
G04 Layer_Color=0*
%FSLAX44Y44*%
%MOMM*%
G71*
G04*
G04 #@! TF.SameCoordinates,E998E950-8115-44E0-8776-06CA77E6E8E1*
G04*
G04*
G04 #@! TF.FilePolarity,Positive*
G04*
G01*
G75*
%ADD78C,0.0254*%
G36*
X553999Y280084D02*
Y278508D01*
X554614Y275417D01*
X555820Y272505D01*
X557571Y269884D01*
X559800Y267656D01*
X562420Y265905D01*
X565332Y264699D01*
X568423Y264084D01*
X569999D01*
X571575D01*
X574666Y264699D01*
X577578Y265905D01*
X580199Y267656D01*
X582427Y269884D01*
X584178Y272505D01*
X585384Y275417D01*
X585999Y278508D01*
Y280084D01*
Y281660D01*
X585384Y284751D01*
X584178Y287663D01*
X582427Y290283D01*
X580199Y292512D01*
X577578Y294263D01*
X574666Y295469D01*
X571575Y296084D01*
X569999D01*
X568423D01*
X565332Y295469D01*
X562420Y294263D01*
X559800Y292512D01*
X557571Y290283D01*
X555820Y287663D01*
X554614Y284751D01*
X553999Y281660D01*
Y280084D01*
D01*
D02*
G37*
G36*
X794008Y279944D02*
Y278368D01*
X794623Y275277D01*
X795829Y272365D01*
X797580Y269744D01*
X799808Y267516D01*
X802429Y265765D01*
X805341Y264558D01*
X808432Y263944D01*
X810008D01*
X811584D01*
X814675Y264558D01*
X817587Y265765D01*
X820207Y267516D01*
X822436Y269744D01*
X824187Y272365D01*
X825393Y275277D01*
X826008Y278368D01*
Y279944D01*
Y281519D01*
X825393Y284611D01*
X824187Y287522D01*
X822436Y290143D01*
X820207Y292372D01*
X817587Y294123D01*
X814675Y295329D01*
X811584Y295944D01*
X810008D01*
X808432D01*
X805341Y295329D01*
X802429Y294123D01*
X799808Y292372D01*
X797580Y290143D01*
X795829Y287522D01*
X794623Y284611D01*
X794008Y281519D01*
Y279944D01*
D01*
D02*
G37*
G36*
X610000Y280000D02*
Y276070D01*
X610770Y268247D01*
X612304Y260538D01*
X614586Y253016D01*
X617594Y245754D01*
X621299Y238822D01*
X625666Y232287D01*
X630652Y226210D01*
X636211Y220652D01*
X642287Y215666D01*
X648822Y211299D01*
X655754Y207594D01*
X663016Y204586D01*
X670538Y202304D01*
X678247Y200770D01*
X686070Y200000D01*
X690000D01*
X693930Y200000D01*
X701753Y200770D01*
X709462Y202304D01*
X716984Y204586D01*
X724246Y207594D01*
X731178Y211299D01*
X737713Y215666D01*
X743789Y220652D01*
X749348Y226210D01*
X754334Y232287D01*
X758701Y238822D01*
X762406Y245754D01*
X765414Y253016D01*
X767696Y260538D01*
X769230Y268247D01*
X770000Y276070D01*
X770000Y280000D01*
X770000D01*
X770000Y283930D01*
X769230Y291753D01*
X767696Y299462D01*
X765414Y306984D01*
X762406Y314246D01*
X758701Y321178D01*
X754334Y327713D01*
X749348Y333789D01*
X743790Y339348D01*
X737713Y344334D01*
X731178Y348701D01*
X724246Y352406D01*
X716984Y355414D01*
X709462Y357696D01*
X701753Y359230D01*
X693930Y360000D01*
X690000Y360000D01*
X690000Y360000D01*
X686070D01*
X678247Y359230D01*
X670538Y357696D01*
X663016Y355414D01*
X655754Y352406D01*
X648822Y348701D01*
X642287Y344334D01*
X636211Y339348D01*
X630652Y333789D01*
X625666Y327713D01*
X621299Y321178D01*
X617594Y314246D01*
X614586Y306984D01*
X612304Y299462D01*
X610770Y291753D01*
X610000Y283930D01*
Y280000D01*
D01*
D02*
G37*
G36*
X794206Y49927D02*
Y48351D01*
X794821Y45260D01*
X796027Y42348D01*
X797778Y39727D01*
X800007Y37499D01*
X802627Y35748D01*
X805539Y34541D01*
X808630Y33927D01*
X810206D01*
X811782D01*
X814873Y34541D01*
X817785Y35748D01*
X820405Y37499D01*
X822634Y39727D01*
X824385Y42348D01*
X825591Y45260D01*
X826206Y48351D01*
Y49927D01*
Y51502D01*
X825591Y54594D01*
X824385Y57505D01*
X822634Y60126D01*
X820405Y62355D01*
X817785Y64106D01*
X814873Y65312D01*
X811782Y65927D01*
X810206D01*
X808630D01*
X805539Y65312D01*
X802627Y64106D01*
X800007Y62355D01*
X797778Y60126D01*
X796027Y57505D01*
X794821Y54594D01*
X794206Y51502D01*
Y49927D01*
D01*
D02*
G37*
G36*
X34165Y510318D02*
Y508743D01*
X34780Y505652D01*
X35986Y502740D01*
X37737Y500119D01*
X39966Y497891D01*
X42586Y496139D01*
X45498Y494933D01*
X48589Y494319D01*
X50165D01*
X51741D01*
X54832Y494933D01*
X57744Y496139D01*
X60365Y497891D01*
X62593Y500119D01*
X64344Y502740D01*
X65550Y505652D01*
X66165Y508743D01*
Y510318D01*
Y511894D01*
X65550Y514986D01*
X64344Y517897D01*
X62593Y520518D01*
X60365Y522747D01*
X57744Y524497D01*
X54832Y525704D01*
X51741Y526319D01*
X50165D01*
X48589D01*
X45498Y525704D01*
X42586Y524497D01*
X39966Y522747D01*
X37737Y520518D01*
X35986Y517897D01*
X34780Y514986D01*
X34165Y511894D01*
Y510318D01*
D01*
D02*
G37*
G36*
X33799Y50102D02*
Y48527D01*
X34414Y45435D01*
X35620Y42523D01*
X37371Y39903D01*
X39599Y37674D01*
X42220Y35923D01*
X45132Y34717D01*
X48223Y34102D01*
X49799D01*
X51375D01*
X54466Y34717D01*
X57378Y35923D01*
X59998Y37674D01*
X62227Y39903D01*
X63978Y42523D01*
X65184Y45435D01*
X65799Y48527D01*
Y50102D01*
Y51678D01*
X65184Y54769D01*
X63978Y57681D01*
X62227Y60302D01*
X59998Y62530D01*
X57378Y64281D01*
X54466Y65487D01*
X51375Y66102D01*
X49799D01*
X48223D01*
X45132Y65487D01*
X42220Y64281D01*
X39599Y62530D01*
X37371Y60302D01*
X35620Y57681D01*
X34414Y54769D01*
X33799Y51678D01*
Y50102D01*
D01*
D02*
G37*
G36*
X794107Y510190D02*
Y508614D01*
X794721Y505522D01*
X795928Y502611D01*
X797679Y499990D01*
X799907Y497761D01*
X802528Y496011D01*
X805440Y494804D01*
X808531Y494189D01*
X810107D01*
X811682D01*
X814773Y494804D01*
X817685Y496011D01*
X820306Y497761D01*
X822534Y499990D01*
X824286Y502611D01*
X825492Y505522D01*
X826106Y508614D01*
Y510190D01*
Y511765D01*
X825492Y514857D01*
X824286Y517768D01*
X822534Y520389D01*
X820306Y522617D01*
X817685Y524369D01*
X814773Y525575D01*
X811682Y526189D01*
X810107D01*
X808531D01*
X805440Y525575D01*
X802528Y524369D01*
X799907Y522617D01*
X797679Y520389D01*
X795928Y517768D01*
X794721Y514857D01*
X794107Y511765D01*
Y510190D01*
D01*
D02*
G37*
D78*
X820000Y560291D02*
X40292Y560292D01*
D02*
G03*
X0Y520000I0J-40292D01*
G01*
Y40000D01*
D02*
G03*
X40128Y-128I40128J-0D01*
G01*
X820000D01*
D02*
G03*
X860292Y40000I82J40210D01*
G01*
X860292Y520000D01*
D02*
G03*
X820000Y560291I-40291J0D01*
G01*
M02*
