G04*
G04 #@! TF.GenerationSoftware,Altium Limited,Altium Designer,25.8.1 (18)*
G04*
G04 Layer_Physical_Order=1*
G04 Layer_Color=255*
%FSLAX44Y44*%
%MOMM*%
G71*
G04*
G04 #@! TF.SameCoordinates,23AB489E-9C3B-42D5-9350-948743F75CA7*
G04*
G04*
G04 #@! TF.FilePolarity,Positive*
G04*
G01*
G75*
%ADD19R,1.8000X1.4000*%
%ADD20R,1.5525X1.9031*%
%ADD21R,1.5562X1.5046*%
%ADD22R,1.5046X1.9062*%
%ADD23R,0.9000X1.4000*%
%ADD24R,1.1000X1.4000*%
%ADD25R,1.1500X0.3000*%
%ADD26R,2.0000X2.1800*%
%ADD27R,1.1500X0.6000*%
%ADD28R,1.4557X1.8582*%
%ADD29R,1.7000X1.1500*%
%ADD30R,1.4000X2.1000*%
G04:AMPARAMS|DCode=31|XSize=1.3043mm|YSize=0.9121mm|CornerRadius=0.4561mm|HoleSize=0mm|Usage=FLASHONLY|Rotation=0.000|XOffset=0mm|YOffset=0mm|HoleType=Round|Shape=RoundedRectangle|*
%AMROUNDEDRECTD31*
21,1,1.3043,0.0000,0,0,0.0*
21,1,0.3922,0.9121,0,0,0.0*
1,1,0.9121,0.1961,0.0000*
1,1,0.9121,-0.1961,0.0000*
1,1,0.9121,-0.1961,0.0000*
1,1,0.9121,0.1961,0.0000*
%
%ADD31ROUNDEDRECTD31*%
G04:AMPARAMS|DCode=32|XSize=1.3043mm|YSize=3.2221mm|CornerRadius=0.4565mm|HoleSize=0mm|Usage=FLASHONLY|Rotation=0.000|XOffset=0mm|YOffset=0mm|HoleType=Round|Shape=RoundedRectangle|*
%AMROUNDEDRECTD32*
21,1,1.3043,2.3091,0,0,0.0*
21,1,0.3913,3.2221,0,0,0.0*
1,1,0.9130,0.1956,-1.1546*
1,1,0.9130,-0.1956,-1.1546*
1,1,0.9130,-0.1956,1.1546*
1,1,0.9130,0.1956,1.1546*
%
%ADD32ROUNDEDRECTD32*%
%ADD33R,1.3043X0.9121*%
%ADD34R,1.5000X0.4500*%
%ADD35R,0.2500X0.7000*%
%ADD36R,0.7000X0.2500*%
%ADD37O,0.5500X1.2500*%
%ADD38R,1.1549X1.7582*%
%ADD39R,1.2581X1.8121*%
%ADD40R,0.7000X1.9000*%
%ADD41R,1.3500X1.9000*%
%ADD42R,1.3555X1.7582*%
%ADD43R,1.8121X1.2581*%
%ADD44R,1.9062X1.5046*%
%ADD45R,1.7582X1.3555*%
%ADD50R,2.7500X2.7500*%
%ADD56C,0.6500*%
%ADD64C,0.5080*%
%ADD65C,0.2540*%
%ADD66C,0.7620*%
%ADD67C,1.2170*%
%ADD68R,1.2170X1.2170*%
G04:AMPARAMS|DCode=69|XSize=1.65mm|YSize=1.65mm|CornerRadius=0.4125mm|HoleSize=0mm|Usage=FLASHONLY|Rotation=180.000|XOffset=0mm|YOffset=0mm|HoleType=Round|Shape=RoundedRectangle|*
%AMROUNDEDRECTD69*
21,1,1.6500,0.8250,0,0,180.0*
21,1,0.8250,1.6500,0,0,180.0*
1,1,0.8250,-0.4125,0.4125*
1,1,0.8250,0.4125,0.4125*
1,1,0.8250,0.4125,-0.4125*
1,1,0.8250,-0.4125,-0.4125*
%
%ADD69ROUNDEDRECTD69*%
%ADD70C,1.6500*%
%ADD71R,1.4160X1.4160*%
%ADD72C,1.4160*%
%ADD73C,1.5750*%
%ADD74C,1.2100*%
%ADD75R,1.2100X1.2100*%
%ADD76C,0.7000*%
%ADD77C,1.2700*%
G36*
X793706Y556189D02*
X793750Y556180D01*
X819069D01*
X819314Y556229D01*
X824926Y555788D01*
X830639Y554416D01*
X836067Y552168D01*
X841076Y549098D01*
X845543Y545282D01*
X849359Y540815D01*
X852429Y535806D01*
X854677Y530378D01*
X856049Y524665D01*
X856490Y519054D01*
X856441Y518811D01*
X856157Y100853D01*
X856154Y100838D01*
Y40640D01*
X856201Y40405D01*
X855770Y34920D01*
X854430Y29342D01*
X852235Y24041D01*
X849237Y19150D01*
X845511Y14787D01*
X841148Y11061D01*
X836257Y8063D01*
X830956Y5868D01*
X825378Y4528D01*
X819893Y4097D01*
X819658Y4144D01*
X40640D01*
X40405Y4097D01*
X34920Y4528D01*
X29342Y5868D01*
X24041Y8063D01*
X19150Y11061D01*
X14787Y14787D01*
X11061Y19150D01*
X8063Y24041D01*
X5868Y29342D01*
X4528Y34920D01*
X4196Y39138D01*
X4144Y40640D01*
X4143Y40645D01*
X4142Y42164D01*
X3890Y519432D01*
X3842Y519669D01*
X4277Y525189D01*
X5625Y530807D01*
X7836Y536144D01*
X10855Y541070D01*
X14607Y545463D01*
X19000Y549215D01*
X23926Y552234D01*
X29263Y554445D01*
X34881Y555793D01*
X39138Y556128D01*
X40640Y556180D01*
X42164Y556181D01*
X651251Y556434D01*
X793706Y556189D01*
D02*
G37*
%LPC*%
G36*
X105152Y548161D02*
X97360D01*
Y542330D01*
X105152D01*
Y548161D01*
D02*
G37*
G36*
X94820D02*
X87029D01*
Y542330D01*
X94820D01*
Y548161D01*
D02*
G37*
G36*
X105152Y539790D02*
X97360D01*
Y533959D01*
X105152D01*
Y539790D01*
D02*
G37*
G36*
X94820D02*
X87029D01*
Y533959D01*
X94820D01*
Y539790D01*
D02*
G37*
G36*
X196464Y537111D02*
X188416D01*
Y527050D01*
X196464D01*
Y537111D01*
D02*
G37*
G36*
X676747Y523549D02*
X676747Y523549D01*
X601980D01*
X601980Y523549D01*
X600890Y523332D01*
X599966Y522714D01*
X599966Y522714D01*
X555516Y478264D01*
X554898Y477340D01*
X554681Y476250D01*
X554681Y476250D01*
Y451181D01*
X554611Y451023D01*
X554601Y450646D01*
X554576Y450331D01*
X554534Y450035D01*
X554477Y449758D01*
X554407Y449497D01*
X554322Y449252D01*
X554224Y449022D01*
X554112Y448804D01*
X553986Y448596D01*
X553810Y448350D01*
X553740Y448043D01*
X553504Y447690D01*
X553172Y446022D01*
Y439022D01*
X553504Y437354D01*
X554449Y435941D01*
X555862Y434996D01*
X557530Y434664D01*
X559198Y434996D01*
X560611Y435941D01*
X561556Y437354D01*
X561888Y439022D01*
Y446022D01*
X561556Y447690D01*
X561320Y448043D01*
X561250Y448350D01*
X561074Y448596D01*
X560948Y448804D01*
X560836Y449022D01*
X560738Y449252D01*
X560653Y449497D01*
X560583Y449758D01*
X560526Y450035D01*
X560485Y450331D01*
X560459Y450646D01*
X560449Y451023D01*
X560379Y451181D01*
Y475070D01*
X603160Y517851D01*
X672692D01*
X673318Y516327D01*
X673155Y516167D01*
X671689Y514881D01*
X671046Y514396D01*
X670434Y513988D01*
X669872Y513670D01*
X669366Y513436D01*
X668921Y513283D01*
X668542Y513201D01*
X668098Y513167D01*
X667967Y513101D01*
X667732D01*
X667732Y513101D01*
X666642Y512884D01*
X665718Y512266D01*
X665718Y512266D01*
X659060Y505609D01*
X651621D01*
X651464Y505679D01*
X651032Y505690D01*
X650714Y505718D01*
X650476Y505758D01*
X650435Y505769D01*
Y513505D01*
X634805D01*
Y492335D01*
X650435D01*
Y499751D01*
X650476Y499762D01*
X650714Y499802D01*
X651032Y499830D01*
X651464Y499841D01*
X651621Y499911D01*
X660240D01*
X660240Y499911D01*
X661330Y500128D01*
X662254Y500746D01*
X668764Y507255D01*
X668921Y507221D01*
X669366Y507068D01*
X669872Y506834D01*
X670434Y506515D01*
X671046Y506108D01*
X671689Y505623D01*
X673155Y504337D01*
X673938Y503565D01*
X674236Y503444D01*
X674949Y502731D01*
X677092Y501494D01*
X679483Y500853D01*
X681957D01*
X684348Y501494D01*
X686491Y502731D01*
X688241Y504481D01*
X689479Y506624D01*
X690119Y509015D01*
Y511489D01*
X689479Y513880D01*
X688241Y516023D01*
X686491Y517773D01*
X684348Y519011D01*
X681957Y519651D01*
X680996D01*
X680867Y520302D01*
X680249Y521227D01*
X680249Y521227D01*
X678762Y522714D01*
X677837Y523332D01*
X676747Y523549D01*
D02*
G37*
G36*
X196464Y524510D02*
X188416D01*
Y514449D01*
X196464D01*
Y524510D01*
D02*
G37*
G36*
X185876D02*
X177829D01*
Y514449D01*
X185876D01*
Y524510D01*
D02*
G37*
G36*
X718820Y547416D02*
X586740Y547416D01*
X585154Y547100D01*
X583810Y546202D01*
X537052Y499444D01*
X527940D01*
X527840Y499489D01*
X527260Y499506D01*
X526765Y499553D01*
X526305Y499629D01*
X525877Y499733D01*
X525481Y499862D01*
X525114Y500018D01*
X524773Y500198D01*
X524454Y500404D01*
X524155Y500638D01*
X523821Y500950D01*
X523540Y501055D01*
X522995Y501601D01*
X521199Y502637D01*
X519197Y503174D01*
X517123D01*
X515121Y502637D01*
X513325Y501601D01*
X511859Y500135D01*
X510823Y498339D01*
X510286Y496337D01*
Y494263D01*
X510823Y492261D01*
X511859Y490465D01*
X513325Y488999D01*
X513698Y488784D01*
X513828Y488577D01*
X514168Y488337D01*
X514398Y488131D01*
X514598Y487905D01*
X514774Y487652D01*
X514928Y487365D01*
X515060Y487039D01*
X515169Y486667D01*
X515250Y486246D01*
X515302Y485774D01*
X515322Y485196D01*
X515367Y485097D01*
Y484870D01*
X515366Y484868D01*
X515367Y484867D01*
Y452477D01*
X515326Y452396D01*
X515346Y452334D01*
X515321Y452273D01*
X515319Y451318D01*
X515254Y447913D01*
X515207Y447274D01*
X515196Y447194D01*
X515185Y447149D01*
X515187Y447130D01*
X515183Y447099D01*
X515201Y447028D01*
X515214Y446933D01*
X515131Y446732D01*
X515187Y446597D01*
X515072Y446022D01*
Y439022D01*
X515404Y437354D01*
X516349Y435941D01*
X517762Y434996D01*
X519430Y434664D01*
X521098Y434996D01*
X522511Y435941D01*
X523456Y437354D01*
X523788Y439022D01*
Y446022D01*
X523673Y446597D01*
X523729Y446732D01*
X523727Y446737D01*
X523729Y446741D01*
X523700Y451892D01*
X523654Y452001D01*
Y486301D01*
X523698Y486395D01*
X523752Y487567D01*
X523810Y488048D01*
X523894Y488524D01*
X524000Y488976D01*
X524127Y489404D01*
X524276Y489810D01*
X524441Y490186D01*
X524454Y490196D01*
X524773Y490402D01*
X525114Y490582D01*
X525481Y490737D01*
X525877Y490867D01*
X526305Y490971D01*
X526765Y491047D01*
X527260Y491094D01*
X527840Y491111D01*
X527940Y491156D01*
X538768D01*
X540354Y491472D01*
X541698Y492370D01*
X588456Y539128D01*
X717104Y539128D01*
X727376Y528856D01*
Y524231D01*
X727338Y524158D01*
X727353Y524110D01*
X727331Y524063D01*
X727298Y523124D01*
X727204Y522277D01*
X727049Y521464D01*
X726833Y520682D01*
X726557Y519928D01*
X726219Y519199D01*
X725818Y518493D01*
X725353Y517809D01*
X724821Y517144D01*
X724180Y516456D01*
X724178Y516448D01*
X724170Y516445D01*
X724135Y516347D01*
X722184Y514396D01*
X718463D01*
X718367Y514440D01*
X717716Y514467D01*
X717149Y514539D01*
X716596Y514657D01*
X716054Y514824D01*
X715521Y515039D01*
X714993Y515305D01*
X714470Y515624D01*
X713951Y515998D01*
X713434Y516430D01*
X712885Y516956D01*
X712596Y517068D01*
X711891Y517773D01*
X709748Y519011D01*
X707357Y519651D01*
X704883D01*
X702492Y519011D01*
X700349Y517773D01*
X698599Y516023D01*
X697362Y513880D01*
X696721Y511489D01*
Y509015D01*
X697362Y506624D01*
X698599Y504481D01*
X700349Y502731D01*
X702492Y501494D01*
X704883Y500853D01*
X707357D01*
X709748Y501494D01*
X711891Y502731D01*
X712596Y503436D01*
X712885Y503548D01*
X713434Y504074D01*
X713951Y504506D01*
X714470Y504880D01*
X714993Y505199D01*
X715521Y505465D01*
X716054Y505680D01*
X716596Y505847D01*
X717149Y505965D01*
X717716Y506037D01*
X718367Y506064D01*
X718463Y506108D01*
X723900D01*
X725486Y506424D01*
X725805Y506637D01*
X726113Y506630D01*
X727370Y505858D01*
X727376Y505848D01*
Y476408D01*
X722184Y471216D01*
X718463D01*
X718367Y471260D01*
X717716Y471287D01*
X717149Y471359D01*
X716596Y471477D01*
X716054Y471644D01*
X715521Y471859D01*
X714993Y472125D01*
X714470Y472444D01*
X713951Y472818D01*
X713434Y473250D01*
X712885Y473776D01*
X712596Y473888D01*
X711891Y474593D01*
X709748Y475830D01*
X707357Y476471D01*
X704883D01*
X702492Y475830D01*
X700349Y474593D01*
X698599Y472843D01*
X697362Y470700D01*
X696721Y468309D01*
Y465835D01*
X697362Y463444D01*
X698599Y461301D01*
X700349Y459551D01*
X702492Y458314D01*
X704883Y457673D01*
X707357D01*
X709748Y458314D01*
X711891Y459551D01*
X712596Y460256D01*
X712885Y460368D01*
X713434Y460894D01*
X713951Y461326D01*
X714470Y461700D01*
X714993Y462019D01*
X715521Y462285D01*
X716054Y462500D01*
X716596Y462667D01*
X717149Y462785D01*
X717716Y462857D01*
X718367Y462884D01*
X718463Y462928D01*
X723900D01*
X725486Y463244D01*
X726830Y464142D01*
X734450Y471762D01*
X735348Y473106D01*
X735664Y474692D01*
Y517645D01*
X735702Y517718D01*
X735664Y517844D01*
Y530572D01*
X735348Y532158D01*
X734450Y533502D01*
X721750Y546202D01*
X720406Y547100D01*
X718820Y547416D01*
D02*
G37*
G36*
X620911Y514521D02*
X613350D01*
Y504190D01*
X620911D01*
Y514521D01*
D02*
G37*
G36*
X610810D02*
X603249D01*
Y504190D01*
X610810D01*
Y514521D01*
D02*
G37*
G36*
X193950Y509880D02*
X185930D01*
Y499110D01*
X193950D01*
Y509880D01*
D02*
G37*
G36*
X183390D02*
X175370D01*
Y499110D01*
X183390D01*
Y509880D01*
D02*
G37*
G36*
X620911Y501650D02*
X613350D01*
Y491319D01*
X620911D01*
Y501650D01*
D02*
G37*
G36*
X610810D02*
X603249D01*
Y491319D01*
X610810D01*
Y501650D01*
D02*
G37*
G36*
X273160Y499460D02*
X262890D01*
Y491190D01*
X273160D01*
Y499460D01*
D02*
G37*
G36*
X260350D02*
X250080D01*
Y491190D01*
X260350D01*
Y499460D01*
D02*
G37*
G36*
X193950Y496570D02*
X185930D01*
Y485800D01*
X193950D01*
Y496570D01*
D02*
G37*
G36*
X183390D02*
X175370D01*
Y485800D01*
X183390D01*
Y496570D01*
D02*
G37*
G36*
X273160Y488650D02*
X262890D01*
Y480380D01*
X273160D01*
Y488650D01*
D02*
G37*
G36*
X50191Y543196D02*
X45048Y542791D01*
X40032Y541587D01*
X35266Y539613D01*
X30868Y536917D01*
X26945Y533567D01*
X23594Y529644D01*
X20899Y525246D01*
X18925Y520480D01*
X17721Y515463D01*
X17316Y510321D01*
X17721Y505178D01*
X18925Y500162D01*
X20899Y495396D01*
X23594Y490997D01*
X26945Y487074D01*
X30868Y483724D01*
X35266Y481028D01*
X40032Y479054D01*
X45048Y477850D01*
X50191Y477445D01*
X55334Y477850D01*
X60350Y479054D01*
X65116Y481028D01*
X69515Y483724D01*
X73438Y487074D01*
X76788Y490997D01*
X79483Y495396D01*
X81457Y500162D01*
X82662Y505178D01*
X83067Y510321D01*
X82662Y515463D01*
X81457Y520480D01*
X79483Y525246D01*
X76788Y529644D01*
X73438Y533567D01*
X69515Y536917D01*
X65116Y539613D01*
X60350Y541587D01*
X55334Y542791D01*
X50191Y543196D01*
D02*
G37*
G36*
X810132Y543067D02*
X804990Y542662D01*
X799973Y541458D01*
X795207Y539484D01*
X790809Y536788D01*
X786886Y533438D01*
X783536Y529515D01*
X780840Y525117D01*
X778866Y520351D01*
X777662Y515334D01*
X777257Y510191D01*
X777662Y505049D01*
X778866Y500033D01*
X780840Y495266D01*
X783536Y490868D01*
X786886Y486945D01*
X790809Y483595D01*
X795207Y480899D01*
X799973Y478925D01*
X804990Y477721D01*
X810132Y477316D01*
X815275Y477721D01*
X820292Y478925D01*
X825058Y480899D01*
X829456Y483595D01*
X833379Y486945D01*
X836729Y490868D01*
X839425Y495266D01*
X841399Y500033D01*
X842603Y505049D01*
X843008Y510191D01*
X842603Y515334D01*
X841399Y520351D01*
X839425Y525117D01*
X836729Y529515D01*
X833379Y533438D01*
X829456Y536788D01*
X825058Y539484D01*
X820292Y541458D01*
X815275Y542662D01*
X810132Y543067D01*
D02*
G37*
G36*
X177646Y547742D02*
X177573Y547704D01*
X157044D01*
X157033Y547701D01*
X154657Y547389D01*
X152433Y546467D01*
X152110Y546220D01*
X150994Y545474D01*
X127824Y522304D01*
X107045D01*
X106941Y522349D01*
X106187Y522365D01*
X105506Y522409D01*
X104128Y522594D01*
X103526Y522719D01*
X102260Y523083D01*
X101694Y523296D01*
X101124Y523544D01*
X100531Y523841D01*
X100498Y523843D01*
X100425Y523892D01*
X98051Y524364D01*
X94129D01*
X91755Y523892D01*
X89742Y522547D01*
X88398Y520534D01*
X87925Y518160D01*
X88398Y515786D01*
X89742Y513773D01*
X91755Y512428D01*
X94129Y511956D01*
X98051D01*
X100425Y512428D01*
X100498Y512477D01*
X100531Y512479D01*
X101105Y512766D01*
X102301Y513251D01*
X102864Y513429D01*
X104167Y513734D01*
X104788Y513832D01*
X106205Y513955D01*
X106941Y513971D01*
X107045Y514016D01*
X129540D01*
X131126Y514332D01*
X132470Y515230D01*
X155472Y538232D01*
X156494Y539214D01*
X157895Y539416D01*
X165524D01*
X166084Y537892D01*
X166035Y537851D01*
X165401Y537375D01*
X164780Y536971D01*
X164173Y536637D01*
X163580Y536370D01*
X163000Y536167D01*
X162432Y536025D01*
X161873Y535942D01*
X161322Y535914D01*
X161034D01*
X158658Y535441D01*
X156644Y534096D01*
X155298Y532081D01*
X154825Y529706D01*
Y506614D01*
X155298Y504239D01*
X156644Y502224D01*
X158658Y500879D01*
X161034Y500406D01*
X164946D01*
X167322Y500879D01*
X169336Y502224D01*
X170682Y504239D01*
X171155Y506614D01*
Y528090D01*
X171180Y528643D01*
X171257Y529202D01*
X171388Y529759D01*
X171572Y530318D01*
X171812Y530882D01*
X172112Y531450D01*
X172473Y532025D01*
X172897Y532604D01*
X173388Y533190D01*
X173976Y533812D01*
X174016Y533916D01*
X174072Y533972D01*
X174141Y534017D01*
X174147Y534048D01*
X176283Y536183D01*
X176384Y536220D01*
X177829Y535483D01*
Y527050D01*
X185876D01*
Y537111D01*
X181755D01*
X180977Y538635D01*
X181284Y539059D01*
X181392Y539089D01*
X182206Y539244D01*
X183052Y539338D01*
X183991Y539371D01*
X184037Y539393D01*
X184086Y539378D01*
X184160Y539416D01*
X226884D01*
X239696Y526604D01*
Y515620D01*
Y485172D01*
X236841Y482317D01*
X227113D01*
X225527Y482001D01*
X224183Y481103D01*
X218170Y475090D01*
X217739Y474445D01*
X217733Y474436D01*
X216209Y474912D01*
Y476340D01*
X220454Y480586D01*
X220454Y480586D01*
X221072Y481510D01*
X221289Y482600D01*
X221289Y482600D01*
Y485629D01*
X221359Y485787D01*
X221370Y486219D01*
X221398Y486537D01*
X221438Y486775D01*
X221449Y486816D01*
X224934D01*
Y508864D01*
X217183D01*
X217172Y508905D01*
X217132Y509143D01*
X217104Y509461D01*
X217093Y509893D01*
X217022Y510051D01*
Y514278D01*
X217093Y514436D01*
X217104Y514868D01*
X217132Y515186D01*
X217172Y515424D01*
X217183Y515465D01*
X222475D01*
Y536095D01*
X205872D01*
Y515465D01*
X211164D01*
X211175Y515424D01*
X211215Y515186D01*
X211243Y514868D01*
X211255Y514436D01*
X211325Y514278D01*
Y510051D01*
X211255Y509893D01*
X211243Y509461D01*
X211215Y509143D01*
X211175Y508905D01*
X211164Y508864D01*
X208386D01*
Y486816D01*
X215431D01*
X215442Y486775D01*
X215482Y486537D01*
X215510Y486219D01*
X215521Y485787D01*
X215591Y485629D01*
Y483780D01*
X211346Y479534D01*
X210728Y478610D01*
X210511Y477520D01*
X210511Y477520D01*
Y454660D01*
X210511Y454660D01*
X210728Y453570D01*
X211346Y452646D01*
X213251Y450740D01*
Y438562D01*
X213326Y438186D01*
Y435102D01*
X212310D01*
Y434086D01*
X209226D01*
X208850Y434161D01*
X199788D01*
X199189Y434760D01*
Y437803D01*
X199260Y437971D01*
X199265Y438895D01*
X199341Y441130D01*
X199436Y442121D01*
X199486Y442421D01*
X199527Y442591D01*
X199581Y442735D01*
X199579Y442793D01*
X200168Y443674D01*
X200484Y445260D01*
Y457745D01*
X200529Y457847D01*
X200553Y458761D01*
X200619Y459511D01*
X200723Y460130D01*
X200852Y460613D01*
X200992Y460953D01*
X201116Y461156D01*
X201201Y461249D01*
X201249Y461280D01*
X201303Y461300D01*
X201593Y461330D01*
X201751Y461416D01*
X204614D01*
Y483464D01*
X188066D01*
Y469956D01*
X186818Y469854D01*
X186236Y469846D01*
X186019Y469753D01*
X184671Y469485D01*
X183327Y468587D01*
X175154Y460414D01*
X173630Y461045D01*
X173630Y461657D01*
Y471170D01*
X164340D01*
X155050D01*
Y462401D01*
X153642Y461818D01*
X147998Y467462D01*
X146654Y468360D01*
X145068Y468676D01*
X126310D01*
X126208Y468721D01*
X125294Y468745D01*
X124544Y468811D01*
X123925Y468914D01*
X123443Y469044D01*
X123102Y469184D01*
X122899Y469308D01*
X122807Y469393D01*
X122775Y469441D01*
X122756Y469495D01*
X122726Y469785D01*
X122640Y469943D01*
Y475860D01*
X121304D01*
X121146Y475946D01*
X120615Y476002D01*
X120345Y476097D01*
X120106Y476256D01*
X119856Y476526D01*
X119592Y476957D01*
X119338Y477577D01*
X119120Y478390D01*
X118953Y479390D01*
X118849Y480572D01*
X118812Y481968D01*
X118791Y482015D01*
Y486087D01*
X118377Y488168D01*
X117198Y489933D01*
X108026Y499106D01*
X106261Y500285D01*
X104180Y500699D01*
X100864D01*
X100425Y500992D01*
X98051Y501464D01*
X94129D01*
X91755Y500992D01*
X89742Y499647D01*
X88398Y497634D01*
X87925Y495260D01*
X88398Y492886D01*
X89742Y490873D01*
X91755Y489528D01*
X94129Y489056D01*
X98051D01*
X100425Y489528D01*
X100864Y489822D01*
X101927D01*
X107914Y483834D01*
Y482015D01*
X107894Y481968D01*
X107857Y480572D01*
X107753Y479390D01*
X107586Y478390D01*
X107367Y477577D01*
X107114Y476957D01*
X106850Y476526D01*
X106599Y476256D01*
X106361Y476097D01*
X106091Y476002D01*
X105560Y475946D01*
X105402Y475860D01*
X104066D01*
Y453780D01*
X122640D01*
Y459121D01*
X122726Y459279D01*
X122756Y459569D01*
X122775Y459623D01*
X122807Y459671D01*
X122899Y459756D01*
X123102Y459880D01*
X123443Y460020D01*
X123925Y460150D01*
X124544Y460253D01*
X125294Y460319D01*
X126208Y460343D01*
X126310Y460388D01*
X143352D01*
X148586Y455154D01*
Y439478D01*
X148541Y439379D01*
X148479Y437608D01*
X148411Y436955D01*
X148319Y436415D01*
X148216Y436015D01*
X148132Y435796D01*
X147036D01*
Y434471D01*
X146941Y434241D01*
X146996Y434109D01*
X146964Y433970D01*
X147035Y433855D01*
X146916Y432406D01*
X145625Y431647D01*
X145120Y431743D01*
X144338Y431959D01*
X143584Y432235D01*
X142855Y432573D01*
X142149Y432974D01*
X141465Y433439D01*
X140800Y433971D01*
X140112Y434612D01*
X140011Y434649D01*
X127390Y447270D01*
X126046Y448168D01*
X124460Y448484D01*
X101600D01*
X100014Y448168D01*
X98670Y447270D01*
X92239Y440839D01*
X91186Y439826D01*
X89785Y439624D01*
X80743D01*
X80635Y439669D01*
X78836Y439686D01*
X78110Y439720D01*
Y442210D01*
X69820D01*
Y444750D01*
X78110D01*
Y449020D01*
X76531D01*
X75594Y450156D01*
X75594Y450544D01*
Y475004D01*
X52546D01*
Y450156D01*
X60593D01*
X61530Y449020D01*
X61530Y448632D01*
Y445900D01*
X60263Y445053D01*
X60020Y445154D01*
X58120D01*
X56366Y444427D01*
X55023Y443084D01*
X54296Y441330D01*
Y439430D01*
X55023Y437676D01*
X56366Y436333D01*
X58120Y435606D01*
X60020D01*
X61022Y436021D01*
X62546Y435113D01*
Y430956D01*
Y418829D01*
X62255Y418487D01*
X61047Y417920D01*
X60546Y418259D01*
X59389Y419177D01*
X58775Y419730D01*
X58513Y419822D01*
X58175Y420161D01*
X56379Y421197D01*
X54377Y421734D01*
X52303D01*
X50301Y421197D01*
X48505Y420161D01*
X47039Y418695D01*
X46003Y416899D01*
X45466Y414897D01*
Y412823D01*
X46003Y410821D01*
X47039Y409025D01*
X48505Y407559D01*
X50301Y406523D01*
X51812Y406118D01*
X52146Y404439D01*
X53325Y402674D01*
X55089Y401496D01*
X57170Y401082D01*
Y401131D01*
X61367D01*
X61528Y401061D01*
X62546Y401041D01*
Y398410D01*
X61634Y397294D01*
X61305Y397157D01*
X60544Y397006D01*
X59620Y396388D01*
X59620Y396388D01*
X41899Y378667D01*
X41863Y378703D01*
X41435Y378062D01*
X40684Y376938D01*
X40658Y376805D01*
X40275Y374878D01*
X40320Y374865D01*
X40331Y348724D01*
X40271Y348706D01*
X40736Y346364D01*
X42072Y344365D01*
X44072Y343029D01*
X45002Y342844D01*
X45274Y342734D01*
X45276Y342734D01*
X45536Y342684D01*
X46533Y342542D01*
Y342591D01*
X94378D01*
X94536Y342521D01*
X94968Y342510D01*
X95286Y342482D01*
X95524Y342442D01*
X95565Y342431D01*
Y334625D01*
X113170D01*
Y356255D01*
X95565D01*
Y348449D01*
X95524Y348438D01*
X95286Y348398D01*
X94968Y348370D01*
X94536Y348359D01*
X94378Y348289D01*
X75594D01*
Y372804D01*
X76531Y373940D01*
X78110D01*
Y378210D01*
X69820D01*
Y380750D01*
X78110D01*
Y383175D01*
X79715Y383286D01*
X80627Y383290D01*
X80736Y383336D01*
X93239D01*
X93817Y381812D01*
X92759Y380755D01*
X91723Y378959D01*
X91186Y376957D01*
Y374883D01*
X91723Y372881D01*
X92759Y371085D01*
X94225Y369619D01*
X96021Y368583D01*
X98023Y368046D01*
X100097D01*
X102099Y368583D01*
X103895Y369619D01*
X104441Y370166D01*
X104725Y370273D01*
X105897Y371375D01*
X106401Y371785D01*
X106890Y372138D01*
X107349Y372426D01*
X107773Y372649D01*
X108160Y372812D01*
X108508Y372920D01*
X108817Y372979D01*
X109200Y373004D01*
X109336Y373071D01*
X114698D01*
X114856Y373001D01*
X115288Y372990D01*
X115606Y372962D01*
X115844Y372922D01*
X115885Y372911D01*
Y362565D01*
X133490D01*
Y384195D01*
X115885D01*
Y378929D01*
X115844Y378918D01*
X115606Y378878D01*
X115288Y378850D01*
X114856Y378839D01*
X114698Y378769D01*
X109336D01*
X109200Y378836D01*
X108817Y378861D01*
X108508Y378920D01*
X108160Y379028D01*
X107773Y379191D01*
X107349Y379414D01*
X106890Y379702D01*
X106418Y380043D01*
X105325Y380979D01*
X104750Y381543D01*
X104453Y381662D01*
X104303Y381812D01*
X104881Y383336D01*
X108676D01*
X108687Y383339D01*
X111063Y383651D01*
X113287Y384573D01*
X114096Y385194D01*
X114654Y385566D01*
X114730Y385680D01*
X115189Y386032D01*
X115198Y386038D01*
X124850Y395690D01*
X125748Y397034D01*
X126064Y398620D01*
Y414684D01*
X128279Y416899D01*
X129646Y416110D01*
X129286Y414769D01*
Y412695D01*
X129823Y410693D01*
X130859Y408897D01*
X132325Y407431D01*
X133930Y406505D01*
X133937Y406492D01*
X133968Y406483D01*
X134121Y406395D01*
X134212Y406370D01*
X134321Y406256D01*
X134507Y406174D01*
X134567Y406138D01*
X134609Y406103D01*
X134646Y406061D01*
X134686Y406000D01*
X134731Y405906D01*
X134776Y405769D01*
X134817Y405583D01*
X134845Y405346D01*
X134858Y404999D01*
X135002Y404684D01*
X135144Y403970D01*
X135754Y403058D01*
X135742Y403002D01*
X135078Y401574D01*
X133583D01*
X131581Y401037D01*
X129785Y400001D01*
X128319Y398535D01*
X127283Y396739D01*
X126746Y394737D01*
Y392663D01*
X127283Y390661D01*
X128319Y388865D01*
X129785Y387399D01*
X131581Y386363D01*
X133583Y385826D01*
X135657D01*
X137659Y386363D01*
X139455Y387399D01*
X140001Y387946D01*
X140285Y388053D01*
X141457Y389155D01*
X141961Y389565D01*
X142450Y389918D01*
X142909Y390206D01*
X143333Y390429D01*
X143721Y390592D01*
X144068Y390700D01*
X144377Y390759D01*
X144760Y390784D01*
X144896Y390851D01*
X151181D01*
X152886Y389146D01*
X152886Y389146D01*
X153811Y388528D01*
X154901Y388311D01*
X170468D01*
X170468Y388311D01*
X171558Y388528D01*
X172482Y389146D01*
X174074Y390738D01*
X174692Y391662D01*
X174909Y392752D01*
X174909Y392752D01*
Y395561D01*
X174979Y395719D01*
X174990Y396151D01*
X175018Y396469D01*
X175058Y396707D01*
X175069Y396748D01*
X178084D01*
Y402263D01*
X178125Y402274D01*
X178363Y402314D01*
X178681Y402342D01*
X179113Y402353D01*
X179271Y402423D01*
X185660D01*
X186130Y401899D01*
X186470Y400899D01*
X186377Y400770D01*
X185441Y399677D01*
X184877Y399102D01*
X184758Y398805D01*
X184199Y398247D01*
X183163Y396451D01*
X182626Y394449D01*
Y392375D01*
X183163Y390373D01*
X184199Y388577D01*
X185665Y387111D01*
X187461Y386075D01*
X189463Y385538D01*
X191537D01*
X193539Y386075D01*
X195335Y387111D01*
X196801Y388577D01*
X197837Y390373D01*
X198374Y392375D01*
Y394449D01*
X197837Y396451D01*
X196801Y398247D01*
X196254Y398793D01*
X196147Y399077D01*
X195045Y400249D01*
X194635Y400753D01*
X194282Y401242D01*
X193994Y401701D01*
X193771Y402125D01*
X193608Y402513D01*
X193500Y402860D01*
X193441Y403169D01*
X193416Y403552D01*
X193310Y403767D01*
X193132Y404662D01*
X192514Y405586D01*
X192514Y405586D01*
X191227Y406874D01*
X191420Y407827D01*
X191672Y408376D01*
X191730Y408450D01*
X193539Y408935D01*
X195335Y409971D01*
X196801Y411437D01*
X197837Y413233D01*
X198374Y415235D01*
Y417309D01*
X197837Y419311D01*
X196801Y421107D01*
X195968Y421939D01*
X196600Y423463D01*
X203826D01*
Y413538D01*
Y403538D01*
X212310D01*
Y402522D01*
X213326D01*
Y394038D01*
X221546D01*
X221955Y392514D01*
X221225Y392093D01*
X219759Y390627D01*
X218723Y388831D01*
X218186Y386829D01*
Y384755D01*
X218723Y382753D01*
X219759Y380957D01*
X221225Y379491D01*
X223021Y378455D01*
X225023Y377918D01*
X227097D01*
X229099Y378455D01*
X229597Y378742D01*
X229890Y378769D01*
X231540Y379638D01*
X232928Y380289D01*
X234083Y380741D01*
X234530Y380882D01*
X234915Y380977D01*
X235211Y381026D01*
X235516Y381046D01*
X235654Y381113D01*
X277649D01*
X277945Y380399D01*
X278143Y379589D01*
X277143Y377857D01*
X276606Y375855D01*
Y373781D01*
X277143Y371779D01*
X278179Y369983D01*
X278420Y369743D01*
X277789Y368219D01*
X267540D01*
X267382Y368289D01*
X266950Y368300D01*
X266632Y368328D01*
X266394Y368368D01*
X266353Y368379D01*
Y374417D01*
X247743D01*
Y357417D01*
X246727D01*
Y348624D01*
X257048D01*
X267369D01*
Y357417D01*
X266353D01*
Y362361D01*
X266394Y362372D01*
X266632Y362411D01*
X266950Y362439D01*
X267382Y362451D01*
X267540Y362521D01*
X293529D01*
X293687Y362451D01*
X294119Y362439D01*
X294437Y362411D01*
X294675Y362372D01*
X294716Y362361D01*
Y354188D01*
Y347688D01*
X312764D01*
Y353632D01*
X316148D01*
X317405Y352375D01*
Y346720D01*
X317359Y346617D01*
X317303Y344076D01*
X317218Y343055D01*
X316819D01*
Y341730D01*
X316723Y341501D01*
X316819Y341271D01*
Y322425D01*
X333422D01*
Y327329D01*
X333507Y327487D01*
X333538Y327777D01*
X333557Y327831D01*
X333589Y327879D01*
X333681Y327964D01*
X333884Y328088D01*
X334225Y328228D01*
X334707Y328358D01*
X334866Y328384D01*
X335183Y328307D01*
X335579Y328178D01*
X335946Y328022D01*
X336287Y327842D01*
X336606Y327636D01*
X336905Y327402D01*
X337239Y327090D01*
X337520Y326984D01*
X338065Y326439D01*
X339861Y325403D01*
X341863Y324866D01*
X343937D01*
X345939Y325403D01*
X347735Y326439D01*
X349201Y327905D01*
X350237Y329701D01*
X350774Y331703D01*
Y333777D01*
X350721Y333975D01*
X352087Y334764D01*
X357831Y329020D01*
Y298360D01*
X355443Y295972D01*
X349404D01*
X348205Y296755D01*
Y317925D01*
X332575D01*
Y296755D01*
X336886D01*
X336898Y296714D01*
X336937Y296476D01*
X336965Y296158D01*
X336977Y295726D01*
X337047Y295569D01*
Y293504D01*
X337008Y293446D01*
X337047Y293250D01*
Y292995D01*
X337008Y292799D01*
X337047Y292742D01*
Y291642D01*
X336977Y291484D01*
X336965Y291052D01*
X336937Y290734D01*
X336898Y290496D01*
X336886Y290455D01*
X330849D01*
Y268345D01*
X348943D01*
Y276391D01*
X348984Y276402D01*
X349222Y276442D01*
X349540Y276470D01*
X349972Y276481D01*
X350130Y276551D01*
X374740D01*
X379421Y271870D01*
Y271031D01*
X379351Y270873D01*
X379340Y270441D01*
X379312Y270123D01*
X379272Y269885D01*
X379261Y269844D01*
X377246D01*
Y248213D01*
X377246Y247796D01*
X376854Y247364D01*
X375766D01*
X374594Y248725D01*
Y269844D01*
X364546D01*
Y248213D01*
X364546Y247796D01*
X364154Y247364D01*
X363066D01*
X361894Y248725D01*
Y269844D01*
X351846D01*
Y248213D01*
X351846Y247796D01*
X350840Y246689D01*
X120560D01*
X99369Y267880D01*
Y299748D01*
X99436Y299886D01*
X99460Y300258D01*
X99515Y300555D01*
X99615Y300886D01*
X99766Y301253D01*
X99973Y301653D01*
X100240Y302085D01*
X100556Y302527D01*
X101430Y303553D01*
X101958Y304092D01*
X102077Y304388D01*
X102609Y304920D01*
X103610Y306655D01*
X104129Y308590D01*
Y310594D01*
X103610Y312529D01*
X102609Y314264D01*
X101192Y315681D01*
X99457Y316682D01*
X97522Y317201D01*
X95518D01*
X93583Y316682D01*
X91848Y315681D01*
X90431Y314264D01*
X89430Y312529D01*
X88911Y310594D01*
Y308590D01*
X89430Y306655D01*
X90431Y304920D01*
X90951Y304401D01*
X91057Y304118D01*
X92091Y303015D01*
X92471Y302544D01*
X92800Y302085D01*
X93067Y301653D01*
X93274Y301253D01*
X93425Y300886D01*
X93525Y300555D01*
X93580Y300258D01*
X93604Y299886D01*
X93671Y299748D01*
Y266700D01*
X93671Y266700D01*
X93888Y265610D01*
X94506Y264686D01*
X117366Y241826D01*
X117366Y241826D01*
X118290Y241208D01*
X119380Y240991D01*
X331841D01*
X332472Y239467D01*
X331519Y238515D01*
X330483Y236719D01*
X329946Y234717D01*
Y232643D01*
X330483Y230641D01*
X331519Y228845D01*
X332066Y228299D01*
X332173Y228015D01*
X333275Y226843D01*
X333685Y226339D01*
X334038Y225850D01*
X334326Y225391D01*
X334549Y224967D01*
X334712Y224580D01*
X334820Y224232D01*
X334879Y223923D01*
X334904Y223540D01*
X334971Y223404D01*
Y220980D01*
X334971Y220980D01*
X335188Y219890D01*
X335806Y218966D01*
X366721Y188050D01*
Y175031D01*
X366651Y174873D01*
X366640Y174441D01*
X366612Y174123D01*
X366572Y173885D01*
X366561Y173844D01*
X364546D01*
Y151796D01*
X374594D01*
Y173844D01*
X372579D01*
X372568Y173885D01*
X372528Y174123D01*
X372500Y174441D01*
X372489Y174873D01*
X372419Y175031D01*
Y189230D01*
X372419Y189230D01*
X372202Y190320D01*
X371584Y191244D01*
X340669Y222160D01*
Y223404D01*
X340736Y223540D01*
X340761Y223923D01*
X340820Y224232D01*
X340928Y224580D01*
X341091Y224967D01*
X341314Y225391D01*
X341602Y225850D01*
X341943Y226322D01*
X342879Y227415D01*
X343443Y227990D01*
X343562Y228287D01*
X344121Y228845D01*
X345157Y230641D01*
X345694Y232643D01*
Y234717D01*
X345157Y236719D01*
X344121Y238515D01*
X343168Y239467D01*
X343800Y240991D01*
X352160D01*
X352792Y239467D01*
X351839Y238515D01*
X350803Y236719D01*
X350266Y234717D01*
Y232643D01*
X350803Y230641D01*
X351839Y228845D01*
X353305Y227379D01*
X355101Y226343D01*
X357103Y225806D01*
X359177D01*
X361179Y226343D01*
X362975Y227379D01*
X363521Y227926D01*
X363805Y228033D01*
X364977Y229135D01*
X365481Y229545D01*
X365970Y229898D01*
X366429Y230186D01*
X366853Y230409D01*
X367240Y230572D01*
X367588Y230680D01*
X367897Y230739D01*
X368280Y230764D01*
X368416Y230831D01*
X369660D01*
X379421Y221070D01*
Y175031D01*
X379351Y174873D01*
X379340Y174441D01*
X379312Y174123D01*
X379272Y173885D01*
X379261Y173844D01*
X377246D01*
Y151796D01*
X387294D01*
Y173844D01*
X385279D01*
X385268Y173885D01*
X385228Y174123D01*
X385200Y174441D01*
X385189Y174873D01*
X385119Y175031D01*
Y204347D01*
X386643Y204755D01*
X387399Y203445D01*
X388546Y202299D01*
X388670Y202061D01*
X389270Y201556D01*
X389770Y201089D01*
X390198Y200640D01*
X390555Y200210D01*
X390843Y199803D01*
X391065Y199421D01*
X391226Y199067D01*
X391333Y198741D01*
X391393Y198438D01*
X391419Y198043D01*
X391433Y198014D01*
X391424Y197983D01*
X391486Y197868D01*
Y175031D01*
X391416Y174873D01*
X391405Y174441D01*
X391377Y174123D01*
X391337Y173885D01*
X391326Y173844D01*
X389946D01*
Y151796D01*
X399994D01*
Y173844D01*
X397344D01*
X397333Y173885D01*
X397293Y174123D01*
X397265Y174441D01*
X397254Y174873D01*
X397184Y175031D01*
Y186045D01*
X398708Y186245D01*
X399063Y184921D01*
X400099Y183125D01*
X401246Y181979D01*
X401370Y181740D01*
X401970Y181236D01*
X402470Y180769D01*
X402898Y180320D01*
X403255Y179890D01*
X403543Y179483D01*
X403765Y179101D01*
X403926Y178747D01*
X404033Y178421D01*
X404093Y178118D01*
X404119Y177722D01*
X404133Y177694D01*
X404124Y177663D01*
X404186Y177548D01*
Y175031D01*
X404116Y174873D01*
X404105Y174441D01*
X404077Y174123D01*
X404037Y173885D01*
X404026Y173844D01*
X402646D01*
Y151796D01*
X412694D01*
Y173844D01*
X410044D01*
X410033Y173885D01*
X409993Y174123D01*
X409965Y174441D01*
X409954Y174873D01*
X409884Y175031D01*
Y177849D01*
X409951Y177986D01*
X409975Y178351D01*
X410032Y178662D01*
X410137Y179028D01*
X410298Y179445D01*
X410518Y179911D01*
X410798Y180420D01*
X411131Y180955D01*
X412023Y182192D01*
X412560Y182856D01*
X412613Y183038D01*
X412701Y183125D01*
X413737Y184921D01*
X414274Y186923D01*
Y188997D01*
X413737Y190999D01*
X412701Y192795D01*
X411235Y194261D01*
X409439Y195297D01*
X407437Y195834D01*
X405363D01*
X403361Y195297D01*
X401565Y194261D01*
X400099Y192795D01*
X399063Y190999D01*
X398708Y189675D01*
X397184Y189876D01*
Y198169D01*
X397251Y198306D01*
X397275Y198671D01*
X397332Y198982D01*
X397437Y199348D01*
X397598Y199765D01*
X397817Y200231D01*
X398098Y200740D01*
X398431Y201275D01*
X399323Y202512D01*
X399860Y203176D01*
X399913Y203358D01*
X400001Y203445D01*
X401037Y205241D01*
X401574Y207243D01*
Y209317D01*
X401037Y211319D01*
X400001Y213115D01*
X398535Y214581D01*
X396739Y215617D01*
X394737Y216154D01*
X392663D01*
X390661Y215617D01*
X388865Y214581D01*
X387399Y213115D01*
X386643Y211805D01*
X385119Y212213D01*
Y222250D01*
X385119Y222250D01*
X384902Y223340D01*
X384284Y224264D01*
X384284Y224264D01*
X372854Y235694D01*
X371930Y236312D01*
X370840Y236529D01*
X370840Y236529D01*
X368416D01*
X368280Y236596D01*
X367897Y236621D01*
X367588Y236680D01*
X367240Y236788D01*
X366853Y236951D01*
X366429Y237174D01*
X365970Y237462D01*
X365498Y237803D01*
X364405Y238739D01*
X363830Y239303D01*
X364055Y240835D01*
X364119Y240991D01*
X382640D01*
X383272Y239467D01*
X382319Y238515D01*
X381283Y236719D01*
X380746Y234717D01*
Y232643D01*
X381283Y230641D01*
X382319Y228845D01*
X383785Y227379D01*
X385581Y226343D01*
X387583Y225806D01*
X389657D01*
X391659Y226343D01*
X393455Y227379D01*
X394001Y227926D01*
X394285Y228033D01*
X395457Y229135D01*
X395961Y229545D01*
X396450Y229898D01*
X396909Y230186D01*
X397333Y230409D01*
X397720Y230572D01*
X398068Y230680D01*
X398377Y230739D01*
X398760Y230764D01*
X398896Y230831D01*
X402680D01*
X430221Y203290D01*
Y175031D01*
X430151Y174873D01*
X430140Y174441D01*
X430112Y174123D01*
X430072Y173885D01*
X430061Y173844D01*
X428046D01*
Y151796D01*
X438094D01*
Y173844D01*
X436079D01*
X436068Y173885D01*
X436028Y174123D01*
X436000Y174441D01*
X435989Y174873D01*
X435919Y175031D01*
Y194187D01*
X437443Y194596D01*
X438199Y193285D01*
X439346Y192139D01*
X439470Y191901D01*
X440070Y191396D01*
X440570Y190929D01*
X440998Y190480D01*
X441354Y190050D01*
X441642Y189643D01*
X441865Y189261D01*
X442026Y188907D01*
X442133Y188581D01*
X442193Y188278D01*
X442219Y187882D01*
X442233Y187854D01*
X442224Y187823D01*
X442286Y187708D01*
Y175031D01*
X442216Y174873D01*
X442205Y174441D01*
X442177Y174123D01*
X442137Y173885D01*
X442126Y173844D01*
X440746D01*
Y151796D01*
X450794D01*
Y173844D01*
X448144D01*
X448133Y173885D01*
X448093Y174123D01*
X448065Y174441D01*
X448054Y174873D01*
X447984Y175031D01*
Y188009D01*
X448051Y188146D01*
X448075Y188511D01*
X448132Y188822D01*
X448237Y189188D01*
X448398Y189605D01*
X448618Y190071D01*
X448898Y190580D01*
X449231Y191115D01*
X450123Y192352D01*
X450660Y193016D01*
X450713Y193198D01*
X450801Y193285D01*
X451837Y195081D01*
X452374Y197083D01*
Y199157D01*
X451837Y201159D01*
X450801Y202955D01*
X449335Y204421D01*
X447539Y205457D01*
X445537Y205994D01*
X443463D01*
X441461Y205457D01*
X439665Y204421D01*
X438199Y202955D01*
X437443Y201644D01*
X435919Y202053D01*
Y204470D01*
X435702Y205560D01*
X435084Y206484D01*
X435084Y206484D01*
X405874Y235694D01*
X404950Y236312D01*
X403860Y236529D01*
X403860Y236529D01*
X398896D01*
X398760Y236596D01*
X398377Y236621D01*
X398068Y236680D01*
X397720Y236788D01*
X397333Y236951D01*
X396909Y237174D01*
X396450Y237462D01*
X395978Y237803D01*
X394885Y238739D01*
X394310Y239303D01*
X394535Y240835D01*
X394599Y240991D01*
X418882D01*
X418882Y240991D01*
X419972Y241208D01*
X420896Y241826D01*
X422384Y243314D01*
X422384Y243314D01*
X423002Y244238D01*
X423219Y245328D01*
Y246609D01*
X423289Y246767D01*
X423300Y247199D01*
X423328Y247517D01*
X423368Y247755D01*
X423379Y247796D01*
X425394D01*
Y269844D01*
X415346D01*
Y247796D01*
X414954Y247364D01*
X413086D01*
X412694Y247796D01*
X412694Y248213D01*
Y267795D01*
X412725Y267833D01*
X412698Y268070D01*
X412789Y268290D01*
X412694Y268519D01*
Y269844D01*
X412075D01*
X411868Y272477D01*
X411860Y273385D01*
X411814Y273493D01*
Y281494D01*
X420196Y289876D01*
X426750D01*
X427159Y288352D01*
X426965Y288241D01*
X425499Y286775D01*
X424463Y284979D01*
X423926Y282977D01*
Y280903D01*
X424463Y278901D01*
X425499Y277105D01*
X426646Y275959D01*
X426770Y275721D01*
X427370Y275216D01*
X427870Y274749D01*
X428298Y274300D01*
X428655Y273870D01*
X428942Y273463D01*
X429165Y273081D01*
X429326Y272727D01*
X429433Y272401D01*
X429493Y272098D01*
X429519Y271702D01*
X429533Y271674D01*
X429524Y271643D01*
X429586Y271528D01*
Y271031D01*
X429516Y270873D01*
X429505Y270441D01*
X429477Y270123D01*
X429437Y269885D01*
X429426Y269844D01*
X428046D01*
Y247796D01*
X438094D01*
Y269844D01*
X435444D01*
X435433Y269885D01*
X435393Y270123D01*
X435365Y270441D01*
X435354Y270873D01*
X435284Y271031D01*
Y271829D01*
X435351Y271966D01*
X435375Y272331D01*
X435432Y272642D01*
X435537Y273008D01*
X435698Y273425D01*
X435918Y273891D01*
X436198Y274400D01*
X436531Y274935D01*
X437423Y276172D01*
X437960Y276836D01*
X438013Y277018D01*
X438101Y277105D01*
X439137Y278901D01*
X439674Y280903D01*
Y282977D01*
X439137Y284979D01*
X438101Y286775D01*
X436635Y288241D01*
X436441Y288352D01*
X436850Y289876D01*
X454690D01*
X455099Y288352D01*
X454905Y288241D01*
X453439Y286775D01*
X452403Y284979D01*
X452382Y284903D01*
X452291Y284826D01*
X452285Y284745D01*
X452228Y284687D01*
X452040Y284220D01*
X451869Y283880D01*
X451695Y283608D01*
X451524Y283397D01*
X451359Y283240D01*
X451198Y283124D01*
X451032Y283038D01*
X450851Y282975D01*
X450638Y282934D01*
X450285Y282913D01*
X449981Y282764D01*
X449295Y282628D01*
X448371Y282010D01*
X448371Y282010D01*
X443756Y277395D01*
X443138Y276471D01*
X442921Y275381D01*
X442921Y275381D01*
Y271031D01*
X442851Y270873D01*
X442840Y270441D01*
X442812Y270123D01*
X442772Y269885D01*
X442761Y269844D01*
X440746D01*
Y247796D01*
X450794D01*
Y269844D01*
X448779D01*
X448768Y269885D01*
X448728Y270123D01*
X448700Y270441D01*
X448689Y270873D01*
X448619Y271031D01*
Y274201D01*
X451415Y276997D01*
X451785Y276931D01*
X452243Y276817D01*
X452709Y276668D01*
X453185Y276484D01*
X453651Y276271D01*
X454688Y275691D01*
X455215Y275344D01*
X455308Y275326D01*
X455370Y275253D01*
X455607Y275234D01*
X456701Y274603D01*
X458703Y274066D01*
X460777D01*
X462779Y274603D01*
X464575Y275639D01*
X466041Y277105D01*
X467077Y278901D01*
X467614Y280903D01*
Y282977D01*
X467077Y284979D01*
X466041Y286775D01*
X464575Y288241D01*
X464381Y288352D01*
X464790Y289876D01*
X478565D01*
X478667Y289831D01*
X479581Y289807D01*
X480331Y289741D01*
X480950Y289638D01*
X481433Y289508D01*
X481773Y289368D01*
X481976Y289244D01*
X482068Y289159D01*
X482100Y289111D01*
X482119Y289057D01*
X482150Y288767D01*
X482236Y288609D01*
Y281036D01*
X503284D01*
Y283780D01*
X504295Y284377D01*
X505305Y283780D01*
Y282072D01*
X525935D01*
Y298675D01*
X515951D01*
X515793Y298761D01*
X515503Y298792D01*
X515449Y298811D01*
X515401Y298843D01*
X515316Y298935D01*
X515192Y299138D01*
X515052Y299478D01*
X514922Y299961D01*
X514819Y300580D01*
X514753Y301330D01*
X514729Y302244D01*
X514684Y302346D01*
Y307720D01*
X514729Y307820D01*
X514746Y308400D01*
X514793Y308895D01*
X514869Y309356D01*
X514973Y309783D01*
X515102Y310179D01*
X515257Y310546D01*
X515438Y310887D01*
X515644Y311206D01*
X515878Y311505D01*
X516190Y311838D01*
X516296Y312120D01*
X516841Y312665D01*
X517877Y314461D01*
X518414Y316463D01*
Y318537D01*
X517877Y320539D01*
X516841Y322335D01*
X515375Y323801D01*
X513579Y324837D01*
X511577Y325374D01*
X509503D01*
X507501Y324837D01*
X505705Y323801D01*
X505160Y323256D01*
X504879Y323150D01*
X504545Y322838D01*
X504246Y322604D01*
X503927Y322398D01*
X503586Y322218D01*
X503219Y322062D01*
X502823Y321933D01*
X502396Y321829D01*
X501935Y321753D01*
X501440Y321706D01*
X500860Y321689D01*
X500760Y321644D01*
X478875D01*
X478773Y321689D01*
X477859Y321713D01*
X477109Y321779D01*
X476490Y321882D01*
X476008Y322012D01*
X475667Y322152D01*
X475464Y322276D01*
X475372Y322361D01*
X475340Y322409D01*
X475321Y322463D01*
X475291Y322753D01*
X475205Y322911D01*
Y328085D01*
X459575D01*
Y306915D01*
X475205D01*
Y312089D01*
X475291Y312247D01*
X475321Y312537D01*
X475340Y312591D01*
X475372Y312639D01*
X475464Y312724D01*
X475667Y312848D01*
X476008Y312988D01*
X476490Y313118D01*
X477109Y313221D01*
X477859Y313287D01*
X478773Y313311D01*
X478875Y313356D01*
X500760D01*
X500860Y313311D01*
X501440Y313294D01*
X501935Y313247D01*
X502396Y313171D01*
X502823Y313067D01*
X503219Y312938D01*
X503586Y312782D01*
X503927Y312602D01*
X504246Y312396D01*
X504545Y312162D01*
X504879Y311850D01*
X504887Y311847D01*
X504890Y311838D01*
X505202Y311505D01*
X505436Y311206D01*
X505642Y310887D01*
X505822Y310546D01*
X505978Y310179D01*
X506107Y309783D01*
X506211Y309356D01*
X506287Y308895D01*
X506334Y308400D01*
X506351Y307820D01*
X506396Y307720D01*
Y302327D01*
X506351Y302220D01*
X506340Y301292D01*
X506253Y299755D01*
X506186Y299197D01*
X506105Y298759D01*
X506082Y298675D01*
X505305D01*
Y297350D01*
X505210Y297121D01*
X505285Y296939D01*
X505253Y296744D01*
X504911Y295921D01*
X504294Y295556D01*
X503284Y296154D01*
Y298084D01*
X488700D01*
X488300Y298164D01*
X483837D01*
X483800Y298179D01*
X478720Y298210D01*
X478716Y298207D01*
X478711Y298210D01*
X478600Y298164D01*
X418480D01*
X416894Y297848D01*
X415550Y296950D01*
X404740Y286140D01*
X403842Y284796D01*
X403526Y283210D01*
Y273507D01*
X403481Y273403D01*
X403445Y271622D01*
X403341Y270305D01*
X403275Y269862D01*
X403271Y269844D01*
X402646D01*
Y268519D01*
X402551Y268290D01*
X402642Y268070D01*
X402615Y267833D01*
X402646Y267795D01*
Y248213D01*
X402646Y247796D01*
X402254Y247364D01*
X401166D01*
X399994Y248725D01*
Y269844D01*
X397979D01*
X397968Y269885D01*
X397928Y270123D01*
X397900Y270441D01*
X397889Y270873D01*
X397819Y271031D01*
Y289650D01*
X405874Y297706D01*
X405874Y297706D01*
X406492Y298630D01*
X406709Y299720D01*
X406709Y299720D01*
Y307266D01*
X406779Y307424D01*
X406790Y307856D01*
X406818Y308174D01*
X406858Y308412D01*
X406869Y308453D01*
X417455D01*
Y314491D01*
X417496Y314502D01*
X417734Y314542D01*
X418052Y314570D01*
X418484Y314581D01*
X418642Y314651D01*
X427849D01*
X428006Y314581D01*
X428438Y314570D01*
X428756Y314542D01*
X428994Y314502D01*
X429035Y314491D01*
Y306915D01*
X444665D01*
Y328085D01*
X429035D01*
Y320509D01*
X428994Y320498D01*
X428756Y320458D01*
X428438Y320430D01*
X428007Y320419D01*
X427849Y320349D01*
X418642D01*
X418484Y320419D01*
X418052Y320430D01*
X417734Y320458D01*
X417496Y320498D01*
X417455Y320509D01*
Y326547D01*
X395345D01*
Y320509D01*
X395304Y320498D01*
X395066Y320458D01*
X394748Y320430D01*
X394316Y320419D01*
X394158Y320349D01*
X389800D01*
X388929Y321220D01*
Y345440D01*
X388929Y345440D01*
X388712Y346530D01*
X388094Y347454D01*
X388094Y347454D01*
X382072Y353476D01*
X381148Y354094D01*
X380058Y354311D01*
X380058Y354311D01*
X371943D01*
X371782Y354381D01*
X371338Y354390D01*
X370992Y354413D01*
X370764Y354441D01*
Y362433D01*
X370805Y362444D01*
X371043Y362484D01*
X371361Y362512D01*
X371793Y362523D01*
X371951Y362593D01*
X507682D01*
X507682Y362593D01*
X508772Y362810D01*
X509696Y363428D01*
X521444Y375176D01*
X521444Y375176D01*
X522062Y376100D01*
X522279Y377190D01*
X522279Y377190D01*
Y381363D01*
X522349Y381521D01*
X522359Y381898D01*
X522384Y382212D01*
X522426Y382509D01*
X522483Y382786D01*
X522554Y383047D01*
X522638Y383292D01*
X522736Y383522D01*
X522848Y383740D01*
X522974Y383947D01*
X523149Y384194D01*
X523220Y384501D01*
X523456Y384854D01*
X523788Y386522D01*
Y393522D01*
X523456Y395190D01*
X522511Y396603D01*
X521098Y397548D01*
X519430Y397880D01*
X517762Y397548D01*
X516349Y396603D01*
X515404Y395190D01*
X515072Y393522D01*
Y386522D01*
X515404Y384854D01*
X515640Y384501D01*
X515710Y384194D01*
X515886Y383948D01*
X516012Y383740D01*
X516124Y383522D01*
X516222Y383292D01*
X516306Y383047D01*
X516377Y382786D01*
X516434Y382509D01*
X516475Y382212D01*
X516501Y381898D01*
X516511Y381521D01*
X516581Y381363D01*
Y378370D01*
X506502Y368291D01*
X478615D01*
X477984Y369815D01*
X534144Y425976D01*
X534144Y425976D01*
X534762Y426900D01*
X534979Y427990D01*
X534979Y427990D01*
Y433863D01*
X535049Y434021D01*
X535059Y434398D01*
X535084Y434713D01*
X535126Y435009D01*
X535183Y435286D01*
X535253Y435547D01*
X535338Y435792D01*
X535436Y436022D01*
X535548Y436240D01*
X535674Y436448D01*
X535850Y436694D01*
X535920Y437001D01*
X536156Y437354D01*
X536488Y439022D01*
Y446022D01*
X536156Y447690D01*
X535211Y449103D01*
X533798Y450048D01*
X532130Y450380D01*
X530462Y450048D01*
X529049Y449103D01*
X528104Y447690D01*
X527772Y446022D01*
Y439022D01*
X528104Y437354D01*
X528340Y437001D01*
X528410Y436694D01*
X528586Y436447D01*
X528712Y436240D01*
X528824Y436022D01*
X528922Y435792D01*
X529007Y435547D01*
X529077Y435286D01*
X529134Y435009D01*
X529175Y434713D01*
X529201Y434398D01*
X529211Y434021D01*
X529281Y433863D01*
Y429170D01*
X473922Y373811D01*
X371943D01*
X371782Y373881D01*
X371338Y373890D01*
X370992Y373913D01*
X370764Y373941D01*
Y380188D01*
Y386688D01*
Y393188D01*
Y399688D01*
Y406188D01*
Y413736D01*
X352716D01*
Y406188D01*
Y399945D01*
X352120Y399890D01*
X351698Y399881D01*
X351537Y399811D01*
X350690D01*
X348289Y402212D01*
Y444905D01*
X348353Y445029D01*
X348380Y445332D01*
X348451Y445672D01*
X348577Y446101D01*
X351031Y451611D01*
X351674Y452855D01*
X351674Y452859D01*
X351677Y452862D01*
X351699Y453132D01*
X352008Y453667D01*
X352674Y456153D01*
Y458727D01*
X352008Y461213D01*
X350721Y463441D01*
X348901Y465261D01*
X346673Y466548D01*
X344187Y467214D01*
X341613D01*
X339127Y466548D01*
X336899Y465261D01*
X335079Y463441D01*
X333792Y461213D01*
X333126Y458727D01*
Y456153D01*
X333792Y453667D01*
X335079Y451439D01*
X336899Y449619D01*
X338246Y448841D01*
X338443Y448601D01*
X339340Y448123D01*
X340088Y447663D01*
X340727Y447205D01*
X341257Y446753D01*
X341681Y446314D01*
X342006Y445892D01*
X342240Y445490D01*
X342396Y445104D01*
X342486Y444725D01*
X342525Y444212D01*
X342591Y444082D01*
Y435239D01*
X341067Y434608D01*
X340115Y435561D01*
X338319Y436597D01*
X336317Y437134D01*
X334243D01*
X332241Y436597D01*
X330445Y435561D01*
X329899Y435014D01*
X329615Y434907D01*
X328443Y433805D01*
X327939Y433395D01*
X327450Y433042D01*
X326991Y432754D01*
X326869Y432690D01*
X325945Y433037D01*
X325554Y433356D01*
X325368Y433649D01*
X325345Y433719D01*
Y439845D01*
X309715D01*
Y418675D01*
X314521D01*
X314532Y418634D01*
X314571Y418396D01*
X314600Y418078D01*
X314611Y417646D01*
X314681Y417489D01*
Y395786D01*
X314320Y395446D01*
X314236Y395443D01*
X312764Y396823D01*
Y406188D01*
Y413736D01*
X294716D01*
Y406445D01*
X294120Y406390D01*
X293698Y406381D01*
X293537Y406311D01*
X281640D01*
X269624Y418326D01*
X268700Y418944D01*
X267610Y419161D01*
X267610Y419161D01*
X253374D01*
Y423538D01*
Y434086D01*
X244890D01*
Y435102D01*
X243874D01*
Y443586D01*
X239890D01*
Y444602D01*
X237370D01*
Y438562D01*
X234830D01*
Y444602D01*
X233969D01*
Y450760D01*
X236130Y452921D01*
X236508D01*
X236646Y452854D01*
X236985Y452832D01*
X237292Y452779D01*
X237646Y452684D01*
X238640Y452303D01*
X239150Y452059D01*
X241173Y450891D01*
X241919Y450400D01*
X242239Y450338D01*
X243341Y449703D01*
X245343Y449166D01*
X247417D01*
X249419Y449703D01*
X251215Y450739D01*
X252681Y452205D01*
X253717Y454001D01*
X254254Y456003D01*
Y458077D01*
X253717Y460079D01*
X252681Y461875D01*
X251215Y463341D01*
X249419Y464377D01*
X247417Y464914D01*
X245343D01*
X243341Y464377D01*
X241545Y463341D01*
X241477Y463273D01*
X240111Y464062D01*
X240538Y465655D01*
Y467729D01*
X240001Y469731D01*
X238965Y471527D01*
X237986Y472506D01*
X238504Y473889D01*
X238607Y474040D01*
X240143Y474345D01*
X241487Y475243D01*
X241659Y475415D01*
X262803Y454270D01*
X264148Y453372D01*
X265733Y453056D01*
X278631D01*
X278732Y453011D01*
X279541Y452987D01*
X280210Y452923D01*
X280783Y452821D01*
X281257Y452689D01*
X281633Y452537D01*
X281918Y452375D01*
X282124Y452211D01*
X282274Y452044D01*
X282387Y451860D01*
X282525Y451512D01*
X282587Y451449D01*
X282654Y451111D01*
X283902Y449242D01*
X285332Y448287D01*
X285760Y446560D01*
X284090Y444890D01*
X283192Y443546D01*
X282931Y442236D01*
X282831Y442016D01*
X282788Y440751D01*
X282743Y440308D01*
X282683Y439948D01*
X282657Y439845D01*
X279175D01*
Y418675D01*
X294805D01*
Y426199D01*
X295000Y426330D01*
X295898Y427674D01*
X296214Y429260D01*
X295898Y430846D01*
X295000Y432190D01*
X294805Y432385D01*
Y439845D01*
X292920D01*
X292289Y441369D01*
X295015Y444095D01*
X295913Y445439D01*
X296229Y447025D01*
Y447556D01*
X298429Y447994D01*
X300298Y449242D01*
X301546Y451111D01*
X301985Y453315D01*
Y461565D01*
X301546Y463769D01*
X300298Y465638D01*
X298429Y466886D01*
X296225Y467325D01*
X287975D01*
X285771Y466886D01*
X283902Y465638D01*
X282654Y463769D01*
X282468Y462834D01*
X282313Y462603D01*
X282252Y462296D01*
X282209Y462199D01*
X282142Y462108D01*
X282012Y461993D01*
X281781Y461856D01*
X281428Y461712D01*
X280947Y461581D01*
X280342Y461479D01*
X279617Y461413D01*
X278736Y461389D01*
X278634Y461344D01*
X267450D01*
X249836Y478957D01*
X250569Y480380D01*
X251402Y480380D01*
X260350D01*
Y488650D01*
X250080D01*
Y481885D01*
X249937Y481745D01*
X248556Y481097D01*
X247984Y481504D01*
Y483456D01*
Y510358D01*
X248734Y511155D01*
X249508Y511588D01*
X249810Y511538D01*
X250293Y511408D01*
X250633Y511268D01*
X250836Y511144D01*
X250928Y511059D01*
X250960Y511011D01*
X250979Y510957D01*
X251010Y510667D01*
X251096Y510509D01*
Y507396D01*
X272144D01*
Y524444D01*
X251096D01*
Y521331D01*
X251010Y521173D01*
X250979Y520883D01*
X250960Y520829D01*
X250928Y520781D01*
X250836Y520696D01*
X250633Y520572D01*
X250293Y520432D01*
X249810Y520302D01*
X249508Y520252D01*
X248734Y520686D01*
X247984Y521482D01*
Y528320D01*
X247668Y529906D01*
X246770Y531250D01*
X231530Y546490D01*
X230186Y547388D01*
X228600Y547704D01*
X177771D01*
X177646Y547742D01*
D02*
G37*
G36*
X173630Y484480D02*
X165610D01*
Y473710D01*
X173630D01*
Y484480D01*
D02*
G37*
G36*
X163070D02*
X155050D01*
Y473710D01*
X163070D01*
Y484480D01*
D02*
G37*
G36*
X620941Y478961D02*
X613380D01*
Y468630D01*
X620941D01*
Y478961D01*
D02*
G37*
G36*
X610840D02*
X603279D01*
Y468630D01*
X610840D01*
Y478961D01*
D02*
G37*
G36*
X100150Y476876D02*
X91117D01*
Y466090D01*
X100150D01*
Y476876D01*
D02*
G37*
G36*
X88577D02*
X79544D01*
Y466090D01*
X88577D01*
Y476876D01*
D02*
G37*
G36*
X469854Y477314D02*
X454706D01*
Y462166D01*
X469854D01*
Y477314D01*
D02*
G37*
G36*
X318920Y468230D02*
X318770D01*
Y458710D01*
X328290D01*
Y458861D01*
X327555Y461605D01*
X326134Y464065D01*
X324125Y466074D01*
X321665Y467495D01*
X318920Y468230D01*
D02*
G37*
G36*
X316230D02*
X316080D01*
X313335Y467495D01*
X310875Y466074D01*
X308866Y464065D01*
X307445Y461605D01*
X306710Y458861D01*
Y458710D01*
X316230D01*
Y468230D01*
D02*
G37*
G36*
X620941Y466090D02*
X613380D01*
Y455759D01*
X620941D01*
Y466090D01*
D02*
G37*
G36*
X610840D02*
X603279D01*
Y455759D01*
X610840D01*
Y466090D01*
D02*
G37*
G36*
X100150Y463550D02*
X91117D01*
Y452764D01*
X100150D01*
Y463550D01*
D02*
G37*
G36*
X88577D02*
X79544D01*
Y452764D01*
X88577D01*
Y463550D01*
D02*
G37*
G36*
X650465Y477945D02*
X634835D01*
Y456775D01*
X650465D01*
Y464063D01*
X650506Y464074D01*
X650744Y464114D01*
X651062Y464142D01*
X651494Y464153D01*
X651651Y464223D01*
X667967D01*
X668098Y464157D01*
X668542Y464123D01*
X668921Y464041D01*
X669366Y463888D01*
X669872Y463654D01*
X670434Y463335D01*
X671046Y462928D01*
X671689Y462443D01*
X673155Y461157D01*
X673938Y460385D01*
X674236Y460264D01*
X674949Y459551D01*
X676178Y458842D01*
X676527Y457236D01*
X676395Y456903D01*
X671920Y452429D01*
X594648D01*
X594648Y452429D01*
X593558Y452212D01*
X592634Y451594D01*
X592634Y451594D01*
X542816Y401776D01*
X542198Y400852D01*
X541981Y399762D01*
X541981Y399762D01*
Y398681D01*
X541911Y398523D01*
X541901Y398146D01*
X541875Y397831D01*
X541834Y397535D01*
X541777Y397258D01*
X541706Y396997D01*
X541622Y396752D01*
X541524Y396522D01*
X541412Y396304D01*
X541286Y396096D01*
X541110Y395850D01*
X541040Y395543D01*
X540804Y395190D01*
X540472Y393522D01*
Y386522D01*
X540804Y384854D01*
X541749Y383441D01*
X543162Y382496D01*
X544830Y382164D01*
X546498Y382496D01*
X547911Y383441D01*
X548856Y384854D01*
X549188Y386522D01*
Y393522D01*
X548856Y395190D01*
X548620Y395543D01*
X548550Y395850D01*
X548374Y396096D01*
X548248Y396304D01*
X548136Y396522D01*
X548038Y396752D01*
X547954Y396997D01*
X547883Y397258D01*
X547826Y397535D01*
X547785Y397831D01*
X547759Y398146D01*
X547749Y398523D01*
X547709Y398612D01*
X595828Y446731D01*
X673100D01*
X673100Y446731D01*
X674190Y446948D01*
X675114Y447566D01*
X682409Y454860D01*
X682409Y454860D01*
X683027Y455785D01*
X683169Y456502D01*
X683314Y456819D01*
X683326Y457183D01*
X683354Y457439D01*
X683395Y457638D01*
X683441Y457781D01*
X683483Y457873D01*
X683515Y457924D01*
X683537Y457948D01*
X683554Y457962D01*
X683582Y457979D01*
X683744Y458044D01*
X683896Y458192D01*
X684348Y458314D01*
X686491Y459551D01*
X688241Y461301D01*
X689479Y463444D01*
X690119Y465835D01*
Y468309D01*
X689479Y470700D01*
X688241Y472843D01*
X686491Y474593D01*
X684348Y475830D01*
X681957Y476471D01*
X679483D01*
X677092Y475830D01*
X674949Y474593D01*
X674236Y473880D01*
X673938Y473759D01*
X673155Y472987D01*
X671689Y471701D01*
X671046Y471216D01*
X670434Y470808D01*
X669872Y470490D01*
X669366Y470256D01*
X668921Y470103D01*
X668542Y470021D01*
X668098Y469987D01*
X667967Y469921D01*
X651651D01*
X651494Y469991D01*
X651062Y470002D01*
X650744Y470030D01*
X650506Y470070D01*
X650465Y470081D01*
Y477945D01*
D02*
G37*
G36*
X36294Y475004D02*
X13246D01*
Y450156D01*
X36294D01*
Y475004D01*
D02*
G37*
G36*
X369587Y467214D02*
X367013D01*
X364527Y466548D01*
X362299Y465261D01*
X360479Y463441D01*
X359192Y461213D01*
X358526Y458727D01*
Y456153D01*
X359192Y453667D01*
X360479Y451439D01*
X362299Y449619D01*
X364527Y448332D01*
X367013Y447666D01*
X369587D01*
X372073Y448332D01*
X374301Y449619D01*
X376121Y451439D01*
X377408Y453667D01*
X378074Y456153D01*
Y458727D01*
X377408Y461213D01*
X376121Y463441D01*
X374301Y465261D01*
X372073Y466548D01*
X369587Y467214D01*
D02*
G37*
G36*
X328290Y456170D02*
X318770D01*
Y446650D01*
X318920D01*
X321665Y447385D01*
X324125Y448806D01*
X326134Y450815D01*
X327555Y453275D01*
X328290Y456020D01*
Y456170D01*
D02*
G37*
G36*
X316230D02*
X306710D01*
Y456020D01*
X307445Y453275D01*
X308866Y450815D01*
X310875Y448806D01*
X313335Y447385D01*
X316080Y446650D01*
X316230D01*
Y456170D01*
D02*
G37*
G36*
X488677Y451914D02*
X486683D01*
X484757Y451398D01*
X483030Y450401D01*
X481619Y448991D01*
X480622Y447263D01*
X480106Y445337D01*
Y443343D01*
X480622Y441417D01*
X481619Y439689D01*
X483030Y438279D01*
X484757Y437282D01*
X486683Y436766D01*
X488677D01*
X490603Y437282D01*
X492331Y438279D01*
X493741Y439689D01*
X494738Y441417D01*
X495254Y443343D01*
Y445337D01*
X494738Y447263D01*
X493741Y448991D01*
X492331Y450401D01*
X490603Y451398D01*
X488677Y451914D01*
D02*
G37*
G36*
X463550Y427493D02*
Y420210D01*
X470833D01*
X470285Y422256D01*
X469154Y424214D01*
X467554Y425814D01*
X465596Y426945D01*
X463550Y427493D01*
D02*
G37*
G36*
X461010D02*
X458964Y426945D01*
X457006Y425814D01*
X455406Y424214D01*
X454275Y422256D01*
X453727Y420210D01*
X461010D01*
Y427493D01*
D02*
G37*
G36*
X544830Y450380D02*
X543162Y450048D01*
X541749Y449103D01*
X540804Y447690D01*
X540472Y446022D01*
Y439022D01*
X540804Y437354D01*
X541018Y437034D01*
X541069Y436754D01*
X541112Y436688D01*
X541121Y436670D01*
X541142Y436609D01*
X541236Y436200D01*
X541266Y435993D01*
X541339Y434879D01*
X541344Y434445D01*
X541415Y434279D01*
Y429242D01*
X541355Y429133D01*
X541366Y429093D01*
X541348Y429056D01*
X541321Y428660D01*
X541261Y428358D01*
X541155Y428034D01*
X540994Y427683D01*
X540772Y427306D01*
X540485Y426905D01*
X540128Y426481D01*
X539700Y426039D01*
X539199Y425581D01*
X538597Y425085D01*
X538482Y424869D01*
X537259Y423647D01*
X536223Y421851D01*
X536074Y421297D01*
X535900Y421107D01*
X535866Y421012D01*
X535828Y420994D01*
X535728Y420962D01*
X535574Y420931D01*
X535365Y420907D01*
X535050Y420896D01*
X534733Y420752D01*
X534016Y420610D01*
X533091Y419992D01*
X533091Y419992D01*
X530116Y417016D01*
X529498Y416092D01*
X529281Y415002D01*
X529281Y415002D01*
Y398681D01*
X529211Y398523D01*
X529201Y398146D01*
X529175Y397831D01*
X529134Y397535D01*
X529077Y397258D01*
X529006Y396997D01*
X528922Y396752D01*
X528824Y396522D01*
X528712Y396304D01*
X528586Y396096D01*
X528410Y395850D01*
X528340Y395543D01*
X528104Y395190D01*
X527772Y393522D01*
Y386522D01*
X528104Y384854D01*
X529049Y383441D01*
X530462Y382496D01*
X532130Y382164D01*
X533798Y382496D01*
X535211Y383441D01*
X536156Y384854D01*
X536488Y386522D01*
Y393522D01*
X536156Y395190D01*
X535920Y395543D01*
X535850Y395850D01*
X535674Y396096D01*
X535548Y396304D01*
X535436Y396522D01*
X535338Y396752D01*
X535254Y396997D01*
X535183Y397258D01*
X535126Y397535D01*
X535084Y397831D01*
X535059Y398146D01*
X535049Y398523D01*
X534979Y398681D01*
Y413234D01*
X535844Y413863D01*
X537259Y413977D01*
X538725Y412511D01*
X540521Y411475D01*
X542523Y410938D01*
X544597D01*
X546599Y411475D01*
X548395Y412511D01*
X549861Y413977D01*
X550897Y415773D01*
X551434Y417775D01*
Y419849D01*
X550897Y421851D01*
X549861Y423647D01*
X549820Y423687D01*
X549774Y423849D01*
X549242Y424523D01*
X548356Y425776D01*
X548023Y426318D01*
X547744Y426832D01*
X547525Y427302D01*
X547365Y427722D01*
X547260Y428090D01*
X547203Y428401D01*
X547180Y428763D01*
X547112Y428901D01*
Y433404D01*
X547135Y433434D01*
X547112Y433581D01*
Y433617D01*
X547182Y433768D01*
X547192Y434033D01*
X547216Y434236D01*
X547256Y434445D01*
X547314Y434660D01*
X547391Y434882D01*
X547489Y435113D01*
X547599Y435332D01*
X547934Y435877D01*
X548136Y436155D01*
X548183Y436347D01*
X548856Y437354D01*
X549188Y439022D01*
Y446022D01*
X548856Y447690D01*
X547911Y449103D01*
X546498Y450048D01*
X544830Y450380D01*
D02*
G37*
G36*
X470833Y417670D02*
X463550D01*
Y410387D01*
X465596Y410935D01*
X467554Y412066D01*
X469154Y413666D01*
X470285Y415624D01*
X470833Y417670D01*
D02*
G37*
G36*
X461010D02*
X453727D01*
X454275Y415624D01*
X455406Y413666D01*
X457006Y412066D01*
X458964Y410935D01*
X461010Y410387D01*
Y417670D01*
D02*
G37*
G36*
X558800Y398663D02*
Y391292D01*
X562924D01*
Y393522D01*
X562513Y395586D01*
X561344Y397336D01*
X559594Y398505D01*
X558800Y398663D01*
D02*
G37*
G36*
X556260D02*
X555466Y398505D01*
X553716Y397336D01*
X552547Y395586D01*
X552136Y393522D01*
Y391292D01*
X556260D01*
Y398663D01*
D02*
G37*
G36*
X562924Y388752D02*
X558800D01*
Y381381D01*
X559594Y381539D01*
X561344Y382708D01*
X562513Y384458D01*
X562924Y386522D01*
Y388752D01*
D02*
G37*
G36*
X556260D02*
X552136D01*
Y386522D01*
X552547Y384458D01*
X553716Y382708D01*
X555466Y381539D01*
X556260Y381381D01*
Y388752D01*
D02*
G37*
G36*
X164531Y385211D02*
X155982D01*
Y374650D01*
X164531D01*
Y385211D01*
D02*
G37*
G36*
X153442D02*
X144894D01*
Y374650D01*
X153442D01*
Y385211D01*
D02*
G37*
G36*
X690000Y361650D02*
X686070D01*
X685990Y361617D01*
X685908Y361642D01*
X678086Y360871D01*
X678010Y360831D01*
X677926Y360847D01*
X670216Y359314D01*
X670145Y359266D01*
X670059Y359275D01*
X662538Y356993D01*
X662471Y356938D01*
X662385D01*
X655123Y353930D01*
X655062Y353870D01*
X654977Y353861D01*
X648045Y350156D01*
X647990Y350089D01*
X647906Y350073D01*
X641370Y345706D01*
X641322Y345634D01*
X641240Y345609D01*
X635164Y340623D01*
X635123Y340547D01*
X635044Y340514D01*
X629486Y334956D01*
X629453Y334877D01*
X629377Y334836D01*
X624391Y328760D01*
X624366Y328678D01*
X624294Y328630D01*
X619927Y322094D01*
X619911Y322010D01*
X619844Y321955D01*
X616139Y315023D01*
X616130Y314938D01*
X616070Y314877D01*
X613062Y307615D01*
Y307529D01*
X613007Y307463D01*
X610725Y299941D01*
X610734Y299855D01*
X610686Y299784D01*
X609153Y292074D01*
X609169Y291990D01*
X609129Y291914D01*
X608358Y284092D01*
X608383Y284010D01*
X608350Y283930D01*
Y276070D01*
X608383Y275990D01*
X608358Y275908D01*
X609129Y268086D01*
X609169Y268010D01*
X609153Y267926D01*
X610686Y260216D01*
X610734Y260145D01*
X610725Y260059D01*
X613007Y252537D01*
X613062Y252471D01*
Y252385D01*
X616070Y245123D01*
X616130Y245062D01*
X616139Y244977D01*
X619844Y238045D01*
X619911Y237990D01*
X619927Y237906D01*
X624294Y231370D01*
X624366Y231322D01*
X624391Y231240D01*
X629377Y225164D01*
X629453Y225124D01*
X629486Y225044D01*
X635044Y219486D01*
X635123Y219453D01*
X635164Y219377D01*
X641240Y214391D01*
X641322Y214366D01*
X641370Y214294D01*
X647906Y209927D01*
X647990Y209911D01*
X648045Y209844D01*
X654977Y206139D01*
X655062Y206130D01*
X655123Y206070D01*
X662385Y203062D01*
X662471D01*
X662538Y203007D01*
X670059Y200725D01*
X670145Y200734D01*
X670216Y200686D01*
X677926Y199153D01*
X678010Y199169D01*
X678086Y199129D01*
X685908Y198358D01*
X685990Y198383D01*
X686070Y198350D01*
X690000D01*
X693930Y198350D01*
X694010Y198383D01*
X694092Y198358D01*
X701914Y199129D01*
X701990Y199169D01*
X702074Y199153D01*
X709784Y200686D01*
X709855Y200734D01*
X709941Y200725D01*
X717462Y203007D01*
X717529Y203062D01*
X717615D01*
X724877Y206070D01*
X724938Y206130D01*
X725023Y206139D01*
X731955Y209844D01*
X732010Y209911D01*
X732094Y209927D01*
X738630Y214294D01*
X738678Y214366D01*
X738760Y214391D01*
X744836Y219377D01*
X744876Y219453D01*
X744956Y219486D01*
X750514Y225044D01*
X750547Y225124D01*
X750623Y225164D01*
X755609Y231240D01*
X755634Y231322D01*
X755706Y231370D01*
X760072Y237906D01*
X760089Y237990D01*
X760156Y238044D01*
X763861Y244977D01*
X763869Y245062D01*
X763930Y245123D01*
X766938Y252385D01*
Y252471D01*
X766993Y252537D01*
X769275Y260059D01*
X769266Y260145D01*
X769314Y260216D01*
X770847Y267925D01*
X770831Y268010D01*
X770871Y268086D01*
X771642Y275908D01*
X771617Y275990D01*
X771649Y276070D01*
X771649Y280000D01*
X771649Y280000D01*
X771649Y283930D01*
X771617Y284009D01*
X771642Y284092D01*
X770871Y291914D01*
X770831Y291990D01*
X770847Y292074D01*
X769314Y299784D01*
X769266Y299855D01*
X769275Y299941D01*
X766993Y307463D01*
X766938Y307529D01*
Y307615D01*
X763930Y314877D01*
X763869Y314938D01*
X763861Y315023D01*
X760156Y321955D01*
X760089Y322010D01*
X760073Y322094D01*
X755706Y328630D01*
X755634Y328678D01*
X755609Y328760D01*
X750623Y334836D01*
X750547Y334877D01*
X750514Y334956D01*
X744956Y340514D01*
X744876Y340547D01*
X744836Y340623D01*
X738760Y345609D01*
X738678Y345634D01*
X738630Y345706D01*
X732094Y350073D01*
X732010Y350089D01*
X731955Y350156D01*
X725023Y353861D01*
X724938Y353870D01*
X724877Y353930D01*
X717615Y356938D01*
X717529D01*
X717462Y356993D01*
X709941Y359275D01*
X709855Y359266D01*
X709784Y359314D01*
X702074Y360847D01*
X701990Y360831D01*
X701914Y360871D01*
X694092Y361642D01*
X694010Y361617D01*
X693930Y361650D01*
X690000Y361650D01*
X690000Y361650D01*
D02*
G37*
G36*
X164531Y372110D02*
X155982D01*
Y361549D01*
X164531D01*
Y372110D01*
D02*
G37*
G36*
X153442D02*
X144894D01*
Y361549D01*
X153442D01*
Y372110D01*
D02*
G37*
G36*
X418471Y357579D02*
X407670D01*
Y348786D01*
X418471D01*
Y357579D01*
D02*
G37*
G36*
X405130D02*
X394329D01*
Y348786D01*
X405130D01*
Y357579D01*
D02*
G37*
G36*
X36294Y372804D02*
X13246D01*
Y347956D01*
X36294D01*
Y372804D01*
D02*
G37*
G36*
X144211Y357271D02*
X135662D01*
Y346710D01*
X144211D01*
Y357271D01*
D02*
G37*
G36*
X133122D02*
X124574D01*
Y346710D01*
X133122D01*
Y357271D01*
D02*
G37*
G36*
X418471Y346246D02*
X407670D01*
Y337453D01*
X418471D01*
Y346246D01*
D02*
G37*
G36*
X405130D02*
X394329D01*
Y337453D01*
X405130D01*
Y346246D01*
D02*
G37*
G36*
X267369Y346084D02*
X258318D01*
Y337291D01*
X267369D01*
Y346084D01*
D02*
G37*
G36*
X255778D02*
X246727D01*
Y337291D01*
X255778D01*
Y346084D01*
D02*
G37*
G36*
X307410Y344071D02*
X299363D01*
Y334010D01*
X307410D01*
Y344071D01*
D02*
G37*
G36*
X296823D02*
X288775D01*
Y334010D01*
X296823D01*
Y344071D01*
D02*
G37*
G36*
X144211Y344170D02*
X135662D01*
Y333609D01*
X144211D01*
Y344170D01*
D02*
G37*
G36*
X133122D02*
X124574D01*
Y333609D01*
X133122D01*
Y344170D01*
D02*
G37*
G36*
X307410Y331470D02*
X299363D01*
Y321409D01*
X307410D01*
Y331470D01*
D02*
G37*
G36*
X296823D02*
X288775D01*
Y321409D01*
X296823D01*
Y331470D01*
D02*
G37*
G36*
X317665Y317925D02*
X302035D01*
Y312751D01*
X301949Y312593D01*
X301919Y312303D01*
X301900Y312249D01*
X301868Y312201D01*
X301776Y312116D01*
X301573Y311992D01*
X301232Y311852D01*
X300750Y311722D01*
X300131Y311619D01*
X299381Y311553D01*
X298876Y311540D01*
X298660Y311546D01*
X298165Y311593D01*
X297705Y311669D01*
X297277Y311773D01*
X296881Y311902D01*
X296514Y312057D01*
X296173Y312238D01*
X295854Y312444D01*
X295555Y312678D01*
X295222Y312990D01*
X294940Y313095D01*
X294395Y313641D01*
X292599Y314677D01*
X290597Y315214D01*
X288523D01*
X286521Y314677D01*
X284725Y313641D01*
X283259Y312175D01*
X282223Y310379D01*
X281686Y308377D01*
Y306303D01*
X282223Y304301D01*
X283259Y302505D01*
X284725Y301039D01*
X286521Y300003D01*
X288523Y299466D01*
X290597D01*
X292599Y300003D01*
X294395Y301039D01*
X294940Y301584D01*
X295222Y301690D01*
X295555Y302002D01*
X295854Y302236D01*
X296173Y302442D01*
X296514Y302622D01*
X296881Y302778D01*
X297277Y302907D01*
X297705Y303011D01*
X298165Y303087D01*
X298660Y303134D01*
X298876Y303140D01*
X299381Y303127D01*
X300131Y303061D01*
X300750Y302958D01*
X301232Y302828D01*
X301573Y302688D01*
X301776Y302564D01*
X301868Y302479D01*
X301900Y302431D01*
X301919Y302377D01*
X301949Y302087D01*
X302035Y301929D01*
Y296755D01*
X317665D01*
Y317925D01*
D02*
G37*
G36*
X199122Y317201D02*
X197118D01*
X195183Y316682D01*
X193448Y315681D01*
X192031Y314264D01*
X191029Y312529D01*
X190511Y310594D01*
Y308590D01*
X191029Y306655D01*
X192031Y304920D01*
X193448Y303503D01*
X195183Y302502D01*
X197118Y301983D01*
X199122D01*
X201057Y302502D01*
X202792Y303503D01*
X204209Y304920D01*
X205210Y306655D01*
X205729Y308590D01*
Y310594D01*
X205210Y312529D01*
X204209Y314264D01*
X202792Y315681D01*
X201057Y316682D01*
X199122Y317201D01*
D02*
G37*
G36*
X173722D02*
X171718D01*
X169783Y316682D01*
X168048Y315681D01*
X166631Y314264D01*
X165630Y312529D01*
X165111Y310594D01*
Y308590D01*
X165630Y306655D01*
X166631Y304920D01*
X168048Y303503D01*
X169783Y302502D01*
X171718Y301983D01*
X173722D01*
X175657Y302502D01*
X177392Y303503D01*
X178809Y304920D01*
X179811Y306655D01*
X180329Y308590D01*
Y310594D01*
X179811Y312529D01*
X178809Y314264D01*
X177392Y315681D01*
X175657Y316682D01*
X173722Y317201D01*
D02*
G37*
G36*
X148322D02*
X146318D01*
X144383Y316682D01*
X142648Y315681D01*
X141231Y314264D01*
X140230Y312529D01*
X139711Y310594D01*
Y308590D01*
X140230Y306655D01*
X141231Y304920D01*
X142648Y303503D01*
X144383Y302502D01*
X146318Y301983D01*
X148322D01*
X150257Y302502D01*
X151992Y303503D01*
X153409Y304920D01*
X154410Y306655D01*
X154929Y308590D01*
Y310594D01*
X154410Y312529D01*
X153409Y314264D01*
X151992Y315681D01*
X150257Y316682D01*
X148322Y317201D01*
D02*
G37*
G36*
X122922D02*
X120918D01*
X118983Y316682D01*
X117248Y315681D01*
X115831Y314264D01*
X114830Y312529D01*
X114311Y310594D01*
Y308590D01*
X114830Y306655D01*
X115831Y304920D01*
X117248Y303503D01*
X118983Y302502D01*
X120918Y301983D01*
X122922D01*
X124857Y302502D01*
X126592Y303503D01*
X128009Y304920D01*
X129010Y306655D01*
X129529Y308590D01*
Y310594D01*
X129010Y312529D01*
X128009Y314264D01*
X126592Y315681D01*
X124857Y316682D01*
X122922Y317201D01*
D02*
G37*
G36*
X319943Y291471D02*
X311150D01*
Y280670D01*
X319943D01*
Y291471D01*
D02*
G37*
G36*
X308610D02*
X299817D01*
Y280670D01*
X308610D01*
Y291471D01*
D02*
G37*
G36*
X319943Y278130D02*
X311150D01*
Y267329D01*
X319943D01*
Y278130D01*
D02*
G37*
G36*
X308610D02*
X299817D01*
Y267329D01*
X308610D01*
Y278130D01*
D02*
G37*
G36*
X491490Y273100D02*
X481220D01*
Y264830D01*
X491490D01*
Y273100D01*
D02*
G37*
G36*
X526951Y272664D02*
X516890D01*
Y264616D01*
X526951D01*
Y272664D01*
D02*
G37*
G36*
X224522Y317201D02*
X222518D01*
X220583Y316682D01*
X218848Y315681D01*
X217431Y314264D01*
X216430Y312529D01*
X215911Y310594D01*
Y308590D01*
X216430Y306655D01*
X217431Y304920D01*
X217951Y304401D01*
X218057Y304118D01*
X219091Y303015D01*
X219471Y302544D01*
X219800Y302085D01*
X220067Y301653D01*
X220274Y301253D01*
X220425Y300886D01*
X220525Y300555D01*
X220580Y300258D01*
X220604Y299886D01*
X220671Y299748D01*
Y274436D01*
X220604Y274300D01*
X220579Y273917D01*
X220520Y273608D01*
X220412Y273260D01*
X220249Y272873D01*
X220026Y272449D01*
X219738Y271990D01*
X219397Y271518D01*
X218461Y270425D01*
X217897Y269850D01*
X217778Y269553D01*
X217219Y268995D01*
X216183Y267199D01*
X215646Y265197D01*
Y263123D01*
X216183Y261121D01*
X217219Y259325D01*
X218685Y257859D01*
X220481Y256823D01*
X222483Y256286D01*
X224557D01*
X226559Y256823D01*
X228355Y257859D01*
X229821Y259325D01*
X230857Y261121D01*
X231394Y263123D01*
Y265197D01*
X230857Y267199D01*
X229821Y268995D01*
X229274Y269541D01*
X229167Y269825D01*
X228065Y270997D01*
X227655Y271501D01*
X227302Y271990D01*
X227014Y272449D01*
X226791Y272873D01*
X226628Y273260D01*
X226520Y273608D01*
X226461Y273917D01*
X226436Y274300D01*
X226369Y274436D01*
Y299748D01*
X226436Y299886D01*
X226460Y300258D01*
X226515Y300555D01*
X226615Y300886D01*
X226766Y301253D01*
X226973Y301653D01*
X227240Y302085D01*
X227556Y302527D01*
X228430Y303553D01*
X228958Y304092D01*
X229077Y304388D01*
X229609Y304920D01*
X230611Y306655D01*
X231129Y308590D01*
Y310594D01*
X230611Y312529D01*
X229609Y314264D01*
X228192Y315681D01*
X226457Y316682D01*
X224522Y317201D01*
D02*
G37*
G36*
X526951Y262076D02*
X516890D01*
Y254029D01*
X526951D01*
Y262076D01*
D02*
G37*
G36*
X476194Y269844D02*
X466146D01*
Y247796D01*
X476194D01*
Y269844D01*
D02*
G37*
G36*
X463494D02*
X453446D01*
Y247796D01*
X463494D01*
Y269844D01*
D02*
G37*
G36*
X570025Y312961D02*
X564882Y312556D01*
X559866Y311352D01*
X555100Y309378D01*
X550701Y306683D01*
X546779Y303332D01*
X543428Y299410D01*
X540733Y295011D01*
X538759Y290245D01*
X537555Y285229D01*
X537150Y280086D01*
X537555Y274943D01*
X538759Y269927D01*
X540733Y265161D01*
X543428Y260762D01*
X546779Y256840D01*
X550701Y253489D01*
X555100Y250794D01*
X559866Y248820D01*
X564882Y247615D01*
X570025Y247211D01*
X575168Y247615D01*
X580184Y248820D01*
X584950Y250794D01*
X589349Y253489D01*
X593271Y256840D01*
X596622Y260762D01*
X599317Y265161D01*
X601291Y269927D01*
X602496Y274943D01*
X602900Y280086D01*
X602496Y285229D01*
X601291Y290245D01*
X599317Y295011D01*
X596622Y299410D01*
X593271Y303332D01*
X589349Y306683D01*
X584950Y309378D01*
X580184Y311352D01*
X575168Y312556D01*
X570025Y312961D01*
D02*
G37*
G36*
X810034Y312821D02*
X804891Y312416D01*
X799875Y311212D01*
X795109Y309238D01*
X790710Y306542D01*
X786787Y303192D01*
X783437Y299269D01*
X780742Y294871D01*
X778767Y290105D01*
X777563Y285088D01*
X777158Y279946D01*
X777563Y274803D01*
X778767Y269786D01*
X780742Y265020D01*
X783437Y260622D01*
X786787Y256699D01*
X790710Y253349D01*
X795109Y250653D01*
X799875Y248679D01*
X804891Y247475D01*
X810034Y247070D01*
X815177Y247475D01*
X820193Y248679D01*
X824959Y250653D01*
X829357Y253349D01*
X833280Y256699D01*
X836630Y260622D01*
X839326Y265020D01*
X841300Y269786D01*
X842504Y274803D01*
X842909Y279946D01*
X842504Y285088D01*
X841300Y290105D01*
X839326Y294871D01*
X836630Y299269D01*
X833280Y303192D01*
X829357Y306542D01*
X824959Y309238D01*
X820193Y311212D01*
X815177Y312416D01*
X810034Y312821D01*
D02*
G37*
G36*
X504300Y273100D02*
X494030D01*
Y263560D01*
X492760D01*
Y262290D01*
X481220D01*
Y254020D01*
X486678D01*
X486686Y254016D01*
X487010Y253734D01*
X487269Y252212D01*
X487110Y252041D01*
X486897Y251475D01*
X486665Y250915D01*
X486677Y250887D01*
X486666Y250860D01*
X486917Y250308D01*
X487149Y249748D01*
X487176Y249737D01*
X487188Y249710D01*
X487380Y249638D01*
Y249638D01*
X487433Y249618D01*
X487755Y249497D01*
X488315Y249265D01*
X488616D01*
Y246380D01*
X488932Y244794D01*
X489830Y243450D01*
X491174Y242552D01*
X492760Y242236D01*
X494346Y242552D01*
X495690Y243450D01*
X496588Y244794D01*
X496904Y246380D01*
Y249265D01*
X497205D01*
X497765Y249497D01*
X498332Y249710D01*
X498344Y249737D01*
X498372Y249748D01*
X498603Y250308D01*
X498854Y250860D01*
X498843Y250887D01*
X498855Y250915D01*
X498623Y251475D01*
X498410Y252041D01*
X498250Y252212D01*
X498510Y253734D01*
X498834Y254016D01*
X498842Y254020D01*
X504300D01*
Y254029D01*
X514350D01*
Y263346D01*
Y272664D01*
X504300D01*
Y273100D01*
D02*
G37*
G36*
X199122Y215601D02*
X197118D01*
X195183Y215082D01*
X193448Y214081D01*
X192031Y212664D01*
X191029Y210929D01*
X190511Y208994D01*
Y206990D01*
X191029Y205055D01*
X192031Y203320D01*
X193448Y201903D01*
X195183Y200902D01*
X197118Y200383D01*
X199122D01*
X201057Y200902D01*
X202792Y201903D01*
X204209Y203320D01*
X205210Y205055D01*
X205729Y206990D01*
Y208994D01*
X205210Y210929D01*
X204209Y212664D01*
X202792Y214081D01*
X201057Y215082D01*
X199122Y215601D01*
D02*
G37*
G36*
X173722D02*
X171718D01*
X169783Y215082D01*
X168048Y214081D01*
X166631Y212664D01*
X165630Y210929D01*
X165111Y208994D01*
Y206990D01*
X165630Y205055D01*
X166631Y203320D01*
X168048Y201903D01*
X169783Y200902D01*
X171718Y200383D01*
X173722D01*
X175657Y200902D01*
X177392Y201903D01*
X178809Y203320D01*
X179811Y205055D01*
X180329Y206990D01*
Y208994D01*
X179811Y210929D01*
X178809Y212664D01*
X177392Y214081D01*
X175657Y215082D01*
X173722Y215601D01*
D02*
G37*
G36*
X122922D02*
X120918D01*
X118983Y215082D01*
X117248Y214081D01*
X115831Y212664D01*
X114830Y210929D01*
X114311Y208994D01*
Y206990D01*
X114830Y205055D01*
X115831Y203320D01*
X117248Y201903D01*
X118983Y200902D01*
X120918Y200383D01*
X122922D01*
X124857Y200902D01*
X126592Y201903D01*
X128009Y203320D01*
X129010Y205055D01*
X129529Y206990D01*
Y208994D01*
X129010Y210929D01*
X128009Y212664D01*
X126592Y214081D01*
X124857Y215082D01*
X122922Y215601D01*
D02*
G37*
G36*
X148322D02*
X146318D01*
X144383Y215082D01*
X142648Y214081D01*
X141231Y212664D01*
X140230Y210929D01*
X139711Y208994D01*
Y206990D01*
X140230Y205055D01*
X141231Y203320D01*
X141751Y202801D01*
X141857Y202518D01*
X142891Y201415D01*
X143271Y200944D01*
X143600Y200485D01*
X143867Y200053D01*
X144074Y199653D01*
X144225Y199286D01*
X144325Y198955D01*
X144380Y198658D01*
X144404Y198286D01*
X144471Y198148D01*
Y193040D01*
X144471Y193040D01*
X144688Y191950D01*
X145306Y191026D01*
X150386Y185946D01*
X150386Y185946D01*
X151310Y185328D01*
X152400Y185111D01*
X152400Y185111D01*
X302971D01*
X303013Y185086D01*
X303512Y184561D01*
X303935Y183718D01*
X303846Y183549D01*
X303558Y183090D01*
X303217Y182618D01*
X302281Y181525D01*
X301717Y180950D01*
X301598Y180653D01*
X301039Y180095D01*
X300003Y178299D01*
X299466Y176297D01*
Y174223D01*
X299519Y174025D01*
X298153Y173236D01*
X294114Y177274D01*
X293190Y177892D01*
X292100Y178109D01*
X292100Y178109D01*
X112940D01*
X99369Y191680D01*
Y199196D01*
X99439Y199354D01*
X99450Y199786D01*
X99478Y200104D01*
X99518Y200342D01*
X99529Y200383D01*
X104129D01*
Y215601D01*
X88911D01*
Y200383D01*
X93511D01*
X93522Y200342D01*
X93562Y200104D01*
X93590Y199786D01*
X93601Y199354D01*
X93671Y199196D01*
Y190500D01*
X93671Y190500D01*
X93888Y189410D01*
X94506Y188486D01*
X109746Y173246D01*
X109746Y173246D01*
X110670Y172628D01*
X111760Y172411D01*
X111760Y172411D01*
X290920D01*
X292523Y170808D01*
X291892Y169284D01*
X291432Y169284D01*
X275596D01*
Y145236D01*
X278709D01*
X278867Y145150D01*
X279157Y145119D01*
X279211Y145100D01*
X279259Y145069D01*
X279344Y144976D01*
X279468Y144773D01*
X279608Y144433D01*
X279738Y143950D01*
X279841Y143331D01*
X279907Y142582D01*
X279931Y141667D01*
X279976Y141565D01*
Y81955D01*
X279931Y81853D01*
X279907Y80939D01*
X279841Y80189D01*
X279738Y79570D01*
X279608Y79087D01*
X279468Y78747D01*
X279344Y78544D01*
X279259Y78451D01*
X279211Y78420D01*
X279157Y78401D01*
X278867Y78370D01*
X278709Y78284D01*
X275596D01*
Y54236D01*
X278709D01*
X278867Y54150D01*
X279157Y54120D01*
X279211Y54100D01*
X279259Y54068D01*
X279344Y53976D01*
X279468Y53773D01*
X279608Y53433D01*
X279738Y52950D01*
X279841Y52331D01*
X279907Y51582D01*
X279931Y50667D01*
X279976Y50565D01*
Y43540D01*
X280292Y41954D01*
X280752Y41265D01*
X280759Y41116D01*
X280188Y39853D01*
X279985Y39704D01*
X164276D01*
X156184Y47796D01*
Y50565D01*
X156229Y50667D01*
X156253Y51581D01*
X156319Y52331D01*
X156422Y52950D01*
X156552Y53433D01*
X156692Y53773D01*
X156816Y53976D01*
X156901Y54068D01*
X156949Y54100D01*
X157003Y54120D01*
X157293Y54150D01*
X157451Y54236D01*
X160564D01*
Y78284D01*
X157451D01*
X157293Y78370D01*
X157003Y78401D01*
X156949Y78420D01*
X156901Y78451D01*
X156816Y78544D01*
X156692Y78747D01*
X156552Y79087D01*
X156422Y79570D01*
X156319Y80189D01*
X156253Y80939D01*
X156229Y81853D01*
X156184Y81955D01*
Y141565D01*
X156229Y141667D01*
X156253Y142582D01*
X156319Y143331D01*
X156422Y143950D01*
X156552Y144433D01*
X156692Y144773D01*
X156816Y144976D01*
X156901Y145069D01*
X156949Y145100D01*
X157003Y145119D01*
X157293Y145150D01*
X157451Y145236D01*
X160564D01*
Y169284D01*
X143516D01*
Y145236D01*
X146629D01*
X146787Y145150D01*
X147077Y145119D01*
X147131Y145100D01*
X147179Y145069D01*
X147264Y144976D01*
X147388Y144773D01*
X147528Y144433D01*
X147658Y143950D01*
X147761Y143331D01*
X147827Y142582D01*
X147851Y141667D01*
X147896Y141565D01*
Y81955D01*
X147851Y81853D01*
X147827Y80939D01*
X147761Y80189D01*
X147658Y79570D01*
X147528Y79087D01*
X147388Y78747D01*
X147264Y78544D01*
X147179Y78451D01*
X147131Y78420D01*
X147077Y78401D01*
X146787Y78370D01*
X146629Y78284D01*
X143516D01*
Y54236D01*
X146629D01*
X146787Y54150D01*
X147077Y54120D01*
X147131Y54100D01*
X147179Y54068D01*
X147264Y53976D01*
X147388Y53773D01*
X147528Y53433D01*
X147658Y52950D01*
X147761Y52331D01*
X147827Y51582D01*
X147851Y50667D01*
X147896Y50565D01*
Y46080D01*
X148212Y44494D01*
X149110Y43150D01*
X159630Y32630D01*
X160974Y31732D01*
X162560Y31416D01*
X291873D01*
X291946Y31378D01*
X292071Y31416D01*
X338200D01*
X338300Y31371D01*
X338880Y31354D01*
X339375Y31307D01*
X339836Y31231D01*
X340263Y31127D01*
X340659Y30998D01*
X341026Y30842D01*
X341367Y30662D01*
X341686Y30456D01*
X341985Y30222D01*
X342318Y29910D01*
X342600Y29804D01*
X343145Y29259D01*
X344941Y28223D01*
X346943Y27686D01*
X349017D01*
X351019Y28223D01*
X352815Y29259D01*
X354281Y30725D01*
X355317Y32521D01*
X355854Y34523D01*
Y36597D01*
X355317Y38599D01*
X354281Y40395D01*
X352815Y41861D01*
X351019Y42897D01*
X349017Y43434D01*
X346943D01*
X344941Y42897D01*
X343145Y41861D01*
X342600Y41315D01*
X342318Y41210D01*
X341985Y40898D01*
X341686Y40664D01*
X341367Y40458D01*
X341026Y40278D01*
X340659Y40122D01*
X340263Y39993D01*
X339836Y39889D01*
X339375Y39813D01*
X338880Y39766D01*
X338300Y39749D01*
X338200Y39704D01*
X298459D01*
X298386Y39742D01*
X298338Y39727D01*
X298291Y39748D01*
X297352Y39782D01*
X296506Y39876D01*
X295692Y40031D01*
X294910Y40247D01*
X294156Y40523D01*
X293427Y40861D01*
X292721Y41262D01*
X292037Y41727D01*
X291372Y42259D01*
X290684Y42900D01*
X290583Y42937D01*
X288264Y45256D01*
Y50565D01*
X288309Y50667D01*
X288333Y51581D01*
X288399Y52331D01*
X288502Y52950D01*
X288632Y53433D01*
X288772Y53773D01*
X288896Y53976D01*
X288981Y54068D01*
X289029Y54100D01*
X289083Y54120D01*
X289373Y54150D01*
X289531Y54236D01*
X292644D01*
Y78284D01*
X289531D01*
X289373Y78370D01*
X289083Y78401D01*
X289029Y78420D01*
X288981Y78451D01*
X288896Y78544D01*
X288772Y78747D01*
X288632Y79087D01*
X288502Y79570D01*
X288399Y80189D01*
X288333Y80939D01*
X288309Y81853D01*
X288264Y81955D01*
Y141565D01*
X288309Y141667D01*
X288333Y142582D01*
X288399Y143331D01*
X288502Y143950D01*
X288632Y144433D01*
X288772Y144773D01*
X288896Y144976D01*
X288981Y145069D01*
X289029Y145100D01*
X289083Y145119D01*
X289373Y145150D01*
X289531Y145236D01*
X292644D01*
Y168045D01*
X292644Y168532D01*
X294168Y169163D01*
X320566Y142766D01*
X320566Y142766D01*
X321490Y142148D01*
X322580Y141931D01*
X418882D01*
X418882Y141931D01*
X419972Y142148D01*
X420896Y142766D01*
X422384Y144254D01*
X422384Y144254D01*
X423002Y145178D01*
X423219Y146268D01*
Y150609D01*
X423289Y150767D01*
X423300Y151199D01*
X423328Y151517D01*
X423368Y151755D01*
X423379Y151796D01*
X425394D01*
Y173844D01*
X415346D01*
Y151796D01*
X417361D01*
X417372Y151755D01*
X417412Y151517D01*
X417440Y151199D01*
X417451Y150767D01*
X417521Y150609D01*
Y147629D01*
X323760D01*
X305316Y166073D01*
X306105Y167439D01*
X306303Y167386D01*
X308377D01*
X310379Y167923D01*
X312175Y168959D01*
X313641Y170425D01*
X314677Y172221D01*
X315214Y174223D01*
Y176297D01*
X314677Y178299D01*
X313641Y180095D01*
X313094Y180641D01*
X312987Y180925D01*
X311885Y182097D01*
X311475Y182601D01*
X311122Y183090D01*
X310834Y183549D01*
X310611Y183973D01*
X310448Y184361D01*
X310340Y184708D01*
X310281Y185017D01*
X310256Y185400D01*
X310150Y185615D01*
X309972Y186510D01*
X309354Y187434D01*
X309354Y187434D01*
X306814Y189974D01*
X305890Y190592D01*
X304800Y190809D01*
X304800Y190809D01*
X153580D01*
X150169Y194220D01*
Y198148D01*
X150236Y198286D01*
X150260Y198658D01*
X150315Y198955D01*
X150415Y199286D01*
X150566Y199653D01*
X150773Y200053D01*
X151040Y200485D01*
X151356Y200927D01*
X152230Y201953D01*
X152758Y202492D01*
X152877Y202788D01*
X153409Y203320D01*
X154410Y205055D01*
X154929Y206990D01*
Y208994D01*
X154410Y210929D01*
X153409Y212664D01*
X151992Y214081D01*
X150257Y215082D01*
X148322Y215601D01*
D02*
G37*
G36*
X355600Y174860D02*
X350830D01*
Y167015D01*
X350560Y166942D01*
X349941Y166839D01*
X349192Y166773D01*
X348277Y166749D01*
X348175Y166704D01*
X347600D01*
X347500Y166749D01*
X346920Y166766D01*
X346425Y166813D01*
X345965Y166889D01*
X345537Y166993D01*
X345141Y167122D01*
X344774Y167278D01*
X344433Y167458D01*
X344114Y167664D01*
X343815Y167898D01*
X343481Y168210D01*
X342915Y168423D01*
X342355Y168655D01*
X342327Y168643D01*
X342300Y168654D01*
X341748Y168403D01*
X341188Y168171D01*
X341177Y168144D01*
X341150Y168132D01*
X341078Y167940D01*
X341078D01*
X341058Y167887D01*
X340937Y167565D01*
X340705Y167005D01*
Y166704D01*
X337820D01*
X336234Y166388D01*
X334890Y165490D01*
X333992Y164146D01*
X333676Y162560D01*
X333992Y160974D01*
X334890Y159630D01*
X336234Y158732D01*
X337820Y158416D01*
X340705D01*
Y158115D01*
X340937Y157555D01*
X341150Y156988D01*
X341177Y156976D01*
X341188Y156948D01*
X341748Y156717D01*
X342300Y156466D01*
X342327Y156477D01*
X342355Y156465D01*
X342544Y156544D01*
X342544D01*
X342915Y156697D01*
X343481Y156910D01*
X343815Y157222D01*
X344114Y157456D01*
X344433Y157662D01*
X344774Y157842D01*
X345141Y157998D01*
X345537Y158127D01*
X345965Y158231D01*
X346425Y158307D01*
X346920Y158354D01*
X347500Y158371D01*
X347600Y158416D01*
X348175D01*
X348277Y158371D01*
X349192Y158347D01*
X349941Y158281D01*
X350560Y158178D01*
X350830Y158105D01*
Y150780D01*
X355600D01*
Y162820D01*
Y174860D01*
D02*
G37*
G36*
X362910D02*
X358140D01*
Y164090D01*
X362910D01*
Y174860D01*
D02*
G37*
G36*
X56764Y168811D02*
X48716D01*
Y158750D01*
X56764D01*
Y168811D01*
D02*
G37*
G36*
X46176D02*
X38129D01*
Y158750D01*
X46176D01*
Y168811D01*
D02*
G37*
G36*
X191384Y166271D02*
X183336D01*
Y156210D01*
X191384D01*
Y166271D01*
D02*
G37*
G36*
X180796D02*
X172749D01*
Y156210D01*
X180796D01*
Y166271D01*
D02*
G37*
G36*
X476194Y173844D02*
X466146D01*
Y151796D01*
X476194D01*
Y173844D01*
D02*
G37*
G36*
X362910Y161550D02*
X358140D01*
Y150780D01*
X362910D01*
Y161550D01*
D02*
G37*
G36*
X247644Y169284D02*
X230596D01*
Y148804D01*
X229188Y148221D01*
X220454Y156954D01*
X219530Y157572D01*
X218696Y157738D01*
X218424Y157859D01*
X217992Y157870D01*
X217674Y157898D01*
X217436Y157938D01*
X217395Y157949D01*
Y165255D01*
X200792D01*
Y144625D01*
X205271D01*
X205282Y144584D01*
X205322Y144346D01*
X205350Y144028D01*
X205361Y143596D01*
X205431Y143438D01*
Y138511D01*
X205361Y138353D01*
X205350Y137921D01*
X205322Y137603D01*
X205282Y137365D01*
X205271Y137324D01*
X198256D01*
Y122776D01*
X218304D01*
Y137324D01*
X211289D01*
X211278Y137365D01*
X211238Y137603D01*
X211210Y137921D01*
X211199Y138353D01*
X211129Y138511D01*
Y143438D01*
X211199Y143596D01*
X211210Y144028D01*
X211238Y144346D01*
X211278Y144584D01*
X211289Y144625D01*
X217395D01*
Y149801D01*
X218919Y150432D01*
X225751Y143600D01*
Y142356D01*
X225684Y142220D01*
X225659Y141837D01*
X225600Y141528D01*
X225492Y141180D01*
X225329Y140793D01*
X225106Y140369D01*
X224818Y139910D01*
X224477Y139438D01*
X223541Y138345D01*
X222977Y137770D01*
X222858Y137473D01*
X222299Y136915D01*
X221263Y135119D01*
X220726Y133117D01*
Y131043D01*
X221263Y129041D01*
X222299Y127245D01*
X223765Y125779D01*
X225561Y124743D01*
X227563Y124206D01*
X229637D01*
X231639Y124743D01*
X233435Y125779D01*
X234747Y127092D01*
X235403Y126998D01*
X236271Y126571D01*
Y112561D01*
X236208Y112440D01*
X236223Y112392D01*
X236201Y112345D01*
X236186Y111906D01*
X236146Y111546D01*
X236080Y111203D01*
X235991Y110877D01*
X235876Y110564D01*
X235735Y110261D01*
X235568Y109967D01*
X235372Y109679D01*
X235146Y109395D01*
X234846Y109074D01*
X234788Y108917D01*
X227270Y101399D01*
X219491D01*
X219333Y101469D01*
X218901Y101480D01*
X218583Y101508D01*
X218345Y101548D01*
X218304Y101559D01*
Y105824D01*
X198256D01*
Y101559D01*
X198215Y101548D01*
X197977Y101508D01*
X197659Y101480D01*
X197227Y101469D01*
X197069Y101399D01*
X192111D01*
X191954Y101469D01*
X191522Y101480D01*
X191204Y101508D01*
X190966Y101548D01*
X190925Y101559D01*
Y106845D01*
X169755D01*
Y91215D01*
X190925D01*
Y95541D01*
X190966Y95552D01*
X191204Y95592D01*
X191522Y95620D01*
X191954Y95631D01*
X192111Y95701D01*
X197069D01*
X197227Y95631D01*
X197659Y95620D01*
X197977Y95592D01*
X198215Y95552D01*
X198256Y95541D01*
Y91276D01*
X218304D01*
Y95541D01*
X218345Y95552D01*
X218583Y95592D01*
X218901Y95620D01*
X219333Y95631D01*
X219491Y95701D01*
X228450D01*
X228450Y95701D01*
X229540Y95918D01*
X230464Y96536D01*
X234863Y100934D01*
X236271Y100351D01*
Y79471D01*
X236201Y79313D01*
X236190Y78881D01*
X236162Y78563D01*
X236122Y78325D01*
X236111Y78284D01*
X230596D01*
Y54236D01*
X247644D01*
Y78284D01*
X242129D01*
X242118Y78325D01*
X242078Y78563D01*
X242050Y78881D01*
X242039Y79313D01*
X241969Y79471D01*
Y108946D01*
X242032Y109066D01*
X241969Y109272D01*
Y144049D01*
X242039Y144207D01*
X242050Y144639D01*
X242078Y144957D01*
X242118Y145195D01*
X242129Y145236D01*
X247644D01*
Y169284D01*
D02*
G37*
G36*
X56764Y156210D02*
X48716D01*
Y146149D01*
X56764D01*
Y156210D01*
D02*
G37*
G36*
X46176D02*
X38129D01*
Y146149D01*
X46176D01*
Y156210D01*
D02*
G37*
G36*
X191384Y153670D02*
X183336D01*
Y143609D01*
X191384D01*
Y153670D01*
D02*
G37*
G36*
X180796D02*
X172749D01*
Y143609D01*
X180796D01*
Y153670D01*
D02*
G37*
G36*
X463494Y173844D02*
X453446D01*
Y151796D01*
X455461D01*
X455472Y151755D01*
X455512Y151517D01*
X455540Y151199D01*
X455551Y150767D01*
X455621Y150609D01*
Y144690D01*
X450940Y140009D01*
X317616D01*
X317480Y140076D01*
X317097Y140101D01*
X316788Y140160D01*
X316440Y140268D01*
X316053Y140431D01*
X315629Y140654D01*
X315170Y140942D01*
X314698Y141283D01*
X313605Y142219D01*
X313030Y142783D01*
X312733Y142902D01*
X312175Y143461D01*
X310379Y144497D01*
X308377Y145034D01*
X306303D01*
X304301Y144497D01*
X302505Y143461D01*
X301039Y141995D01*
X300003Y140199D01*
X299466Y138197D01*
Y136123D01*
X300003Y134121D01*
X301039Y132325D01*
X302505Y130859D01*
X304301Y129823D01*
X306303Y129286D01*
X308377D01*
X310379Y129823D01*
X312175Y130859D01*
X312721Y131406D01*
X313005Y131513D01*
X314177Y132615D01*
X314681Y133025D01*
X315170Y133378D01*
X315629Y133666D01*
X316053Y133889D01*
X316441Y134052D01*
X316788Y134160D01*
X317097Y134219D01*
X317480Y134244D01*
X317616Y134311D01*
X452120D01*
X452120Y134311D01*
X453210Y134528D01*
X454134Y135146D01*
X460484Y141496D01*
X460484Y141496D01*
X461102Y142420D01*
X461319Y143510D01*
Y150609D01*
X461389Y150767D01*
X461400Y151199D01*
X461428Y151517D01*
X461468Y151755D01*
X461479Y151796D01*
X463494D01*
Y173844D01*
D02*
G37*
G36*
X54781Y140941D02*
X44450D01*
Y133380D01*
X54781D01*
Y140941D01*
D02*
G37*
G36*
X41910D02*
X31579D01*
Y133380D01*
X41910D01*
Y140941D01*
D02*
G37*
G36*
X191941Y138401D02*
X181610D01*
Y130840D01*
X191941D01*
Y138401D01*
D02*
G37*
G36*
X179070D02*
X168739D01*
Y130840D01*
X179070D01*
Y138401D01*
D02*
G37*
G36*
X59457Y231394D02*
X57383D01*
X55381Y230857D01*
X53585Y229821D01*
X52119Y228355D01*
X51083Y226559D01*
X50546Y224557D01*
Y222483D01*
X51083Y220481D01*
X52119Y218685D01*
X52666Y218139D01*
X52773Y217855D01*
X53875Y216683D01*
X54285Y216179D01*
X54638Y215690D01*
X54926Y215231D01*
X55149Y214807D01*
X55312Y214419D01*
X55420Y214072D01*
X55479Y213763D01*
X55504Y213380D01*
X55571Y213244D01*
Y175547D01*
X55571Y175547D01*
X55788Y174457D01*
X56406Y173533D01*
X64672Y165266D01*
X64735Y165104D01*
X65044Y164778D01*
X65288Y164492D01*
X65494Y164218D01*
X65664Y163955D01*
X65800Y163708D01*
X65906Y163473D01*
X65983Y163253D01*
X66035Y163044D01*
X66065Y162844D01*
X66079Y162566D01*
X66172Y162370D01*
Y147165D01*
X70651D01*
X70662Y147124D01*
X70702Y146886D01*
X70730Y146568D01*
X70741Y146136D01*
X70811Y145978D01*
Y141051D01*
X70741Y140893D01*
X70730Y140461D01*
X70702Y140143D01*
X70662Y139905D01*
X70651Y139864D01*
X63636D01*
Y125316D01*
X83684D01*
Y139864D01*
X76669D01*
X76658Y139905D01*
X76618Y140143D01*
X76590Y140461D01*
X76579Y140893D01*
X76509Y141051D01*
Y145978D01*
X76579Y146136D01*
X76590Y146568D01*
X76618Y146886D01*
X76658Y147124D01*
X76669Y147165D01*
X82775D01*
Y167795D01*
X71597D01*
X71401Y167888D01*
X71123Y167902D01*
X70923Y167932D01*
X70715Y167984D01*
X70494Y168062D01*
X70260Y168167D01*
X70012Y168303D01*
X69750Y168474D01*
X69475Y168679D01*
X69189Y168923D01*
X68863Y169233D01*
X68701Y169295D01*
X61269Y176727D01*
Y213244D01*
X61336Y213380D01*
X61361Y213763D01*
X61420Y214072D01*
X61528Y214420D01*
X61691Y214807D01*
X61914Y215231D01*
X62202Y215690D01*
X62543Y216162D01*
X63479Y217255D01*
X64043Y217830D01*
X64162Y218127D01*
X64721Y218685D01*
X65757Y220481D01*
X66294Y222483D01*
Y224557D01*
X65757Y226559D01*
X64721Y228355D01*
X63255Y229821D01*
X61459Y230857D01*
X59457Y231394D01*
D02*
G37*
G36*
X54781Y130840D02*
X44450D01*
Y123279D01*
X54781D01*
Y130840D01*
D02*
G37*
G36*
X41910D02*
X31579D01*
Y123279D01*
X41910D01*
Y130840D01*
D02*
G37*
G36*
X191941Y128300D02*
X181610D01*
Y120739D01*
X191941D01*
Y128300D01*
D02*
G37*
G36*
X179070D02*
X168739D01*
Y120739D01*
X179070D01*
Y128300D01*
D02*
G37*
G36*
X115564Y169284D02*
X98516D01*
Y145236D01*
X104031D01*
X104042Y145195D01*
X104082Y144957D01*
X104110Y144639D01*
X104121Y144207D01*
X104191Y144049D01*
Y110021D01*
X104128Y109900D01*
X104143Y109852D01*
X104122Y109805D01*
X104106Y109366D01*
X104066Y109006D01*
X104001Y108664D01*
X103911Y108337D01*
X103796Y108024D01*
X103655Y107721D01*
X103488Y107427D01*
X103292Y107139D01*
X103066Y106855D01*
X102766Y106534D01*
X102708Y106376D01*
X100270Y103939D01*
X84871D01*
X84713Y104009D01*
X84281Y104020D01*
X83963Y104048D01*
X83725Y104088D01*
X83684Y104099D01*
Y108364D01*
X63636D01*
Y104099D01*
X63595Y104088D01*
X63357Y104048D01*
X63039Y104020D01*
X62607Y104009D01*
X62449Y103939D01*
X54951D01*
X54794Y104009D01*
X54362Y104020D01*
X54044Y104048D01*
X53806Y104088D01*
X53765Y104099D01*
Y109385D01*
X32595D01*
Y93755D01*
X53765D01*
Y98081D01*
X53806Y98092D01*
X54044Y98132D01*
X54362Y98160D01*
X54794Y98171D01*
X54951Y98241D01*
X62449D01*
X62607Y98171D01*
X63039Y98160D01*
X63357Y98132D01*
X63595Y98092D01*
X63636Y98081D01*
Y93816D01*
X83684D01*
Y98081D01*
X83725Y98092D01*
X83963Y98132D01*
X84281Y98160D01*
X84713Y98171D01*
X84871Y98241D01*
X101450D01*
X101450Y98241D01*
X102540Y98458D01*
X102667Y98543D01*
X104191Y97728D01*
Y79471D01*
X104121Y79313D01*
X104110Y78881D01*
X104082Y78563D01*
X104042Y78325D01*
X104031Y78284D01*
X98516D01*
Y54236D01*
X115564D01*
Y78284D01*
X110049D01*
X110038Y78325D01*
X109998Y78563D01*
X109970Y78881D01*
X109959Y79313D01*
X109889Y79471D01*
Y106405D01*
X109952Y106526D01*
X109889Y106732D01*
Y144049D01*
X109959Y144207D01*
X109970Y144639D01*
X109998Y144957D01*
X110038Y145195D01*
X110049Y145236D01*
X115564D01*
Y169284D01*
D02*
G37*
G36*
X704850Y98551D02*
Y90202D01*
X713199D01*
X712544Y92645D01*
X711278Y94839D01*
X709487Y96630D01*
X707293Y97896D01*
X704850Y98551D01*
D02*
G37*
G36*
X702310D02*
X699867Y97896D01*
X697673Y96630D01*
X695882Y94839D01*
X694616Y92645D01*
X693961Y90202D01*
X702310D01*
Y98551D01*
D02*
G37*
G36*
X646895Y99247D02*
X632298D01*
Y78617D01*
X646895D01*
Y83521D01*
X646981Y83679D01*
X647011Y83969D01*
X647031Y84023D01*
X647063Y84071D01*
X647155Y84156D01*
X647358Y84280D01*
X647698Y84420D01*
X648181Y84550D01*
X648800Y84653D01*
X649549Y84719D01*
X650464Y84743D01*
X650566Y84788D01*
X665905D01*
X666007Y84743D01*
X666921Y84719D01*
X667671Y84653D01*
X668290Y84550D01*
X668773Y84420D01*
X669113Y84280D01*
X669316Y84156D01*
X669408Y84071D01*
X669440Y84023D01*
X669460Y83969D01*
X669490Y83679D01*
X669576Y83521D01*
Y80328D01*
X686784D01*
Y97536D01*
X669576D01*
Y94343D01*
X669490Y94185D01*
X669460Y93895D01*
X669440Y93841D01*
X669408Y93793D01*
X669316Y93708D01*
X669113Y93584D01*
X668773Y93444D01*
X668290Y93314D01*
X667671Y93211D01*
X666921Y93145D01*
X666007Y93121D01*
X665905Y93076D01*
X650566D01*
X650464Y93121D01*
X649550Y93145D01*
X648800Y93211D01*
X648181Y93314D01*
X647698Y93444D01*
X647358Y93584D01*
X647155Y93708D01*
X647063Y93793D01*
X647031Y93841D01*
X647011Y93895D01*
X646981Y94185D01*
X646895Y94343D01*
Y99247D01*
D02*
G37*
G36*
X713199Y87662D02*
X704850D01*
Y79313D01*
X707293Y79968D01*
X709487Y81234D01*
X711278Y83025D01*
X712544Y85219D01*
X713199Y87662D01*
D02*
G37*
G36*
X702310D02*
X693961D01*
X694616Y85219D01*
X695882Y83025D01*
X697673Y81234D01*
X699867Y79968D01*
X702310Y79313D01*
Y87662D01*
D02*
G37*
G36*
X704850Y57911D02*
Y49562D01*
X713199D01*
X712544Y52005D01*
X711278Y54199D01*
X709487Y55990D01*
X707293Y57256D01*
X704850Y57911D01*
D02*
G37*
G36*
X702310D02*
X699867Y57256D01*
X697673Y55990D01*
X695882Y54199D01*
X694616Y52005D01*
X693961Y49562D01*
X702310D01*
Y57911D01*
D02*
G37*
G36*
X646895Y58607D02*
X632298D01*
Y37977D01*
X646895D01*
Y42881D01*
X646981Y43039D01*
X647011Y43329D01*
X647031Y43383D01*
X647063Y43431D01*
X647155Y43516D01*
X647358Y43640D01*
X647698Y43780D01*
X648181Y43910D01*
X648800Y44013D01*
X649549Y44079D01*
X650464Y44103D01*
X650566Y44148D01*
X665905D01*
X666007Y44103D01*
X666921Y44079D01*
X667671Y44013D01*
X668290Y43910D01*
X668773Y43780D01*
X669113Y43640D01*
X669316Y43516D01*
X669408Y43431D01*
X669440Y43383D01*
X669460Y43329D01*
X669490Y43039D01*
X669576Y42881D01*
Y39688D01*
X686784D01*
Y56896D01*
X669576D01*
Y53703D01*
X669490Y53545D01*
X669460Y53255D01*
X669440Y53201D01*
X669408Y53153D01*
X669316Y53068D01*
X669113Y52944D01*
X668773Y52804D01*
X668290Y52674D01*
X667671Y52571D01*
X666921Y52505D01*
X666007Y52481D01*
X665905Y52436D01*
X650566D01*
X650464Y52481D01*
X649550Y52505D01*
X648800Y52571D01*
X648181Y52674D01*
X647698Y52804D01*
X647358Y52944D01*
X647155Y53068D01*
X647063Y53153D01*
X647031Y53201D01*
X647011Y53255D01*
X646981Y53545D01*
X646895Y53703D01*
Y58607D01*
D02*
G37*
G36*
X713199Y47022D02*
X704850D01*
Y38673D01*
X707293Y39328D01*
X709487Y40594D01*
X711278Y42385D01*
X712544Y44579D01*
X713199Y47022D01*
D02*
G37*
G36*
X702310D02*
X693961D01*
X694616Y44579D01*
X695882Y42385D01*
X697673Y40594D01*
X699867Y39328D01*
X702310Y38673D01*
Y47022D01*
D02*
G37*
G36*
X617382Y99247D02*
X602785D01*
Y78617D01*
X604431D01*
X604589Y78531D01*
X604879Y78500D01*
X604933Y78481D01*
X604981Y78449D01*
X605066Y78357D01*
X605190Y78154D01*
X605329Y77814D01*
X605459Y77331D01*
X605523Y76950D01*
X605509Y76870D01*
X605404Y76452D01*
X605272Y76068D01*
X605115Y75715D01*
X604933Y75388D01*
X604724Y75084D01*
X604488Y74801D01*
X604168Y74482D01*
X604048Y74195D01*
X603299Y73447D01*
X602263Y71651D01*
X601726Y69649D01*
Y67575D01*
X602263Y65573D01*
X603299Y63777D01*
X604048Y63029D01*
X604168Y62742D01*
X604488Y62423D01*
X604725Y62140D01*
X604933Y61837D01*
X605115Y61510D01*
X605272Y61156D01*
X605404Y60771D01*
X605509Y60354D01*
X605523Y60274D01*
X605459Y59893D01*
X605329Y59410D01*
X605190Y59070D01*
X605066Y58867D01*
X604981Y58775D01*
X604933Y58743D01*
X604878Y58724D01*
X604589Y58693D01*
X604431Y58607D01*
X602785D01*
Y37977D01*
X617382D01*
Y58607D01*
X615253D01*
X615094Y58693D01*
X614805Y58724D01*
X614751Y58743D01*
X614703Y58775D01*
X614618Y58867D01*
X614493Y59070D01*
X614354Y59410D01*
X614224Y59893D01*
X614138Y60410D01*
X614167Y60594D01*
X614268Y61031D01*
X614395Y61438D01*
X614547Y61817D01*
X614725Y62173D01*
X614927Y62506D01*
X615157Y62819D01*
X615459Y63167D01*
X615544Y63421D01*
X615901Y63777D01*
X616937Y65573D01*
X617474Y67575D01*
Y69649D01*
X616937Y71651D01*
X615901Y73447D01*
X615544Y73804D01*
X615459Y74057D01*
X615157Y74405D01*
X614927Y74718D01*
X614725Y75051D01*
X614547Y75406D01*
X614395Y75786D01*
X614268Y76193D01*
X614167Y76630D01*
X614138Y76814D01*
X614224Y77331D01*
X614354Y77814D01*
X614493Y78154D01*
X614618Y78357D01*
X614703Y78449D01*
X614751Y78481D01*
X614805Y78500D01*
X615094Y78531D01*
X615253Y78617D01*
X617382D01*
Y99247D01*
D02*
G37*
G36*
X49825Y82980D02*
X44682Y82575D01*
X39666Y81371D01*
X34900Y79397D01*
X30501Y76701D01*
X26578Y73351D01*
X23228Y69428D01*
X20533Y65030D01*
X18558Y60263D01*
X17354Y55247D01*
X16949Y50104D01*
X17354Y44962D01*
X18558Y39945D01*
X20533Y35179D01*
X23228Y30781D01*
X26578Y26858D01*
X30501Y23508D01*
X34900Y20812D01*
X39666Y18838D01*
X44682Y17634D01*
X49825Y17229D01*
X54968Y17634D01*
X59984Y18838D01*
X64750Y20812D01*
X69148Y23508D01*
X73071Y26858D01*
X76421Y30781D01*
X79117Y35179D01*
X81091Y39945D01*
X82295Y44962D01*
X82700Y50104D01*
X82295Y55247D01*
X81091Y60263D01*
X79117Y65030D01*
X76421Y69428D01*
X73071Y73351D01*
X69148Y76701D01*
X64750Y79397D01*
X59984Y81371D01*
X54968Y82575D01*
X49825Y82980D01*
D02*
G37*
G36*
X810232Y82804D02*
X805089Y82399D01*
X800073Y81195D01*
X795307Y79221D01*
X790908Y76525D01*
X786986Y73175D01*
X783635Y69252D01*
X780940Y64854D01*
X778966Y60088D01*
X777761Y55072D01*
X777357Y49929D01*
X777761Y44786D01*
X778966Y39770D01*
X780940Y35004D01*
X783635Y30605D01*
X786986Y26682D01*
X790908Y23332D01*
X795307Y20636D01*
X800073Y18662D01*
X805089Y17458D01*
X810232Y17053D01*
X815375Y17458D01*
X820391Y18662D01*
X825157Y20636D01*
X829556Y23332D01*
X833478Y26682D01*
X836829Y30605D01*
X839524Y35004D01*
X841498Y39770D01*
X842703Y44786D01*
X843107Y49929D01*
X842703Y55072D01*
X841498Y60088D01*
X839524Y64854D01*
X836829Y69252D01*
X833478Y73175D01*
X829556Y76525D01*
X825157Y79221D01*
X820391Y81195D01*
X815375Y82399D01*
X810232Y82804D01*
D02*
G37*
%LPD*%
G36*
X679509Y518991D02*
X679544Y518621D01*
X679575Y518472D01*
X679614Y518348D01*
X679663Y518247D01*
X679719Y518172D01*
X679785Y518120D01*
X679860Y518092D01*
X679943Y518089D01*
X676649Y516993D01*
X676709Y517050D01*
X676763Y517143D01*
X676810Y517273D01*
X676851Y517440D01*
X676886Y517643D01*
X676937Y518161D01*
X676962Y518825D01*
X676965Y519212D01*
X679505D01*
X679509Y518991D01*
D02*
G37*
G36*
X675096Y504739D02*
X674279Y505546D01*
X672731Y506903D01*
X672000Y507455D01*
X671299Y507921D01*
X670626Y508303D01*
X669982Y508600D01*
X669367Y508812D01*
X668780Y508940D01*
X668223Y508982D01*
Y511522D01*
X668780Y511564D01*
X669367Y511692D01*
X669982Y511904D01*
X670626Y512201D01*
X671299Y512583D01*
X672000Y513049D01*
X672731Y513601D01*
X674279Y514958D01*
X675096Y515765D01*
Y504739D01*
D02*
G37*
G36*
X648906Y505059D02*
X648982Y504843D01*
X649109Y504652D01*
X649287Y504487D01*
X649515Y504347D01*
X649795Y504233D01*
X650125Y504144D01*
X650506Y504081D01*
X650938Y504043D01*
X651420Y504030D01*
Y501490D01*
X650938Y501477D01*
X650506Y501439D01*
X650125Y501376D01*
X649795Y501287D01*
X649515Y501172D01*
X649287Y501033D01*
X649109Y500868D01*
X648982Y500677D01*
X648906Y500461D01*
X648880Y500220D01*
Y505300D01*
X648906Y505059D01*
D02*
G37*
G36*
X558811Y450558D02*
X558844Y450150D01*
X558899Y449756D01*
X558977Y449376D01*
X559076Y449010D01*
X559198Y448659D01*
X559342Y448321D01*
X559507Y447998D01*
X559696Y447689D01*
X559906Y447393D01*
X555154D01*
X555364Y447689D01*
X555552Y447998D01*
X555718Y448321D01*
X555862Y448659D01*
X555984Y449010D01*
X556083Y449376D01*
X556161Y449756D01*
X556216Y450150D01*
X556249Y450558D01*
X556260Y450979D01*
X558800D01*
X558811Y450558D01*
D02*
G37*
G36*
X734060Y517872D02*
X728980Y506660D01*
X728947Y507592D01*
X728849Y508357D01*
X728684Y508955D01*
X728455Y509386D01*
X728159Y509649D01*
X727798Y509745D01*
X727371Y509674D01*
X726878Y509435D01*
X726320Y509029D01*
X725696Y508456D01*
X725388Y515332D01*
X726070Y516065D01*
X726681Y516828D01*
X727220Y517621D01*
X727687Y518444D01*
X728082Y519296D01*
X728405Y520178D01*
X728657Y521090D01*
X728836Y522032D01*
X728944Y523003D01*
X728980Y524004D01*
X734060Y517872D01*
D02*
G37*
G36*
X712334Y515200D02*
X712939Y514694D01*
X713558Y514249D01*
X714191Y513862D01*
X714839Y513535D01*
X715502Y513268D01*
X716180Y513060D01*
X716872Y512911D01*
X717578Y512822D01*
X718299Y512792D01*
Y507712D01*
X717578Y507682D01*
X716872Y507593D01*
X716180Y507444D01*
X715502Y507236D01*
X714839Y506969D01*
X714191Y506642D01*
X713558Y506255D01*
X712939Y505810D01*
X712334Y505304D01*
X711744Y504739D01*
Y515765D01*
X712334Y515200D01*
D02*
G37*
G36*
X523082Y499383D02*
X523496Y499059D01*
X523938Y498773D01*
X524406Y498526D01*
X524902Y498316D01*
X525425Y498145D01*
X525976Y498011D01*
X526553Y497916D01*
X527158Y497859D01*
X527790Y497840D01*
Y492760D01*
X527158Y492741D01*
X526553Y492684D01*
X525976Y492589D01*
X525425Y492455D01*
X524902Y492284D01*
X524406Y492074D01*
X523938Y491827D01*
X523496Y491541D01*
X523142Y491264D01*
X522957Y490910D01*
X522745Y490427D01*
X522561Y489923D01*
X522405Y489399D01*
X522277Y488855D01*
X522178Y488290D01*
X522107Y487704D01*
X522050Y486471D01*
X516970Y485252D01*
X516948Y485892D01*
X516883Y486494D01*
X516773Y487057D01*
X516620Y487581D01*
X516423Y488068D01*
X516182Y488516D01*
X515898Y488925D01*
X515569Y489296D01*
X515197Y489629D01*
X514781Y489924D01*
X522695Y491646D01*
Y499745D01*
X523082Y499383D01*
D02*
G37*
G36*
X712334Y472020D02*
X712939Y471514D01*
X713558Y471069D01*
X714191Y470682D01*
X714839Y470355D01*
X715502Y470088D01*
X716180Y469879D01*
X716872Y469731D01*
X717578Y469642D01*
X718299Y469612D01*
Y464532D01*
X717578Y464502D01*
X716872Y464413D01*
X716180Y464264D01*
X715502Y464056D01*
X714839Y463789D01*
X714191Y463462D01*
X713558Y463075D01*
X712939Y462630D01*
X712334Y462124D01*
X711744Y461559D01*
Y472584D01*
X712334Y472020D01*
D02*
G37*
G36*
X522050Y451882D02*
X522080Y446732D01*
X516781D01*
X516817Y446870D01*
X516849Y447100D01*
X516902Y447838D01*
X516968Y451301D01*
X516970Y452270D01*
X522050Y451882D01*
D02*
G37*
G36*
X183932Y541020D02*
X182931Y540984D01*
X181960Y540876D01*
X181018Y540697D01*
X180106Y540445D01*
X179224Y540122D01*
X178372Y539727D01*
X177549Y539260D01*
X176756Y538721D01*
X175993Y538110D01*
X175260Y537428D01*
X169129D01*
X172777Y534945D01*
X172155Y534287D01*
X171599Y533623D01*
X171107Y532952D01*
X170682Y532275D01*
X170322Y531591D01*
X170027Y530902D01*
X169798Y530205D01*
X169634Y529503D01*
X169536Y528794D01*
X169503Y528079D01*
X161318Y534262D01*
X162036Y534298D01*
X162755Y534406D01*
X163473Y534585D01*
X164192Y534837D01*
X164910Y535160D01*
X165628Y535555D01*
X166347Y536022D01*
X167065Y536561D01*
X167784Y537172D01*
X168239Y537604D01*
X168708Y538110D01*
X169166Y538721D01*
X169451Y539260D01*
X169562Y539727D01*
X169500Y540122D01*
X169264Y540445D01*
X168855Y540697D01*
X168273Y540876D01*
X167517Y540984D01*
X166588Y541020D01*
X177800Y546100D01*
X183932Y541020D01*
D02*
G37*
G36*
X216472Y516994D02*
X216256Y516918D01*
X216066Y516791D01*
X215901Y516613D01*
X215761Y516384D01*
X215647Y516105D01*
X215558Y515775D01*
X215494Y515394D01*
X215456Y514962D01*
X215444Y514479D01*
X212904D01*
X212891Y514962D01*
X212853Y515394D01*
X212789Y515775D01*
X212700Y516105D01*
X212586Y516384D01*
X212446Y516613D01*
X212281Y516791D01*
X212091Y516918D01*
X211875Y516994D01*
X211634Y517019D01*
X216714D01*
X216472Y516994D01*
D02*
G37*
G36*
X100425Y522049D02*
X101075Y521766D01*
X101742Y521516D01*
X103129Y521116D01*
X103850Y520966D01*
X105343Y520767D01*
X106116Y520717D01*
X106907Y520700D01*
Y515620D01*
X106116Y515603D01*
X104587Y515470D01*
X103850Y515354D01*
X102427Y515020D01*
X101742Y514804D01*
X100425Y514271D01*
X99793Y513954D01*
Y522366D01*
X100425Y522049D01*
D02*
G37*
G36*
X252651Y510840D02*
X252600Y511323D01*
X252447Y511754D01*
X252193Y512135D01*
X251838Y512466D01*
X251381Y512745D01*
X250822Y512974D01*
X250161Y513151D01*
X249399Y513278D01*
X248536Y513355D01*
X247570Y513380D01*
Y518460D01*
X248536Y518485D01*
X249399Y518562D01*
X250161Y518689D01*
X250822Y518866D01*
X251381Y519095D01*
X251838Y519374D01*
X252193Y519705D01*
X252447Y520086D01*
X252600Y520517D01*
X252651Y521000D01*
Y510840D01*
D02*
G37*
G36*
X215456Y509367D02*
X215494Y508935D01*
X215558Y508554D01*
X215647Y508224D01*
X215761Y507944D01*
X215901Y507716D01*
X216066Y507538D01*
X216256Y507411D01*
X216472Y507335D01*
X216714Y507309D01*
X211634D01*
X211875Y507335D01*
X212091Y507411D01*
X212281Y507538D01*
X212446Y507716D01*
X212586Y507944D01*
X212700Y508224D01*
X212789Y508554D01*
X212853Y508935D01*
X212891Y509367D01*
X212904Y509850D01*
X215444D01*
X215456Y509367D01*
D02*
G37*
G36*
X220739Y488345D02*
X220523Y488269D01*
X220332Y488142D01*
X220167Y487964D01*
X220028Y487735D01*
X219913Y487456D01*
X219824Y487126D01*
X219761Y486745D01*
X219723Y486313D01*
X219710Y485830D01*
X217170D01*
X217157Y486313D01*
X217119Y486745D01*
X217056Y487126D01*
X216967Y487456D01*
X216852Y487735D01*
X216713Y487964D01*
X216548Y488142D01*
X216357Y488269D01*
X216141Y488345D01*
X215900Y488371D01*
X220980D01*
X220739Y488345D01*
D02*
G37*
G36*
X117201Y480477D02*
X117315Y479182D01*
X117506Y478039D01*
X117773Y477048D01*
X118115Y476210D01*
X118534Y475524D01*
X119030Y474991D01*
X119601Y474610D01*
X120249Y474381D01*
X120973Y474305D01*
X105733D01*
X106457Y474381D01*
X107105Y474610D01*
X107676Y474991D01*
X108171Y475524D01*
X108590Y476210D01*
X108933Y477048D01*
X109200Y478039D01*
X109390Y479182D01*
X109505Y480477D01*
X109543Y481925D01*
X117163D01*
X117201Y480477D01*
D02*
G37*
G36*
X189620Y462971D02*
X189587Y462998D01*
X189486Y463023D01*
X189318Y463045D01*
X188780Y463080D01*
X186257Y463117D01*
Y468197D01*
X186896Y468205D01*
X188410Y468329D01*
X188780Y468403D01*
X189082Y468493D01*
X189318Y468600D01*
X189486Y468724D01*
X189587Y468864D01*
X189620Y469021D01*
Y462971D01*
D02*
G37*
G36*
X191087Y461330D02*
X191377Y461300D01*
X191431Y461280D01*
X191479Y461249D01*
X191564Y461156D01*
X191688Y460953D01*
X191828Y460613D01*
X191958Y460130D01*
X192061Y459511D01*
X192127Y458761D01*
X192151Y457847D01*
X192196Y457745D01*
Y445260D01*
X192512Y443674D01*
X193101Y442793D01*
X193099Y442735D01*
X193153Y442591D01*
X193175Y442500D01*
X193416Y438868D01*
X193421Y437971D01*
X193491Y437803D01*
Y433580D01*
X193491Y433580D01*
X193708Y432490D01*
X194122Y431870D01*
X193891Y430814D01*
X193536Y430200D01*
X193340Y430161D01*
X192707Y430793D01*
X192638Y430962D01*
X191989Y431619D01*
X190463Y433254D01*
X189829Y434022D01*
X189652Y434269D01*
X189561Y434418D01*
X189497Y434558D01*
X189455Y434598D01*
X189248Y435638D01*
X188350Y436982D01*
X177315Y448017D01*
X177271Y448126D01*
X176891Y448512D01*
X176632Y450172D01*
X186933Y460473D01*
X188066Y461416D01*
X189272Y461387D01*
X189378Y461416D01*
X189391D01*
X189620Y461321D01*
X189697Y461353D01*
X189776Y461328D01*
X189942Y461416D01*
X190929D01*
X191087Y461330D01*
D02*
G37*
G36*
X121136Y469129D02*
X121288Y468698D01*
X121542Y468317D01*
X121898Y467986D01*
X122355Y467707D01*
X122914Y467478D01*
X123574Y467301D01*
X124336Y467174D01*
X125200Y467097D01*
X126165Y467072D01*
Y461992D01*
X125200Y461967D01*
X124336Y461890D01*
X123574Y461763D01*
X122914Y461586D01*
X122355Y461357D01*
X121898Y461078D01*
X121542Y460747D01*
X121288Y460366D01*
X121136Y459935D01*
X121085Y459452D01*
Y469612D01*
X121136Y469129D01*
D02*
G37*
G36*
X233478Y460394D02*
X232574Y460264D01*
X230237Y459762D01*
X229584Y459557D01*
X228994Y459333D01*
X228467Y459091D01*
X228002Y458831D01*
X227601Y458552D01*
X227262Y458254D01*
X225211Y459794D01*
X225546Y460177D01*
X225832Y460607D01*
X226071Y461085D01*
X226261Y461610D01*
X226402Y462182D01*
X226495Y462801D01*
X226540Y463468D01*
X226536Y464182D01*
X226484Y464943D01*
X226384Y465752D01*
X233478Y460394D01*
D02*
G37*
G36*
X200937Y462920D02*
X200506Y462767D01*
X200125Y462513D01*
X199794Y462158D01*
X199515Y461701D01*
X199286Y461142D01*
X199109Y460481D01*
X198982Y459719D01*
X198905Y458856D01*
X198880Y457891D01*
X193800D01*
X193775Y458856D01*
X193698Y459719D01*
X193571Y460481D01*
X193394Y461142D01*
X193165Y461701D01*
X192886Y462158D01*
X192555Y462513D01*
X192174Y462767D01*
X191743Y462920D01*
X191260Y462971D01*
X201420D01*
X200937Y462920D01*
D02*
G37*
G36*
X222686Y462723D02*
X222597Y462484D01*
X222520Y462157D01*
X222453Y461741D01*
X222353Y460644D01*
X222284Y458333D01*
X222283Y457386D01*
X219743Y457374D01*
X219734Y458322D01*
X219463Y462143D01*
X219383Y462469D01*
X219292Y462707D01*
X219191Y462857D01*
X222785Y462873D01*
X222686Y462723D01*
D02*
G37*
G36*
X284059Y452120D02*
X283867Y452603D01*
X283601Y453034D01*
X283260Y453415D01*
X282844Y453746D01*
X282354Y454025D01*
X281789Y454254D01*
X281149Y454431D01*
X280434Y454558D01*
X279645Y454635D01*
X278781Y454660D01*
Y459740D01*
X279714Y459765D01*
X280555Y459842D01*
X281302Y459969D01*
X281957Y460146D01*
X282518Y460375D01*
X282987Y460654D01*
X283363Y460985D01*
X283645Y461366D01*
X283835Y461797D01*
X283931Y462280D01*
X284059Y452120D01*
D02*
G37*
G36*
X242826Y451778D02*
X242040Y452295D01*
X239919Y453520D01*
X239292Y453819D01*
X238156Y454255D01*
X237648Y454391D01*
X237179Y454473D01*
X236750Y454500D01*
X236220Y457040D01*
X236736Y457074D01*
X237244Y457178D01*
X237746Y457350D01*
X238239Y457592D01*
X238726Y457902D01*
X239205Y458281D01*
X239677Y458730D01*
X240141Y459247D01*
X240598Y459833D01*
X241048Y460488D01*
X242826Y451778D01*
D02*
G37*
G36*
X173702Y450562D02*
X173510Y450526D01*
X173414Y450418D01*
X173413Y450239D01*
X173509Y449987D01*
X173700Y449664D01*
X175424Y447652D01*
X176094Y446970D01*
X168910D01*
X168177Y447652D01*
X167414Y448263D01*
X166621Y448802D01*
X165798Y449269D01*
X164946Y449664D01*
X164064Y449987D01*
X163152Y450239D01*
X162210Y450418D01*
X161239Y450526D01*
X160238Y450562D01*
X166370Y455642D01*
X173702Y450562D01*
D02*
G37*
G36*
X349544Y452326D02*
X347025Y446671D01*
X346850Y446073D01*
X346745Y445574D01*
X346710Y445173D01*
X344170Y444338D01*
X344120Y444981D01*
X343972Y445607D01*
X343725Y446218D01*
X343378Y446813D01*
X342932Y447393D01*
X342388Y447957D01*
X341744Y448505D01*
X341002Y449038D01*
X340160Y449555D01*
X339219Y450056D01*
X350208Y453613D01*
X349544Y452326D01*
D02*
G37*
G36*
X289571Y441263D02*
X289662Y440088D01*
X289741Y439611D01*
X289842Y439208D01*
X289967Y438877D01*
X290114Y438620D01*
X290283Y438437D01*
X290475Y438327D01*
X290690Y438290D01*
X283350D01*
X283565Y438327D01*
X283757Y438437D01*
X283926Y438620D01*
X284073Y438877D01*
X284198Y439208D01*
X284299Y439611D01*
X284378Y440088D01*
X284435Y440639D01*
X284480Y441960D01*
X289560D01*
X289571Y441263D01*
D02*
G37*
G36*
X198037Y443315D02*
X197947Y443077D01*
X197868Y442750D01*
X197800Y442334D01*
X197694Y441237D01*
X197615Y438927D01*
X197610Y437980D01*
X195070D01*
X195065Y438927D01*
X194812Y442750D01*
X194733Y443077D01*
X194643Y443315D01*
X194543Y443465D01*
X198137D01*
X198037Y443315D01*
D02*
G37*
G36*
X155293Y438356D02*
X155360Y437493D01*
X155473Y436731D01*
X155632Y436070D01*
X155835Y435512D01*
X156083Y435054D01*
X156377Y434699D01*
X156716Y434445D01*
X157100Y434292D01*
X157529Y434241D01*
X148590D01*
X148894Y434292D01*
X149166Y434445D01*
X149406Y434699D01*
X149614Y435054D01*
X149790Y435512D01*
X149934Y436070D01*
X150046Y436731D01*
X150126Y437493D01*
X150190Y439322D01*
X155270D01*
X155293Y438356D01*
D02*
G37*
G36*
X534296Y437355D02*
X534108Y437046D01*
X533942Y436723D01*
X533798Y436385D01*
X533676Y436034D01*
X533577Y435668D01*
X533499Y435288D01*
X533444Y434894D01*
X533411Y434487D01*
X533400Y434064D01*
X530860D01*
X530849Y434487D01*
X530816Y434894D01*
X530760Y435288D01*
X530683Y435668D01*
X530584Y436034D01*
X530462Y436385D01*
X530318Y436723D01*
X530153Y437046D01*
X529964Y437355D01*
X529754Y437650D01*
X534506D01*
X534296Y437355D01*
D02*
G37*
G36*
X237383Y434589D02*
X237421Y434157D01*
X237484Y433776D01*
X237573Y433446D01*
X237687Y433167D01*
X237827Y432938D01*
X237992Y432760D01*
X238183Y432633D01*
X238399Y432557D01*
X238640Y432532D01*
X233560D01*
X233801Y432557D01*
X234017Y432633D01*
X234208Y432760D01*
X234373Y432938D01*
X234513Y433167D01*
X234627Y433446D01*
X234716Y433776D01*
X234779Y434157D01*
X234817Y434589D01*
X234830Y435071D01*
X237370D01*
X237383Y434589D01*
D02*
G37*
G36*
X75590Y438368D02*
X75743Y438295D01*
X75997Y438231D01*
X76352Y438175D01*
X76810Y438127D01*
X78791Y438037D01*
X80619Y438020D01*
Y432940D01*
X79654Y432936D01*
X75743Y432665D01*
X75590Y432592D01*
X75539Y432510D01*
Y438450D01*
X75590Y438368D01*
D02*
G37*
G36*
X330745Y424815D02*
X330130Y425418D01*
X328943Y426434D01*
X328372Y426847D01*
X327815Y427196D01*
X327272Y427482D01*
X326745Y427704D01*
X326231Y427863D01*
X325732Y427958D01*
X325675Y427962D01*
X325416Y427939D01*
X325035Y427876D01*
X324705Y427787D01*
X324425Y427673D01*
X324197Y427533D01*
X324019Y427368D01*
X323892Y427177D01*
X323816Y426961D01*
X323790Y426720D01*
Y431800D01*
X323816Y431559D01*
X323892Y431343D01*
X324019Y431152D01*
X324197Y430987D01*
X324425Y430848D01*
X324705Y430733D01*
X325035Y430644D01*
X325416Y430581D01*
X325675Y430558D01*
X325732Y430562D01*
X326231Y430657D01*
X326745Y430816D01*
X327272Y431038D01*
X327815Y431324D01*
X328372Y431673D01*
X328943Y432086D01*
X329529Y432562D01*
X330745Y433705D01*
Y424815D01*
D02*
G37*
G36*
X187995Y433877D02*
X188100Y433645D01*
X188276Y433358D01*
X188521Y433015D01*
X189222Y432165D01*
X190800Y430476D01*
X191466Y429803D01*
X189669Y428007D01*
X188996Y428672D01*
X186114Y431196D01*
X185827Y431372D01*
X185595Y431477D01*
X185418Y431512D01*
X187960Y434054D01*
X187995Y433877D01*
D02*
G37*
G36*
X130573Y432367D02*
X130615Y432261D01*
X130308Y430543D01*
X130224Y430444D01*
X129862Y430202D01*
X125768Y426108D01*
X124401Y426897D01*
X124714Y428063D01*
Y430137D01*
X124177Y432139D01*
X123141Y433935D01*
X121675Y435401D01*
X119879Y436437D01*
X117877Y436974D01*
X115803D01*
X113801Y436437D01*
X112005Y435401D01*
X111459Y434854D01*
X111175Y434747D01*
X110003Y433645D01*
X109499Y433235D01*
X109010Y432882D01*
X108551Y432594D01*
X108127Y432371D01*
X107739Y432208D01*
X107392Y432100D01*
X107083Y432041D01*
X106700Y432016D01*
X106564Y431949D01*
X96938D01*
X96928Y431962D01*
X96796Y432172D01*
X96474Y433473D01*
X96614Y433566D01*
X96690Y433680D01*
X97149Y434032D01*
X97158Y434038D01*
X103316Y440196D01*
X122744D01*
X130573Y432367D01*
D02*
G37*
G36*
X112305Y424655D02*
X111690Y425258D01*
X110503Y426274D01*
X109932Y426687D01*
X109375Y427036D01*
X108833Y427322D01*
X108305Y427544D01*
X107791Y427703D01*
X107292Y427798D01*
X106808Y427830D01*
Y430370D01*
X107292Y430402D01*
X107791Y430497D01*
X108305Y430656D01*
X108833Y430878D01*
X109375Y431164D01*
X109932Y431513D01*
X110503Y431926D01*
X111089Y432402D01*
X112305Y433545D01*
Y424655D01*
D02*
G37*
G36*
X75565Y425412D02*
X75641Y425378D01*
X75768Y425348D01*
X75946Y425322D01*
X76454Y425282D01*
X78080Y425250D01*
Y422710D01*
X77597Y422708D01*
X75641Y422582D01*
X75565Y422548D01*
X75539Y422510D01*
Y425449D01*
X75565Y425412D01*
D02*
G37*
G36*
X139721Y432722D02*
X140484Y432111D01*
X141277Y431572D01*
X142100Y431105D01*
X142952Y430710D01*
X143834Y430387D01*
X144746Y430135D01*
X145643Y429964D01*
X146101Y430041D01*
X146762Y430218D01*
X147320Y430447D01*
X147778Y430726D01*
X148133Y431057D01*
X148387Y431438D01*
X148540Y431869D01*
X148590Y432352D01*
Y422192D01*
X148540Y422675D01*
X148387Y423106D01*
X148133Y423487D01*
X147778Y423818D01*
X147320Y424097D01*
X146762Y424326D01*
X146101Y424503D01*
X145339Y424630D01*
X144476Y424707D01*
X143511Y424732D01*
Y426374D01*
X141528Y424732D01*
X132792Y429812D01*
X133251Y429848D01*
X133586Y429956D01*
X133797Y430135D01*
X133884Y430387D01*
X133847Y430710D01*
X133686Y431105D01*
X133401Y431572D01*
X132460Y432722D01*
X131804Y433404D01*
X138988D01*
X139721Y432722D01*
D02*
G37*
G36*
X160084Y448920D02*
X160132Y448935D01*
X160179Y448913D01*
X161118Y448880D01*
X161964Y448786D01*
X162778Y448631D01*
X163560Y448415D01*
X164314Y448139D01*
X165043Y447801D01*
X165749Y447400D01*
X166433Y446935D01*
X167098Y446403D01*
X167786Y445762D01*
X167887Y445725D01*
X175392Y438220D01*
X174809Y436812D01*
X171330D01*
Y427272D01*
X170060D01*
Y426002D01*
X162020D01*
Y419121D01*
X159084D01*
Y433898D01*
X159168Y434048D01*
X159140Y434147D01*
X159179Y434241D01*
X159084Y434471D01*
Y435796D01*
X157873D01*
X157723Y435880D01*
X157521Y435904D01*
X157457Y435982D01*
X157343Y436191D01*
X157214Y436546D01*
X157094Y437044D01*
X157001Y437679D01*
X156941Y438440D01*
X156919Y439360D01*
X156874Y439463D01*
Y448958D01*
X160011D01*
X160084Y448920D01*
D02*
G37*
G36*
X319829Y420204D02*
X319613Y420128D01*
X319422Y420001D01*
X319257Y419823D01*
X319117Y419595D01*
X319003Y419315D01*
X318914Y418985D01*
X318851Y418604D01*
X318813Y418172D01*
X318800Y417690D01*
X316260D01*
X316247Y418172D01*
X316209Y418604D01*
X316146Y418985D01*
X316057Y419315D01*
X315942Y419595D01*
X315803Y419823D01*
X315638Y420001D01*
X315447Y420128D01*
X315231Y420204D01*
X314990Y420230D01*
X320070D01*
X319829Y420204D01*
D02*
G37*
G36*
X75565Y420412D02*
X75641Y420378D01*
X75768Y420348D01*
X75946Y420322D01*
X76454Y420282D01*
X78080Y420250D01*
Y417710D01*
X77597Y417708D01*
X75641Y417582D01*
X75565Y417548D01*
X75539Y417510D01*
Y420449D01*
X75565Y420412D01*
D02*
G37*
G36*
X104685Y409415D02*
X104070Y410018D01*
X102883Y411034D01*
X102312Y411447D01*
X101755Y411796D01*
X101213Y412082D01*
X100685Y412304D01*
X100171Y412463D01*
X99672Y412558D01*
X99329Y412581D01*
X99086Y412572D01*
X98600Y412518D01*
X98129Y412428D01*
X97673Y412303D01*
X97232Y412141D01*
X96806Y411943D01*
X96395Y411710D01*
X95998Y411441D01*
X95617Y411135D01*
X95250Y410794D01*
X92928Y412064D01*
X93251Y412423D01*
X93503Y412782D01*
X93682Y413142D01*
X93790Y413501D01*
X93826Y413860D01*
X93790Y414219D01*
X93682Y414578D01*
X93503Y414938D01*
X93251Y415297D01*
X92928Y415656D01*
X95250Y416926D01*
X95617Y416585D01*
X95998Y416279D01*
X96395Y416010D01*
X96806Y415777D01*
X97232Y415579D01*
X97673Y415417D01*
X98129Y415292D01*
X98600Y415202D01*
X99086Y415148D01*
X99329Y415139D01*
X99672Y415162D01*
X100171Y415257D01*
X100685Y415416D01*
X101213Y415638D01*
X101755Y415924D01*
X102312Y416273D01*
X102883Y416686D01*
X103469Y417162D01*
X104685Y418305D01*
Y409415D01*
D02*
G37*
G36*
X58324Y417916D02*
X59570Y416928D01*
X60163Y416526D01*
X60736Y416186D01*
X61290Y415908D01*
X61824Y415692D01*
X62338Y415538D01*
X62832Y415445D01*
X62998Y415434D01*
X64100Y415449D01*
Y412510D01*
X64075Y412579D01*
X63999Y412641D01*
X63872Y412696D01*
X63694Y412743D01*
X63465Y412783D01*
X63186Y412816D01*
X62891Y412834D01*
X62428Y412744D01*
X61916Y412581D01*
X61395Y412354D01*
X60865Y412061D01*
X60324Y411703D01*
X59775Y411281D01*
X59216Y410793D01*
X58647Y410240D01*
X58069Y409622D01*
X57671Y418503D01*
X58324Y417916D01*
D02*
G37*
G36*
X153672Y413449D02*
X153725Y412614D01*
X153749Y412480D01*
X153778Y412376D01*
X153811Y412301D01*
X153849Y412256D01*
X153890Y412242D01*
X150910D01*
X150951Y412256D01*
X150989Y412301D01*
X151022Y412376D01*
X151051Y412480D01*
X151075Y412614D01*
X151095Y412778D01*
X151121Y413195D01*
X151130Y413732D01*
X153670D01*
X153672Y413449D01*
D02*
G37*
G36*
X185965Y411827D02*
X185350Y412430D01*
X184163Y413446D01*
X183592Y413859D01*
X183035Y414208D01*
X182493Y414494D01*
X181965Y414716D01*
X181451Y414875D01*
X180952Y414970D01*
X180468Y415002D01*
Y417542D01*
X180952Y417574D01*
X181451Y417669D01*
X181965Y417828D01*
X182493Y418050D01*
X183035Y418336D01*
X183592Y418685D01*
X184163Y419098D01*
X184749Y419574D01*
X185965Y420717D01*
Y411827D01*
D02*
G37*
G36*
X75565Y410412D02*
X75641Y410378D01*
X75768Y410348D01*
X75946Y410322D01*
X76454Y410282D01*
X78080Y410250D01*
Y407710D01*
X77597Y407708D01*
X75641Y407582D01*
X75565Y407548D01*
X75539Y407510D01*
Y410449D01*
X75565Y410412D01*
D02*
G37*
G36*
X55900Y406520D02*
X53360D01*
X53320Y407510D01*
X55885Y408042D01*
X55900Y406520D01*
D02*
G37*
G36*
X99463Y410919D02*
X99772Y410860D01*
X100120Y410752D01*
X100507Y410589D01*
X100931Y410366D01*
X101390Y410078D01*
X101862Y409737D01*
X102955Y408801D01*
X103530Y408237D01*
X103827Y408118D01*
X104385Y407559D01*
X106181Y406523D01*
X108183Y405986D01*
X110257D01*
X112259Y406523D01*
X114055Y407559D01*
X115521Y409025D01*
X116252Y410292D01*
X117776Y409884D01*
Y400336D01*
X110279Y392839D01*
X109226Y391826D01*
X107825Y391624D01*
X80743D01*
X80635Y391670D01*
X78836Y391686D01*
X77094Y391766D01*
Y395956D01*
Y406023D01*
X77653Y406059D01*
X78086Y406060D01*
X78255Y406131D01*
X90588D01*
Y406082D01*
X92536Y406469D01*
X92669Y406496D01*
X94418Y407664D01*
Y407664D01*
X95456Y408767D01*
X96216Y409528D01*
X96374Y409586D01*
X96695Y409886D01*
X96979Y410112D01*
X97267Y410308D01*
X97561Y410475D01*
X97864Y410616D01*
X98177Y410731D01*
X98504Y410821D01*
X98846Y410886D01*
X99206Y410926D01*
X99304Y410929D01*
X99463Y410919D01*
D02*
G37*
G36*
X140181Y408114D02*
X139943Y407898D01*
X139733Y407651D01*
X139551Y407374D01*
X139396Y407066D01*
X139270Y406726D01*
X139172Y406356D01*
X139102Y405955D01*
X139060Y405523D01*
X139046Y405060D01*
X136506D01*
X136491Y405474D01*
X136445Y405857D01*
X136369Y406207D01*
X136263Y406526D01*
X136126Y406812D01*
X135958Y407067D01*
X135761Y407290D01*
X135532Y407480D01*
X135274Y407639D01*
X134985Y407766D01*
X140447Y408299D01*
X140181Y408114D01*
D02*
G37*
G36*
X176555Y407571D02*
X176631Y407355D01*
X176758Y407164D01*
X176936Y406999D01*
X177164Y406860D01*
X177444Y406745D01*
X177774Y406656D01*
X178155Y406593D01*
X178587Y406555D01*
X179069Y406542D01*
Y404002D01*
X178587Y403989D01*
X178155Y403951D01*
X177774Y403888D01*
X177444Y403799D01*
X177164Y403685D01*
X176936Y403545D01*
X176758Y403380D01*
X176631Y403189D01*
X176555Y402973D01*
X176530Y402732D01*
Y407812D01*
X176555Y407571D01*
D02*
G37*
G36*
X64100Y402510D02*
X64075Y402548D01*
X63999Y402582D01*
X63872Y402612D01*
X63694Y402638D01*
X63186Y402678D01*
X61561Y402710D01*
Y405250D01*
X62043Y405252D01*
X63999Y405378D01*
X64075Y405412D01*
X64100Y405449D01*
Y402510D01*
D02*
G37*
G36*
X296271Y401242D02*
X296245Y401423D01*
X296169Y401584D01*
X296042Y401727D01*
X295864Y401850D01*
X295636Y401955D01*
X295356Y402040D01*
X295026Y402107D01*
X294645Y402154D01*
X294213Y402183D01*
X293731Y402192D01*
Y404732D01*
X294213Y404742D01*
X295026Y404818D01*
X295356Y404884D01*
X295636Y404969D01*
X295864Y405074D01*
X296042Y405197D01*
X296169Y405340D01*
X296245Y405501D01*
X296271Y405681D01*
Y401242D01*
D02*
G37*
G36*
X148590Y401032D02*
X148565Y401273D01*
X148489Y401489D01*
X148362Y401680D01*
X148184Y401845D01*
X147956Y401984D01*
X147676Y402099D01*
X147346Y402188D01*
X146965Y402251D01*
X146533Y402289D01*
X146051Y402302D01*
Y404842D01*
X146533Y404855D01*
X146965Y404893D01*
X147346Y404956D01*
X147676Y405045D01*
X147956Y405159D01*
X148184Y405299D01*
X148362Y405464D01*
X148489Y405655D01*
X148565Y405871D01*
X148590Y406112D01*
Y401032D01*
D02*
G37*
G36*
X191802Y402960D02*
X191897Y402461D01*
X192056Y401947D01*
X192278Y401419D01*
X192564Y400877D01*
X192913Y400320D01*
X193326Y399749D01*
X193802Y399163D01*
X194945Y397947D01*
X186055D01*
X186658Y398562D01*
X187674Y399749D01*
X188087Y400320D01*
X188436Y400877D01*
X188722Y401419D01*
X188944Y401947D01*
X189103Y402461D01*
X189198Y402960D01*
X189230Y403444D01*
X191770D01*
X191802Y402960D01*
D02*
G37*
G36*
X174359Y398277D02*
X174143Y398201D01*
X173952Y398074D01*
X173787Y397896D01*
X173647Y397668D01*
X173533Y397388D01*
X173444Y397058D01*
X173381Y396677D01*
X173343Y396245D01*
X173330Y395762D01*
X170790D01*
X170777Y396245D01*
X170739Y396677D01*
X170676Y397058D01*
X170587Y397388D01*
X170473Y397668D01*
X170333Y397896D01*
X170168Y398074D01*
X169977Y398201D01*
X169761Y398277D01*
X169520Y398302D01*
X174600D01*
X174359Y398277D01*
D02*
G37*
G36*
X354271Y394743D02*
X354245Y394923D01*
X354169Y395084D01*
X354042Y395227D01*
X353864Y395350D01*
X353635Y395455D01*
X353356Y395540D01*
X353026Y395607D01*
X352645Y395654D01*
X352213Y395682D01*
X351730Y395692D01*
Y398232D01*
X352213Y398242D01*
X353026Y398317D01*
X353356Y398384D01*
X353635Y398469D01*
X353864Y398574D01*
X354042Y398697D01*
X354169Y398840D01*
X354245Y399001D01*
X354271Y399182D01*
Y394743D01*
D02*
G37*
G36*
X296271D02*
X296245Y394923D01*
X296169Y395084D01*
X296042Y395227D01*
X295864Y395350D01*
X295636Y395455D01*
X295356Y395540D01*
X295026Y395607D01*
X294645Y395654D01*
X294213Y395682D01*
X293731Y395692D01*
Y398232D01*
X294213Y398242D01*
X295026Y398317D01*
X295356Y398384D01*
X295636Y398469D01*
X295864Y398574D01*
X296042Y398697D01*
X296169Y398840D01*
X296245Y399001D01*
X296271Y399182D01*
Y394743D01*
D02*
G37*
G36*
X64100Y395449D02*
Y392510D01*
X64076Y392623D01*
X64002Y392724D01*
X63878Y392813D01*
X63706Y392890D01*
X63484Y392956D01*
X63212Y393009D01*
X62892Y393051D01*
X62103Y393098D01*
X61634Y393104D01*
Y395644D01*
X64100Y395449D01*
D02*
G37*
G36*
X139770Y397542D02*
X140957Y396526D01*
X141528Y396113D01*
X142085Y395764D01*
X142627Y395478D01*
X143155Y395256D01*
X143669Y395097D01*
X144167Y395002D01*
X144652Y394970D01*
Y392430D01*
X144167Y392398D01*
X143669Y392303D01*
X143155Y392144D01*
X142627Y391922D01*
X142085Y391636D01*
X141528Y391287D01*
X140957Y390874D01*
X140371Y390398D01*
X139155Y389255D01*
Y398145D01*
X139770Y397542D01*
D02*
G37*
G36*
X313750Y390172D02*
X313267Y390159D01*
X312835Y390121D01*
X312454Y390058D01*
X312124Y389969D01*
X311845Y389855D01*
X311616Y389715D01*
X311438Y389550D01*
X311311Y389359D01*
X311235Y389143D01*
X311210Y388902D01*
Y392682D01*
X313750Y392712D01*
Y390172D01*
D02*
G37*
G36*
X326991Y425766D02*
X327450Y425478D01*
X327922Y425137D01*
X329015Y424201D01*
X329590Y423637D01*
X329887Y423518D01*
X330445Y422959D01*
X332241Y421923D01*
X334243Y421386D01*
X336317D01*
X338319Y421923D01*
X340115Y422959D01*
X341067Y423912D01*
X342591Y423280D01*
Y401032D01*
X342591Y401032D01*
X342808Y399942D01*
X343426Y399018D01*
X347496Y394948D01*
X348420Y394330D01*
X349510Y394113D01*
X349510Y394113D01*
X351537D01*
X351698Y394043D01*
X352142Y394034D01*
X352488Y394011D01*
X352716Y393983D01*
Y386688D01*
Y380188D01*
Y373688D01*
Y367188D01*
Y360945D01*
X352120Y360890D01*
X351698Y360881D01*
X351537Y360811D01*
X347802D01*
X347802Y360811D01*
X346712Y360594D01*
X345788Y359976D01*
X343426Y357614D01*
X342808Y356690D01*
X342591Y355600D01*
X342591Y355600D01*
Y345440D01*
X342591Y345440D01*
X342808Y344350D01*
X343426Y343426D01*
X344924Y341927D01*
X344135Y340561D01*
X343937Y340614D01*
X341863D01*
X339861Y340077D01*
X338065Y339041D01*
X337520Y338495D01*
X337239Y338390D01*
X336905Y338078D01*
X336606Y337844D01*
X336287Y337638D01*
X335946Y337458D01*
X335579Y337303D01*
X335183Y337173D01*
X334866Y337096D01*
X334707Y337122D01*
X334225Y337252D01*
X333884Y337392D01*
X333681Y337516D01*
X333589Y337601D01*
X333557Y337649D01*
X333538Y337703D01*
X333507Y337993D01*
X333422Y338151D01*
Y343055D01*
X326959D01*
X326801Y343141D01*
X326511Y343172D01*
X326457Y343191D01*
X326409Y343223D01*
X326324Y343315D01*
X326200Y343518D01*
X326061Y343858D01*
X325931Y344341D01*
X325827Y344960D01*
X325761Y345710D01*
X325737Y346624D01*
X325692Y346726D01*
Y354092D01*
X325377Y355677D01*
X324478Y357022D01*
X320794Y360706D01*
X319450Y361604D01*
X317864Y361920D01*
X312764D01*
Y366172D01*
X313780D01*
Y369692D01*
X303740D01*
Y372232D01*
X313780D01*
Y375752D01*
X312764D01*
Y388433D01*
X312805Y388444D01*
X313043Y388484D01*
X313361Y388512D01*
X313793Y388523D01*
X313951Y388593D01*
X315242D01*
X315242Y388593D01*
X316332Y388810D01*
X317256Y389428D01*
X319544Y391716D01*
X319544Y391716D01*
X320162Y392640D01*
X320379Y393730D01*
X320379Y393730D01*
Y417489D01*
X320449Y417646D01*
X320460Y418078D01*
X320488Y418396D01*
X320528Y418634D01*
X320539Y418675D01*
X325345D01*
Y424801D01*
X325368Y424871D01*
X325554Y425165D01*
X325944Y425482D01*
X326869Y425830D01*
X326991Y425766D01*
D02*
G37*
G36*
X279196Y394948D02*
X279196Y394948D01*
X280120Y394330D01*
X281210Y394113D01*
X281210Y394113D01*
X293537D01*
X293698Y394043D01*
X294142Y394034D01*
X294488Y394011D01*
X294716Y393983D01*
Y386945D01*
X294120Y386890D01*
X293698Y386881D01*
X293537Y386811D01*
X236441D01*
X236305Y386878D01*
X235892Y386906D01*
X235606Y386965D01*
X235325Y387065D01*
X235040Y387212D01*
X234744Y387415D01*
X234436Y387683D01*
X234119Y388024D01*
X233795Y388440D01*
X233468Y388935D01*
X233120Y389552D01*
X232866Y389751D01*
X232361Y390627D01*
X230895Y392093D01*
X230165Y392514D01*
X230574Y394038D01*
X243874D01*
Y402522D01*
X244890D01*
Y403538D01*
X253374D01*
Y408463D01*
X265680D01*
X279196Y394948D01*
D02*
G37*
G36*
X75590Y390368D02*
X75743Y390295D01*
X75997Y390230D01*
X76352Y390175D01*
X76810Y390127D01*
X78791Y390037D01*
X80619Y390020D01*
Y384940D01*
X79654Y384936D01*
X75743Y384665D01*
X75590Y384592D01*
X75539Y384510D01*
Y390449D01*
X75590Y390368D01*
D02*
G37*
G36*
X296271Y381743D02*
X296245Y381923D01*
X296169Y382084D01*
X296042Y382227D01*
X295864Y382350D01*
X295636Y382455D01*
X295356Y382540D01*
X295026Y382607D01*
X294645Y382654D01*
X294213Y382682D01*
X293731Y382692D01*
Y385232D01*
X294213Y385242D01*
X295026Y385317D01*
X295356Y385384D01*
X295636Y385469D01*
X295864Y385574D01*
X296042Y385697D01*
X296169Y385840D01*
X296245Y386001D01*
X296271Y386181D01*
Y381743D01*
D02*
G37*
G36*
X521595Y384855D02*
X521408Y384546D01*
X521242Y384223D01*
X521098Y383885D01*
X520976Y383534D01*
X520877Y383168D01*
X520799Y382788D01*
X520744Y382394D01*
X520711Y381987D01*
X520700Y381564D01*
X518160D01*
X518149Y381987D01*
X518116Y382394D01*
X518060Y382788D01*
X517983Y383168D01*
X517884Y383534D01*
X517762Y383885D01*
X517618Y384223D01*
X517453Y384546D01*
X517265Y384855D01*
X517054Y385150D01*
X521805D01*
X521595Y384855D01*
D02*
G37*
G36*
X232060Y388075D02*
X232453Y387478D01*
X232863Y386952D01*
X233289Y386495D01*
X233732Y386109D01*
X234191Y385793D01*
X234667Y385548D01*
X235160Y385372D01*
X235669Y385267D01*
X236195Y385232D01*
X235412Y382692D01*
X235022Y382667D01*
X234580Y382593D01*
X234084Y382470D01*
X233535Y382298D01*
X232276Y381805D01*
X230805Y381115D01*
X229121Y380229D01*
X231683Y388742D01*
X232060Y388075D01*
D02*
G37*
G36*
X117439Y373380D02*
X117414Y373621D01*
X117338Y373837D01*
X117211Y374028D01*
X117033Y374193D01*
X116804Y374333D01*
X116525Y374447D01*
X116195Y374536D01*
X115814Y374599D01*
X115382Y374637D01*
X114899Y374650D01*
Y377190D01*
X115382Y377203D01*
X115814Y377241D01*
X116195Y377304D01*
X116525Y377393D01*
X116804Y377508D01*
X117033Y377647D01*
X117211Y377812D01*
X117338Y378003D01*
X117414Y378219D01*
X117439Y378460D01*
Y373380D01*
D02*
G37*
G36*
X288535Y379813D02*
X291419Y378388D01*
X292017Y378159D01*
X293067Y377854D01*
X293519Y377777D01*
X293865Y377756D01*
X294213Y377765D01*
X294645Y377803D01*
X295026Y377866D01*
X295356Y377955D01*
X295636Y378069D01*
X295864Y378209D01*
X296042Y378374D01*
X296169Y378565D01*
X296245Y378781D01*
X296271Y379022D01*
Y375243D01*
X294625Y375223D01*
X294628Y375212D01*
X294105Y375177D01*
X293595Y375072D01*
X293100Y374897D01*
X292619Y374653D01*
X292151Y374338D01*
X291697Y373954D01*
X291257Y373499D01*
X290831Y372975D01*
X290419Y372381D01*
X290021Y371717D01*
X287692Y380296D01*
X288535Y379813D01*
D02*
G37*
G36*
X104210Y379762D02*
X105397Y378746D01*
X105968Y378333D01*
X106525Y377984D01*
X107067Y377698D01*
X107595Y377476D01*
X108109Y377317D01*
X108608Y377222D01*
X109092Y377190D01*
Y374650D01*
X108608Y374618D01*
X108109Y374523D01*
X107595Y374364D01*
X107067Y374142D01*
X106525Y373856D01*
X105968Y373507D01*
X105397Y373094D01*
X104811Y372618D01*
X103595Y371475D01*
Y380365D01*
X104210Y379762D01*
D02*
G37*
G36*
X369235Y373001D02*
X369311Y372840D01*
X369438Y372697D01*
X369616Y372574D01*
X369845Y372469D01*
X370124Y372384D01*
X370454Y372318D01*
X370835Y372270D01*
X371267Y372242D01*
X371749Y372232D01*
Y369692D01*
X371267Y369683D01*
X370454Y369607D01*
X370124Y369540D01*
X369845Y369455D01*
X369616Y369350D01*
X369438Y369227D01*
X369311Y369084D01*
X369235Y368923D01*
X369210Y368742D01*
Y373181D01*
X369235Y373001D01*
D02*
G37*
G36*
X371749Y364172D02*
X371267Y364159D01*
X370835Y364121D01*
X370454Y364058D01*
X370124Y363969D01*
X369845Y363854D01*
X369616Y363715D01*
X369438Y363550D01*
X369311Y363359D01*
X369235Y363143D01*
X369210Y362902D01*
Y366682D01*
X371749Y366712D01*
Y364172D01*
D02*
G37*
G36*
X296271Y362830D02*
X296245Y363071D01*
X296169Y363287D01*
X296042Y363478D01*
X295864Y363643D01*
X295636Y363782D01*
X295356Y363897D01*
X295026Y363985D01*
X294645Y364049D01*
X294213Y364087D01*
X293731Y364100D01*
Y366640D01*
X296271Y366682D01*
Y362830D01*
D02*
G37*
G36*
X264824Y367668D02*
X264900Y367453D01*
X265027Y367262D01*
X265205Y367097D01*
X265434Y366957D01*
X265713Y366843D01*
X266043Y366754D01*
X266424Y366691D01*
X266856Y366652D01*
X267339Y366640D01*
Y364100D01*
X266856Y364087D01*
X266424Y364049D01*
X266043Y363985D01*
X265713Y363897D01*
X265434Y363782D01*
X265205Y363643D01*
X265027Y363478D01*
X264900Y363287D01*
X264824Y363071D01*
X264799Y362830D01*
Y367910D01*
X264824Y367668D01*
D02*
G37*
G36*
X354271Y355742D02*
X354245Y355923D01*
X354169Y356084D01*
X354042Y356227D01*
X353864Y356350D01*
X353635Y356455D01*
X353356Y356540D01*
X353026Y356607D01*
X352645Y356654D01*
X352213Y356683D01*
X351730Y356692D01*
Y359232D01*
X352213Y359241D01*
X353026Y359318D01*
X353356Y359384D01*
X353635Y359469D01*
X353864Y359574D01*
X354042Y359697D01*
X354169Y359840D01*
X354245Y360001D01*
X354271Y360182D01*
Y355742D01*
D02*
G37*
G36*
X369235Y353501D02*
X369311Y353340D01*
X369438Y353197D01*
X369616Y353074D01*
X369845Y352969D01*
X370124Y352884D01*
X370454Y352817D01*
X370835Y352770D01*
X371267Y352742D01*
X371749Y352732D01*
Y350192D01*
X371267Y350182D01*
X370454Y350107D01*
X370124Y350040D01*
X369845Y349955D01*
X369616Y349850D01*
X369438Y349727D01*
X369311Y349584D01*
X369235Y349423D01*
X369210Y349243D01*
Y353681D01*
X369235Y353501D01*
D02*
G37*
G36*
X54524Y381080D02*
X55023Y379876D01*
X56366Y378533D01*
X58120Y377806D01*
X60020D01*
X60263Y377907D01*
X61530Y377060D01*
Y373940D01*
X60593Y372804D01*
X52546D01*
Y348289D01*
X47823D01*
X46584Y348377D01*
X46524Y348418D01*
X46045Y349662D01*
X46028Y350246D01*
X46018Y374607D01*
X46024Y374621D01*
X47009Y375720D01*
X52888Y381599D01*
X54524Y381080D01*
D02*
G37*
G36*
X97119Y342900D02*
X97094Y343141D01*
X97018Y343357D01*
X96891Y343548D01*
X96713Y343713D01*
X96484Y343853D01*
X96205Y343967D01*
X95875Y344056D01*
X95494Y344119D01*
X95062Y344157D01*
X94579Y344170D01*
Y346710D01*
X95062Y346723D01*
X95494Y346761D01*
X95875Y346824D01*
X96205Y346913D01*
X96484Y347028D01*
X96713Y347167D01*
X96891Y347332D01*
X97018Y347523D01*
X97094Y347739D01*
X97119Y347980D01*
Y342900D01*
D02*
G37*
G36*
X324114Y345615D02*
X324190Y344752D01*
X324317Y343990D01*
X324495Y343329D01*
X324723Y342771D01*
X325003Y342313D01*
X325333Y341958D01*
X325714Y341704D01*
X326146Y341551D01*
X326628Y341501D01*
X318373D01*
X318494Y341551D01*
X318602Y341704D01*
X318697Y341958D01*
X318780Y342313D01*
X318850Y342771D01*
X318951Y343990D01*
X319008Y346581D01*
X324088D01*
X324114Y345615D01*
D02*
G37*
G36*
X331918Y337337D02*
X332070Y336906D01*
X332324Y336525D01*
X332680Y336194D01*
X333137Y335915D01*
X333696Y335686D01*
X334356Y335509D01*
X334891Y335420D01*
X335084Y335451D01*
X335635Y335585D01*
X336158Y335756D01*
X336654Y335966D01*
X337122Y336213D01*
X337564Y336499D01*
X337978Y336823D01*
X338365Y337185D01*
Y328295D01*
X337978Y328657D01*
X337564Y328981D01*
X337122Y329267D01*
X336654Y329514D01*
X336158Y329724D01*
X335635Y329895D01*
X335084Y330028D01*
X334891Y330061D01*
X334356Y329971D01*
X333696Y329794D01*
X333137Y329565D01*
X332680Y329286D01*
X332324Y328955D01*
X332070Y328574D01*
X331918Y328143D01*
X331867Y327660D01*
Y337820D01*
X331918Y337337D01*
D02*
G37*
G36*
X430590Y314960D02*
X430564Y315201D01*
X430488Y315417D01*
X430361Y315608D01*
X430183Y315773D01*
X429955Y315912D01*
X429675Y316027D01*
X429345Y316116D01*
X428964Y316179D01*
X428532Y316217D01*
X428050Y316230D01*
Y318770D01*
X428532Y318783D01*
X428964Y318821D01*
X429345Y318884D01*
X429675Y318973D01*
X429955Y319088D01*
X430183Y319227D01*
X430361Y319392D01*
X430488Y319583D01*
X430564Y319799D01*
X430590Y320040D01*
Y314960D01*
D02*
G37*
G36*
X415926Y319799D02*
X416002Y319583D01*
X416129Y319392D01*
X416307Y319227D01*
X416535Y319088D01*
X416815Y318973D01*
X417145Y318884D01*
X417526Y318821D01*
X417958Y318783D01*
X418441Y318770D01*
Y316230D01*
X417958Y316217D01*
X417526Y316179D01*
X417145Y316116D01*
X416815Y316027D01*
X416535Y315912D01*
X416307Y315773D01*
X416129Y315608D01*
X416002Y315417D01*
X415926Y315201D01*
X415900Y314960D01*
Y320040D01*
X415926Y319799D01*
D02*
G37*
G36*
X396899Y314960D02*
X396874Y315201D01*
X396798Y315417D01*
X396671Y315608D01*
X396493Y315773D01*
X396264Y315912D01*
X395985Y316027D01*
X395655Y316116D01*
X395274Y316179D01*
X394842Y316217D01*
X394360Y316230D01*
Y318770D01*
X394842Y318783D01*
X395274Y318821D01*
X395655Y318884D01*
X395985Y318973D01*
X396264Y319088D01*
X396493Y319227D01*
X396671Y319392D01*
X396798Y319583D01*
X396874Y319799D01*
X396899Y320040D01*
Y314960D01*
D02*
G37*
G36*
X506005Y313055D02*
X505618Y313417D01*
X505204Y313741D01*
X504762Y314027D01*
X504294Y314274D01*
X503798Y314484D01*
X503275Y314655D01*
X502724Y314788D01*
X502147Y314884D01*
X501542Y314941D01*
X500910Y314960D01*
Y320040D01*
X501542Y320059D01*
X502147Y320116D01*
X502724Y320211D01*
X503275Y320345D01*
X503798Y320516D01*
X504294Y320726D01*
X504762Y320974D01*
X505204Y321259D01*
X505618Y321583D01*
X506005Y321945D01*
Y313055D01*
D02*
G37*
G36*
X473701Y322097D02*
X473853Y321666D01*
X474107Y321285D01*
X474463Y320954D01*
X474920Y320675D01*
X475479Y320446D01*
X476139Y320269D01*
X476901Y320142D01*
X477765Y320065D01*
X478730Y320040D01*
Y314960D01*
X477765Y314935D01*
X476901Y314858D01*
X476139Y314731D01*
X475479Y314554D01*
X474920Y314325D01*
X474463Y314046D01*
X474107Y313715D01*
X473853Y313334D01*
X473701Y312903D01*
X473650Y312420D01*
Y322580D01*
X473701Y322097D01*
D02*
G37*
G36*
X514623Y312578D02*
X514299Y312164D01*
X514013Y311722D01*
X513766Y311254D01*
X513556Y310758D01*
X513385Y310235D01*
X513251Y309684D01*
X513156Y309107D01*
X513099Y308502D01*
X513080Y307870D01*
X508000D01*
X507981Y308502D01*
X507924Y309107D01*
X507828Y309684D01*
X507695Y310235D01*
X507524Y310758D01*
X507314Y311254D01*
X507066Y311722D01*
X506781Y312164D01*
X506457Y312578D01*
X506095Y312965D01*
X514985D01*
X514623Y312578D01*
D02*
G37*
G36*
X406159Y309982D02*
X405943Y309906D01*
X405752Y309779D01*
X405587Y309601D01*
X405448Y309372D01*
X405333Y309093D01*
X405244Y308763D01*
X405181Y308382D01*
X405143Y307950D01*
X405130Y307467D01*
X402590D01*
X402577Y307950D01*
X402539Y308382D01*
X402476Y308763D01*
X402387Y309093D01*
X402272Y309372D01*
X402133Y309601D01*
X401968Y309779D01*
X401777Y309906D01*
X401561Y309982D01*
X401320Y310007D01*
X406400D01*
X406159Y309982D01*
D02*
G37*
G36*
X100211Y304666D02*
X99255Y303543D01*
X98866Y302999D01*
X98537Y302467D01*
X98268Y301948D01*
X98059Y301440D01*
X97910Y300945D01*
X97820Y300461D01*
X97790Y299990D01*
X95250D01*
X95220Y300461D01*
X95130Y300945D01*
X94981Y301440D01*
X94772Y301948D01*
X94503Y302467D01*
X94174Y302999D01*
X93785Y303543D01*
X93337Y304098D01*
X92261Y305247D01*
X100779D01*
X100211Y304666D01*
D02*
G37*
G36*
X513105Y301235D02*
X513182Y300372D01*
X513309Y299610D01*
X513486Y298949D01*
X513715Y298391D01*
X513994Y297933D01*
X514325Y297578D01*
X514706Y297324D01*
X515137Y297171D01*
X515620Y297121D01*
X506859D01*
X507076Y297171D01*
X507270Y297324D01*
X507441Y297578D01*
X507589Y297933D01*
X507715Y298391D01*
X507817Y298949D01*
X507897Y299610D01*
X507989Y301235D01*
X508000Y302201D01*
X513080D01*
X513105Y301235D01*
D02*
G37*
G36*
X506859Y284887D02*
X506809Y285369D01*
X506656Y285801D01*
X506402Y286182D01*
X506047Y286512D01*
X505589Y286792D01*
X505031Y287020D01*
X504370Y287198D01*
X504294Y287211D01*
X504219Y287198D01*
X503558Y287020D01*
X502999Y286792D01*
X502542Y286512D01*
X502187Y286182D01*
X501933Y285801D01*
X501780Y285369D01*
X501730Y284887D01*
Y295047D01*
X501780Y294564D01*
X501933Y294132D01*
X502187Y293751D01*
X502542Y293421D01*
X502999Y293142D01*
X503558Y292913D01*
X504219Y292735D01*
X504294Y292723D01*
X504370Y292735D01*
X505031Y292913D01*
X505589Y293142D01*
X506047Y293421D01*
X506402Y293751D01*
X506656Y294132D01*
X506809Y294564D01*
X506859Y295047D01*
Y284887D01*
D02*
G37*
G36*
X351698Y355043D02*
X352142Y355034D01*
X352488Y355011D01*
X352716Y354983D01*
Y347688D01*
X368845D01*
X368979Y347609D01*
X369097Y347639D01*
X369210Y347593D01*
X369439Y347688D01*
X370764D01*
Y348479D01*
X371360Y348535D01*
X371782Y348543D01*
X371943Y348613D01*
X378878D01*
X383231Y344260D01*
Y320040D01*
X383231Y320040D01*
X383448Y318950D01*
X384066Y318026D01*
X386606Y315486D01*
X386606Y315486D01*
X387530Y314868D01*
X388620Y314651D01*
X394158D01*
X394316Y314581D01*
X394748Y314570D01*
X395066Y314542D01*
X395304Y314502D01*
X395345Y314491D01*
Y308453D01*
X400851D01*
X400862Y308412D01*
X400902Y308174D01*
X400930Y307856D01*
X400941Y307424D01*
X401011Y307266D01*
Y300900D01*
X392956Y292844D01*
X392338Y291920D01*
X392121Y290830D01*
X392121Y290830D01*
Y271031D01*
X392051Y270873D01*
X392040Y270441D01*
X392012Y270123D01*
X391972Y269885D01*
X391961Y269844D01*
X389946D01*
Y248213D01*
X389946Y247796D01*
X389554Y247364D01*
X388466D01*
X387294Y248725D01*
Y269844D01*
X385279D01*
X385268Y269885D01*
X385228Y270123D01*
X385200Y270441D01*
X385189Y270873D01*
X385119Y271031D01*
Y273050D01*
X385119Y273050D01*
X384902Y274140D01*
X384284Y275064D01*
X377934Y281414D01*
X377010Y282032D01*
X375920Y282249D01*
X375920Y282249D01*
X350130D01*
X349972Y282319D01*
X349540Y282330D01*
X349222Y282358D01*
X348984Y282398D01*
X348943Y282409D01*
Y290274D01*
X356623D01*
X356623Y290274D01*
X357713Y290491D01*
X358637Y291108D01*
X362694Y295166D01*
X362694Y295166D01*
X363312Y296090D01*
X363529Y297180D01*
Y330200D01*
X363529Y330200D01*
X363312Y331290D01*
X362694Y332214D01*
X362694Y332214D01*
X348289Y346620D01*
Y354420D01*
X348982Y355113D01*
X351537D01*
X351698Y355043D01*
D02*
G37*
G36*
X483791Y296530D02*
Y288940D01*
X483740Y289423D01*
X483587Y289854D01*
X483333Y290235D01*
X482978Y290566D01*
X482520Y290845D01*
X481962Y291074D01*
X481301Y291251D01*
X480539Y291378D01*
X479676Y291455D01*
X478711Y291480D01*
Y296560D01*
X483791Y296530D01*
D02*
G37*
G36*
X342194Y298284D02*
X341978Y298208D01*
X341788Y298081D01*
X341623Y297903D01*
X341483Y297675D01*
X341369Y297395D01*
X341280Y297065D01*
X341216Y296684D01*
X341194Y296432D01*
X341267Y296019D01*
X341394Y295637D01*
X341572Y295307D01*
X341801Y295028D01*
X342080Y294799D01*
X342410Y294622D01*
X342791Y294494D01*
X343223Y294418D01*
X343706Y294393D01*
Y291853D01*
X343223Y291828D01*
X342791Y291751D01*
X342410Y291624D01*
X342080Y291446D01*
X341801Y291218D01*
X341572Y290938D01*
X341394Y290608D01*
X341267Y290227D01*
X341267Y290224D01*
X341280Y290145D01*
X341369Y289815D01*
X341483Y289536D01*
X341623Y289307D01*
X341788Y289129D01*
X341978Y289002D01*
X342194Y288926D01*
X342436Y288901D01*
X337356D01*
X337597Y288926D01*
X337813Y289002D01*
X338003Y289129D01*
X338168Y289307D01*
X338308Y289536D01*
X338422Y289815D01*
X338511Y290145D01*
X338575Y290526D01*
X338613Y290958D01*
X338626Y291441D01*
X339747D01*
X338626Y293123D01*
X340390Y295770D01*
X338626D01*
X338613Y296252D01*
X338575Y296684D01*
X338511Y297065D01*
X338422Y297395D01*
X338308Y297675D01*
X338168Y297903D01*
X338003Y298081D01*
X337813Y298208D01*
X337597Y298284D01*
X337356Y298310D01*
X342436D01*
X342194Y298284D01*
D02*
G37*
G36*
X347414Y281699D02*
X347490Y281483D01*
X347617Y281292D01*
X347795Y281127D01*
X348023Y280987D01*
X348303Y280873D01*
X348633Y280784D01*
X349014Y280721D01*
X349446Y280683D01*
X349928Y280670D01*
Y278130D01*
X349446Y278117D01*
X349014Y278079D01*
X348633Y278016D01*
X348303Y277927D01*
X348023Y277812D01*
X347795Y277673D01*
X347617Y277508D01*
X347490Y277317D01*
X347414Y277101D01*
X347388Y276860D01*
Y281940D01*
X347414Y281699D01*
D02*
G37*
G36*
X456123Y276721D02*
X455546Y277102D01*
X454398Y277743D01*
X453827Y278004D01*
X453259Y278225D01*
X452693Y278405D01*
X452130Y278545D01*
X451569Y278646D01*
X451010Y278706D01*
X450453Y278726D01*
X450385Y281266D01*
X450846Y281294D01*
X451279Y281378D01*
X451685Y281519D01*
X452064Y281715D01*
X452415Y281968D01*
X452739Y282276D01*
X453035Y282641D01*
X453304Y283062D01*
X453545Y283539D01*
X453759Y284072D01*
X456123Y276721D01*
D02*
G37*
G36*
X436112Y277173D02*
X435161Y275854D01*
X434775Y275235D01*
X434448Y274641D01*
X434180Y274075D01*
X433972Y273535D01*
X433824Y273021D01*
X433735Y272533D01*
X433705Y272073D01*
X431165Y271812D01*
X431132Y272314D01*
X431032Y272819D01*
X430865Y273328D01*
X430631Y273840D01*
X430331Y274356D01*
X429965Y274874D01*
X429531Y275397D01*
X429031Y275922D01*
X428464Y276451D01*
X427831Y276983D01*
X436676Y277872D01*
X436112Y277173D01*
D02*
G37*
G36*
X447053Y270347D02*
X447091Y269915D01*
X447154Y269534D01*
X447243Y269204D01*
X447357Y268925D01*
X447497Y268696D01*
X447662Y268518D01*
X447853Y268391D01*
X448069Y268315D01*
X448310Y268290D01*
X443230D01*
X443471Y268315D01*
X443687Y268391D01*
X443878Y268518D01*
X444043Y268696D01*
X444183Y268925D01*
X444297Y269204D01*
X444386Y269534D01*
X444449Y269915D01*
X444487Y270347D01*
X444500Y270830D01*
X447040D01*
X447053Y270347D01*
D02*
G37*
G36*
X433718D02*
X433756Y269915D01*
X433819Y269534D01*
X433908Y269204D01*
X434022Y268925D01*
X434162Y268696D01*
X434327Y268518D01*
X434518Y268391D01*
X434734Y268315D01*
X434975Y268290D01*
X429895D01*
X430136Y268315D01*
X430352Y268391D01*
X430543Y268518D01*
X430708Y268696D01*
X430848Y268925D01*
X430962Y269204D01*
X431051Y269534D01*
X431114Y269915D01*
X431152Y270347D01*
X431165Y270830D01*
X433705D01*
X433718Y270347D01*
D02*
G37*
G36*
X410219Y272404D02*
X410442Y269559D01*
X410545Y269102D01*
X410666Y268747D01*
X410805Y268493D01*
X410963Y268340D01*
X411139Y268290D01*
X404201D01*
X404377Y268340D01*
X404535Y268493D01*
X404674Y268747D01*
X404795Y269102D01*
X404898Y269559D01*
X404981Y270118D01*
X405093Y271541D01*
X405130Y273370D01*
X410210D01*
X410219Y272404D01*
D02*
G37*
G36*
X396253Y270347D02*
X396291Y269915D01*
X396354Y269534D01*
X396443Y269204D01*
X396558Y268925D01*
X396697Y268696D01*
X396862Y268518D01*
X397053Y268391D01*
X397269Y268315D01*
X397510Y268290D01*
X392430D01*
X392671Y268315D01*
X392887Y268391D01*
X393078Y268518D01*
X393243Y268696D01*
X393382Y268925D01*
X393497Y269204D01*
X393586Y269534D01*
X393649Y269915D01*
X393687Y270347D01*
X393700Y270830D01*
X396240D01*
X396253Y270347D01*
D02*
G37*
G36*
X383553D02*
X383591Y269915D01*
X383654Y269534D01*
X383743Y269204D01*
X383857Y268925D01*
X383997Y268696D01*
X384162Y268518D01*
X384353Y268391D01*
X384569Y268315D01*
X384810Y268290D01*
X379730D01*
X379971Y268315D01*
X380187Y268391D01*
X380378Y268518D01*
X380543Y268696D01*
X380682Y268925D01*
X380797Y269204D01*
X380886Y269534D01*
X380949Y269915D01*
X380987Y270347D01*
X381000Y270830D01*
X383540D01*
X383553Y270347D01*
D02*
G37*
G36*
X422669Y249325D02*
X422453Y249249D01*
X422262Y249122D01*
X422097Y248944D01*
X421958Y248715D01*
X421843Y248436D01*
X421754Y248106D01*
X421691Y247725D01*
X421653Y247293D01*
X421640Y246810D01*
X419100D01*
X419087Y247293D01*
X419049Y247725D01*
X418986Y248106D01*
X418897Y248436D01*
X418783Y248715D01*
X418643Y248944D01*
X418478Y249122D01*
X418287Y249249D01*
X418071Y249325D01*
X417830Y249350D01*
X422910D01*
X422669Y249325D01*
D02*
G37*
G36*
X393770Y237522D02*
X394957Y236506D01*
X395528Y236093D01*
X396085Y235744D01*
X396628Y235458D01*
X397155Y235236D01*
X397669Y235077D01*
X398167Y234982D01*
X398652Y234950D01*
Y232410D01*
X398167Y232378D01*
X397669Y232283D01*
X397155Y232124D01*
X396628Y231902D01*
X396085Y231616D01*
X395528Y231267D01*
X394957Y230854D01*
X394371Y230378D01*
X393155Y229235D01*
Y238125D01*
X393770Y237522D01*
D02*
G37*
G36*
X363290D02*
X364477Y236506D01*
X365048Y236093D01*
X365605Y235744D01*
X366147Y235458D01*
X366675Y235236D01*
X367189Y235077D01*
X367687Y234982D01*
X368172Y234950D01*
Y232410D01*
X367687Y232378D01*
X367189Y232283D01*
X366675Y232124D01*
X366147Y231902D01*
X365605Y231616D01*
X365048Y231267D01*
X364477Y230854D01*
X363891Y230378D01*
X362675Y229235D01*
Y238125D01*
X363290Y237522D01*
D02*
G37*
G36*
X341662Y228530D02*
X340646Y227343D01*
X340233Y226772D01*
X339884Y226215D01*
X339598Y225672D01*
X339376Y225145D01*
X339217Y224631D01*
X339122Y224132D01*
X339090Y223648D01*
X336550D01*
X336518Y224132D01*
X336423Y224631D01*
X336264Y225145D01*
X336042Y225672D01*
X335756Y226215D01*
X335407Y226772D01*
X334994Y227343D01*
X334518Y227929D01*
X333375Y229145D01*
X342265D01*
X341662Y228530D01*
D02*
G37*
G36*
X398012Y203513D02*
X397061Y202194D01*
X396675Y201575D01*
X396348Y200982D01*
X396080Y200415D01*
X395872Y199874D01*
X395724Y199361D01*
X395635Y198873D01*
X395605Y198412D01*
X393065Y198152D01*
X393032Y198654D01*
X392932Y199159D01*
X392765Y199668D01*
X392532Y200180D01*
X392231Y200695D01*
X391865Y201214D01*
X391431Y201737D01*
X390931Y202262D01*
X390364Y202791D01*
X389731Y203323D01*
X398576Y204212D01*
X398012Y203513D01*
D02*
G37*
G36*
X448812Y193353D02*
X447861Y192034D01*
X447475Y191415D01*
X447148Y190821D01*
X446880Y190255D01*
X446672Y189715D01*
X446524Y189201D01*
X446435Y188713D01*
X446405Y188253D01*
X443865Y187992D01*
X443832Y188494D01*
X443732Y188999D01*
X443565Y189508D01*
X443331Y190020D01*
X443031Y190536D01*
X442665Y191054D01*
X442231Y191577D01*
X441731Y192102D01*
X441164Y192631D01*
X440531Y193163D01*
X449376Y194052D01*
X448812Y193353D01*
D02*
G37*
G36*
X410712Y183193D02*
X409761Y181874D01*
X409375Y181255D01*
X409048Y180662D01*
X408780Y180095D01*
X408572Y179555D01*
X408424Y179041D01*
X408335Y178553D01*
X408305Y178092D01*
X405765Y177832D01*
X405732Y178334D01*
X405632Y178839D01*
X405465Y179348D01*
X405232Y179860D01*
X404931Y180375D01*
X404565Y180894D01*
X404131Y181417D01*
X403631Y181942D01*
X403064Y182471D01*
X402431Y183003D01*
X411276Y183892D01*
X410712Y183193D01*
D02*
G37*
G36*
X446418Y174347D02*
X446456Y173915D01*
X446519Y173534D01*
X446608Y173204D01*
X446722Y172924D01*
X446862Y172696D01*
X447027Y172518D01*
X447218Y172391D01*
X447434Y172315D01*
X447675Y172290D01*
X442595D01*
X442836Y172315D01*
X443052Y172391D01*
X443243Y172518D01*
X443408Y172696D01*
X443548Y172924D01*
X443662Y173204D01*
X443751Y173534D01*
X443814Y173915D01*
X443852Y174347D01*
X443865Y174830D01*
X446405D01*
X446418Y174347D01*
D02*
G37*
G36*
X434353D02*
X434391Y173915D01*
X434454Y173534D01*
X434543Y173204D01*
X434658Y172924D01*
X434797Y172696D01*
X434962Y172518D01*
X435153Y172391D01*
X435369Y172315D01*
X435610Y172290D01*
X430530D01*
X430771Y172315D01*
X430987Y172391D01*
X431178Y172518D01*
X431343Y172696D01*
X431483Y172924D01*
X431597Y173204D01*
X431686Y173534D01*
X431749Y173915D01*
X431787Y174347D01*
X431800Y174830D01*
X434340D01*
X434353Y174347D01*
D02*
G37*
G36*
X408318D02*
X408356Y173915D01*
X408419Y173534D01*
X408508Y173204D01*
X408623Y172924D01*
X408762Y172696D01*
X408927Y172518D01*
X409118Y172391D01*
X409334Y172315D01*
X409575Y172290D01*
X404495D01*
X404736Y172315D01*
X404952Y172391D01*
X405143Y172518D01*
X405308Y172696D01*
X405448Y172924D01*
X405562Y173204D01*
X405651Y173534D01*
X405714Y173915D01*
X405752Y174347D01*
X405765Y174830D01*
X408305D01*
X408318Y174347D01*
D02*
G37*
G36*
X395618D02*
X395656Y173915D01*
X395719Y173534D01*
X395808Y173204D01*
X395923Y172924D01*
X396062Y172696D01*
X396227Y172518D01*
X396418Y172391D01*
X396634Y172315D01*
X396875Y172290D01*
X391795D01*
X392036Y172315D01*
X392252Y172391D01*
X392443Y172518D01*
X392608Y172696D01*
X392747Y172924D01*
X392862Y173204D01*
X392951Y173534D01*
X393014Y173915D01*
X393052Y174347D01*
X393065Y174830D01*
X395605D01*
X395618Y174347D01*
D02*
G37*
G36*
X383553D02*
X383591Y173915D01*
X383654Y173534D01*
X383743Y173204D01*
X383857Y172924D01*
X383997Y172696D01*
X384162Y172518D01*
X384353Y172391D01*
X384569Y172315D01*
X384810Y172290D01*
X379730D01*
X379971Y172315D01*
X380187Y172391D01*
X380378Y172518D01*
X380543Y172696D01*
X380682Y172924D01*
X380797Y173204D01*
X380886Y173534D01*
X380949Y173915D01*
X380987Y174347D01*
X381000Y174830D01*
X383540D01*
X383553Y174347D01*
D02*
G37*
G36*
X370853D02*
X370891Y173915D01*
X370954Y173534D01*
X371043Y173204D01*
X371157Y172924D01*
X371297Y172696D01*
X371462Y172518D01*
X371653Y172391D01*
X371869Y172315D01*
X372110Y172290D01*
X367030D01*
X367271Y172315D01*
X367487Y172391D01*
X367678Y172518D01*
X367843Y172696D01*
X367982Y172924D01*
X368097Y173204D01*
X368186Y173534D01*
X368249Y173915D01*
X368287Y174347D01*
X368300Y174830D01*
X370840D01*
X370853Y174347D01*
D02*
G37*
%LPC*%
G36*
X168790Y436812D02*
X162020D01*
Y428542D01*
X168790D01*
Y436812D01*
D02*
G37*
%LPD*%
G36*
X648936Y469371D02*
X649012Y469155D01*
X649139Y468964D01*
X649317Y468799D01*
X649545Y468660D01*
X649825Y468545D01*
X650155Y468456D01*
X650536Y468393D01*
X650968Y468355D01*
X651450Y468342D01*
Y465802D01*
X650968Y465789D01*
X650536Y465751D01*
X650155Y465688D01*
X649825Y465599D01*
X649545Y465485D01*
X649317Y465345D01*
X649139Y465180D01*
X649012Y464989D01*
X648936Y464773D01*
X648910Y464532D01*
Y469612D01*
X648936Y469371D01*
D02*
G37*
G36*
X675096Y461559D02*
X674279Y462366D01*
X672731Y463723D01*
X672000Y464275D01*
X671299Y464741D01*
X670626Y465123D01*
X669982Y465420D01*
X669367Y465632D01*
X668780Y465760D01*
X668223Y465802D01*
Y468342D01*
X668780Y468384D01*
X669367Y468512D01*
X669982Y468724D01*
X670626Y469021D01*
X671299Y469403D01*
X672000Y469869D01*
X672731Y470421D01*
X674279Y471778D01*
X675096Y472584D01*
Y461559D01*
D02*
G37*
G36*
X683130Y459575D02*
X682851Y459463D01*
X682602Y459316D01*
X682383Y459134D01*
X682192Y458917D01*
X682031Y458664D01*
X681899Y458377D01*
X681797Y458054D01*
X681723Y457696D01*
X681680Y457303D01*
X681665Y456875D01*
X679125D01*
X679111Y457324D01*
X679068Y457738D01*
X678997Y458118D01*
X678897Y458462D01*
X678769Y458772D01*
X678612Y459047D01*
X678427Y459287D01*
X678213Y459493D01*
X677971Y459663D01*
X677700Y459799D01*
X683130Y459575D01*
D02*
G37*
G36*
X546111Y398058D02*
X546144Y397650D01*
X546199Y397256D01*
X546277Y396876D01*
X546376Y396510D01*
X546498Y396159D01*
X546642Y395821D01*
X546808Y395498D01*
X546996Y395189D01*
X547206Y394893D01*
X542454D01*
X542664Y395189D01*
X542853Y395498D01*
X543018Y395821D01*
X543162Y396159D01*
X543284Y396510D01*
X543383Y396876D01*
X543461Y397256D01*
X543516Y397650D01*
X543549Y398058D01*
X543560Y398479D01*
X546100D01*
X546111Y398058D01*
D02*
G37*
G36*
X546804Y437127D02*
X546562Y436796D01*
X546156Y436135D01*
X545991Y435805D01*
X545851Y435476D01*
X545737Y435146D01*
X545648Y434817D01*
X545584Y434488D01*
X545546Y434160D01*
X545534Y433832D01*
X542994Y434463D01*
X542988Y434942D01*
X542907Y436166D01*
X542859Y436502D01*
X542729Y437068D01*
X542649Y437298D01*
X542557Y437492D01*
X542454Y437650D01*
X546804Y437127D01*
D02*
G37*
G36*
X545534Y428657D02*
X545563Y428200D01*
X545652Y427714D01*
X545799Y427200D01*
X546005Y426659D01*
X546270Y426090D01*
X546594Y425493D01*
X546977Y424868D01*
X547920Y423535D01*
X548480Y422826D01*
X539645Y423811D01*
X540281Y424335D01*
X540850Y424856D01*
X541353Y425375D01*
X541788Y425892D01*
X542156Y426407D01*
X542458Y426919D01*
X542692Y427429D01*
X542860Y427937D01*
X542960Y428443D01*
X542994Y428947D01*
X545534Y428657D01*
D02*
G37*
G36*
X538112Y415549D02*
X537957Y415769D01*
X537770Y415966D01*
X537550Y416140D01*
X537298Y416291D01*
X537014Y416418D01*
X536697Y416522D01*
X536348Y416604D01*
X535966Y416661D01*
X535552Y416696D01*
X535106Y416708D01*
Y419248D01*
X535485Y419261D01*
X535832Y419300D01*
X536147Y419364D01*
X536430Y419455D01*
X536681Y419572D01*
X536899Y419714D01*
X537085Y419883D01*
X537239Y420077D01*
X537361Y420297D01*
X537451Y420544D01*
X538112Y415549D01*
D02*
G37*
G36*
X533411Y398058D02*
X533444Y397650D01*
X533499Y397256D01*
X533577Y396876D01*
X533676Y396510D01*
X533798Y396159D01*
X533942Y395821D01*
X534108Y395498D01*
X534296Y395189D01*
X534506Y394893D01*
X529754D01*
X529964Y395189D01*
X530153Y395498D01*
X530318Y395821D01*
X530462Y396159D01*
X530584Y396510D01*
X530683Y396876D01*
X530760Y397256D01*
X530816Y397650D01*
X530849Y398058D01*
X530860Y398479D01*
X533400D01*
X533411Y398058D01*
D02*
G37*
G36*
X303590Y302260D02*
X303539Y302743D01*
X303387Y303174D01*
X303133Y303555D01*
X302777Y303886D01*
X302320Y304165D01*
X301761Y304394D01*
X301101Y304571D01*
X300339Y304698D01*
X299475Y304775D01*
X298873Y304790D01*
X298558Y304781D01*
X297953Y304724D01*
X297376Y304629D01*
X296825Y304495D01*
X296302Y304324D01*
X295806Y304114D01*
X295338Y303867D01*
X294896Y303581D01*
X294482Y303257D01*
X294095Y302895D01*
Y311785D01*
X294482Y311423D01*
X294896Y311099D01*
X295338Y310814D01*
X295806Y310566D01*
X296302Y310356D01*
X296825Y310185D01*
X297376Y310051D01*
X297953Y309956D01*
X298558Y309899D01*
X298873Y309890D01*
X299475Y309905D01*
X300339Y309982D01*
X301101Y310109D01*
X301761Y310286D01*
X302320Y310515D01*
X302777Y310794D01*
X303133Y311125D01*
X303387Y311506D01*
X303539Y311937D01*
X303590Y312420D01*
Y302260D01*
D02*
G37*
G36*
X227211Y304666D02*
X226255Y303543D01*
X225866Y302999D01*
X225537Y302467D01*
X225268Y301948D01*
X225059Y301440D01*
X224910Y300945D01*
X224820Y300461D01*
X224790Y299990D01*
X222250D01*
X222220Y300461D01*
X222130Y300945D01*
X221981Y301440D01*
X221772Y301948D01*
X221503Y302467D01*
X221174Y302999D01*
X220785Y303543D01*
X220337Y304098D01*
X219261Y305247D01*
X227780D01*
X227211Y304666D01*
D02*
G37*
G36*
X224822Y273708D02*
X224917Y273209D01*
X225076Y272695D01*
X225298Y272167D01*
X225584Y271625D01*
X225933Y271068D01*
X226346Y270497D01*
X226822Y269911D01*
X227965Y268695D01*
X219075D01*
X219678Y269310D01*
X220694Y270497D01*
X221107Y271068D01*
X221456Y271625D01*
X221742Y272167D01*
X221964Y272695D01*
X222123Y273209D01*
X222218Y273708D01*
X222250Y274192D01*
X224790D01*
X224822Y273708D01*
D02*
G37*
G36*
X497357Y256540D02*
X496926Y256387D01*
X496545Y256133D01*
X496214Y255778D01*
X495935Y255320D01*
X495706Y254762D01*
X495529Y254101D01*
X495515Y254017D01*
X495605Y253645D01*
X495776Y253122D01*
X495986Y252626D01*
X496233Y252158D01*
X496519Y251716D01*
X496843Y251302D01*
X497205Y250915D01*
X488315D01*
X488677Y251302D01*
X489001Y251716D01*
X489286Y252158D01*
X489534Y252626D01*
X489744Y253122D01*
X489915Y253645D01*
X490005Y254017D01*
X489991Y254101D01*
X489814Y254762D01*
X489585Y255320D01*
X489306Y255778D01*
X488975Y256133D01*
X488594Y256387D01*
X488163Y256540D01*
X487680Y256590D01*
X497840D01*
X497357Y256540D01*
D02*
G37*
G36*
X98819Y201912D02*
X98603Y201836D01*
X98412Y201709D01*
X98247Y201531D01*
X98108Y201303D01*
X97993Y201023D01*
X97904Y200693D01*
X97841Y200312D01*
X97803Y199880D01*
X97790Y199398D01*
X95250D01*
X95237Y199880D01*
X95199Y200312D01*
X95136Y200693D01*
X95047Y201023D01*
X94932Y201303D01*
X94793Y201531D01*
X94628Y201709D01*
X94437Y201836D01*
X94221Y201912D01*
X93980Y201938D01*
X99060D01*
X98819Y201912D01*
D02*
G37*
G36*
X151011Y203066D02*
X150055Y201943D01*
X149666Y201399D01*
X149337Y200867D01*
X149068Y200348D01*
X148859Y199840D01*
X148710Y199345D01*
X148620Y198861D01*
X148590Y198390D01*
X146050D01*
X146020Y198861D01*
X145930Y199345D01*
X145781Y199840D01*
X145572Y200348D01*
X145303Y200867D01*
X144974Y201399D01*
X144585Y201943D01*
X144137Y202498D01*
X143061Y203647D01*
X151580D01*
X151011Y203066D01*
D02*
G37*
G36*
X308642Y184807D02*
X308737Y184309D01*
X308896Y183795D01*
X309118Y183267D01*
X309404Y182725D01*
X309753Y182168D01*
X310166Y181597D01*
X310642Y181011D01*
X311785Y179795D01*
X302895D01*
X303498Y180410D01*
X304514Y181597D01*
X304927Y182168D01*
X305276Y182725D01*
X305562Y183267D01*
X305784Y183795D01*
X305943Y184309D01*
X306038Y184807D01*
X306070Y185292D01*
X308610D01*
X308642Y184807D01*
D02*
G37*
G36*
X422669Y153325D02*
X422453Y153249D01*
X422262Y153122D01*
X422097Y152944D01*
X421958Y152716D01*
X421843Y152436D01*
X421754Y152106D01*
X421691Y151725D01*
X421653Y151293D01*
X421640Y150810D01*
X419100D01*
X419087Y151293D01*
X419049Y151725D01*
X418986Y152106D01*
X418897Y152436D01*
X418783Y152716D01*
X418643Y152944D01*
X418478Y153122D01*
X418287Y153249D01*
X418071Y153325D01*
X417830Y153350D01*
X422910D01*
X422669Y153325D01*
D02*
G37*
G36*
X288717Y146740D02*
X288286Y146587D01*
X287905Y146333D01*
X287574Y145978D01*
X287295Y145520D01*
X287066Y144962D01*
X286889Y144301D01*
X286762Y143539D01*
X286685Y142676D01*
X286660Y141711D01*
X281580D01*
X281555Y142676D01*
X281478Y143539D01*
X281351Y144301D01*
X281174Y144962D01*
X280945Y145520D01*
X280666Y145978D01*
X280335Y146333D01*
X279954Y146587D01*
X279523Y146740D01*
X279040Y146791D01*
X289200D01*
X288717Y146740D01*
D02*
G37*
G36*
X156637D02*
X156206Y146587D01*
X155825Y146333D01*
X155494Y145978D01*
X155215Y145520D01*
X154986Y144962D01*
X154809Y144301D01*
X154682Y143539D01*
X154605Y142676D01*
X154580Y141711D01*
X149500D01*
X149475Y142676D01*
X149398Y143539D01*
X149271Y144301D01*
X149094Y144962D01*
X148865Y145520D01*
X148586Y145978D01*
X148255Y146333D01*
X147874Y146587D01*
X147443Y146740D01*
X146960Y146791D01*
X157120D01*
X156637Y146740D01*
D02*
G37*
G36*
X286685Y80844D02*
X286762Y79981D01*
X286889Y79219D01*
X287066Y78558D01*
X287295Y78000D01*
X287574Y77542D01*
X287905Y77187D01*
X288286Y76933D01*
X288717Y76780D01*
X289200Y76729D01*
X279040D01*
X279523Y76780D01*
X279954Y76933D01*
X280335Y77187D01*
X280666Y77542D01*
X280945Y78000D01*
X281174Y78558D01*
X281351Y79219D01*
X281478Y79981D01*
X281555Y80844D01*
X281580Y81810D01*
X286660D01*
X286685Y80844D01*
D02*
G37*
G36*
X154605D02*
X154682Y79981D01*
X154809Y79219D01*
X154986Y78558D01*
X155215Y78000D01*
X155494Y77542D01*
X155825Y77187D01*
X156206Y76933D01*
X156637Y76780D01*
X157120Y76729D01*
X146960D01*
X147443Y76780D01*
X147874Y76933D01*
X148255Y77187D01*
X148586Y77542D01*
X148865Y78000D01*
X149094Y78558D01*
X149271Y79219D01*
X149398Y79981D01*
X149475Y80844D01*
X149500Y81810D01*
X154580D01*
X154605Y80844D01*
D02*
G37*
G36*
X288717Y55740D02*
X288286Y55587D01*
X287905Y55333D01*
X287574Y54978D01*
X287295Y54521D01*
X287066Y53962D01*
X286889Y53301D01*
X286762Y52539D01*
X286685Y51676D01*
X286660Y50711D01*
X281580D01*
X281555Y51676D01*
X281478Y52539D01*
X281351Y53301D01*
X281174Y53962D01*
X280945Y54521D01*
X280666Y54978D01*
X280335Y55333D01*
X279954Y55587D01*
X279523Y55740D01*
X279040Y55791D01*
X289200D01*
X288717Y55740D01*
D02*
G37*
G36*
X156637D02*
X156206Y55587D01*
X155825Y55333D01*
X155494Y54978D01*
X155215Y54521D01*
X154986Y53962D01*
X154809Y53301D01*
X154682Y52539D01*
X154605Y51676D01*
X154580Y50711D01*
X149500D01*
X149475Y51676D01*
X149398Y52539D01*
X149271Y53301D01*
X149094Y53962D01*
X148865Y54521D01*
X148586Y54978D01*
X148255Y55333D01*
X147874Y55587D01*
X147443Y55740D01*
X146960Y55791D01*
X157120D01*
X156637Y55740D01*
D02*
G37*
G36*
X290293Y41010D02*
X291056Y40399D01*
X291849Y39860D01*
X292672Y39393D01*
X293524Y38998D01*
X294406Y38675D01*
X295318Y38423D01*
X296260Y38244D01*
X297231Y38136D01*
X298232Y38100D01*
X292100Y33020D01*
X280888Y38100D01*
X281817Y38136D01*
X282573Y38244D01*
X283155Y38423D01*
X283564Y38675D01*
X283800Y38998D01*
X283862Y39393D01*
X283751Y39860D01*
X283466Y40399D01*
X283008Y41010D01*
X282376Y41692D01*
X289560D01*
X290293Y41010D01*
D02*
G37*
G36*
X343445Y31115D02*
X343058Y31477D01*
X342644Y31801D01*
X342202Y32087D01*
X341734Y32334D01*
X341238Y32544D01*
X340715Y32715D01*
X340164Y32848D01*
X339587Y32944D01*
X338982Y33001D01*
X338350Y33020D01*
Y38100D01*
X338982Y38119D01*
X339587Y38176D01*
X340164Y38271D01*
X340715Y38405D01*
X341238Y38576D01*
X341734Y38786D01*
X342202Y39033D01*
X342644Y39319D01*
X343058Y39643D01*
X343445Y40005D01*
Y31115D01*
D02*
G37*
G36*
X342742Y166643D02*
X343156Y166319D01*
X343598Y166033D01*
X344066Y165786D01*
X344562Y165576D01*
X345085Y165405D01*
X345636Y165271D01*
X346213Y165176D01*
X346818Y165119D01*
X347450Y165100D01*
Y160020D01*
X346818Y160001D01*
X346213Y159944D01*
X345636Y159848D01*
X345085Y159715D01*
X344562Y159544D01*
X344066Y159334D01*
X343598Y159087D01*
X343156Y158801D01*
X342742Y158477D01*
X342355Y158115D01*
Y167005D01*
X342742Y166643D01*
D02*
G37*
G36*
X353400Y157480D02*
X353350Y157963D01*
X353197Y158394D01*
X352943Y158775D01*
X352588Y159106D01*
X352131Y159385D01*
X351572Y159614D01*
X350911Y159791D01*
X350149Y159918D01*
X349286Y159995D01*
X348321Y160020D01*
Y165100D01*
X349286Y165125D01*
X350149Y165202D01*
X350911Y165329D01*
X351572Y165506D01*
X352131Y165735D01*
X352588Y166014D01*
X352943Y166345D01*
X353197Y166726D01*
X353350Y167157D01*
X353400Y167640D01*
Y157480D01*
D02*
G37*
G36*
X215866Y157239D02*
X215942Y157023D01*
X216069Y156832D01*
X216247Y156667D01*
X216476Y156528D01*
X216755Y156413D01*
X217085Y156324D01*
X217466Y156261D01*
X217898Y156223D01*
X218381Y156210D01*
Y153670D01*
X217898Y153657D01*
X217466Y153619D01*
X217085Y153556D01*
X216755Y153467D01*
X216476Y153352D01*
X216247Y153213D01*
X216069Y153048D01*
X215942Y152857D01*
X215866Y152641D01*
X215841Y152400D01*
Y157480D01*
X215866Y157239D01*
D02*
G37*
G36*
X241419Y146765D02*
X241203Y146689D01*
X241012Y146562D01*
X240847Y146384D01*
X240707Y146156D01*
X240593Y145876D01*
X240504Y145546D01*
X240441Y145165D01*
X240403Y144733D01*
X240390Y144250D01*
X237850D01*
X237837Y144733D01*
X237799Y145165D01*
X237736Y145546D01*
X237647Y145876D01*
X237533Y146156D01*
X237393Y146384D01*
X237228Y146562D01*
X237037Y146689D01*
X236821Y146765D01*
X236580Y146791D01*
X241660D01*
X241419Y146765D01*
D02*
G37*
G36*
X210579Y146154D02*
X210363Y146078D01*
X210172Y145951D01*
X210007Y145773D01*
X209867Y145544D01*
X209753Y145265D01*
X209664Y144935D01*
X209601Y144554D01*
X209563Y144122D01*
X209550Y143639D01*
X207010D01*
X206997Y144122D01*
X206959Y144554D01*
X206896Y144935D01*
X206807Y145265D01*
X206693Y145544D01*
X206553Y145773D01*
X206388Y145951D01*
X206197Y146078D01*
X205981Y146154D01*
X205740Y146179D01*
X210820D01*
X210579Y146154D01*
D02*
G37*
G36*
X229902Y141628D02*
X229997Y141129D01*
X230156Y140615D01*
X230378Y140087D01*
X230664Y139545D01*
X231013Y138988D01*
X231426Y138417D01*
X231902Y137831D01*
X233045Y136615D01*
X224155D01*
X224758Y137230D01*
X225774Y138417D01*
X226187Y138988D01*
X226536Y139545D01*
X226822Y140087D01*
X227044Y140615D01*
X227203Y141129D01*
X227298Y141628D01*
X227330Y142112D01*
X229870D01*
X229902Y141628D01*
D02*
G37*
G36*
X209563Y137827D02*
X209601Y137395D01*
X209664Y137014D01*
X209753Y136684D01*
X209867Y136404D01*
X210007Y136176D01*
X210172Y135998D01*
X210363Y135871D01*
X210579Y135795D01*
X210820Y135770D01*
X205740D01*
X205981Y135795D01*
X206197Y135871D01*
X206388Y135998D01*
X206553Y136176D01*
X206693Y136404D01*
X206807Y136684D01*
X206896Y137014D01*
X206959Y137395D01*
X206997Y137827D01*
X207010Y138309D01*
X209550D01*
X209563Y137827D01*
D02*
G37*
G36*
X240390Y109220D02*
X237850Y103614D01*
X237832Y104079D01*
X237778Y104457D01*
X237688Y104748D01*
X237563Y104952D01*
X237401Y105070D01*
X237203Y105101D01*
X236970Y105045D01*
X236700Y104903D01*
X236395Y104674D01*
X236054Y104358D01*
Y107950D01*
X236395Y108317D01*
X236700Y108698D01*
X236970Y109095D01*
X237203Y109506D01*
X237401Y109932D01*
X237563Y110373D01*
X237688Y110829D01*
X237778Y111300D01*
X237832Y111785D01*
X237850Y112286D01*
X240390Y109220D01*
D02*
G37*
G36*
X216775Y100849D02*
X216851Y100633D01*
X216978Y100442D01*
X217156Y100277D01*
X217384Y100138D01*
X217664Y100023D01*
X217994Y99934D01*
X218375Y99871D01*
X218807Y99833D01*
X219289Y99820D01*
Y97280D01*
X218807Y97267D01*
X218375Y97229D01*
X217994Y97166D01*
X217664Y97077D01*
X217384Y96962D01*
X217156Y96823D01*
X216978Y96658D01*
X216851Y96467D01*
X216775Y96251D01*
X216749Y96010D01*
Y101090D01*
X216775Y100849D01*
D02*
G37*
G36*
X199811Y96010D02*
X199785Y96251D01*
X199709Y96467D01*
X199582Y96658D01*
X199404Y96823D01*
X199175Y96962D01*
X198896Y97077D01*
X198566Y97166D01*
X198185Y97229D01*
X197753Y97267D01*
X197271Y97280D01*
Y99820D01*
X197753Y99833D01*
X198185Y99871D01*
X198566Y99934D01*
X198896Y100023D01*
X199175Y100138D01*
X199404Y100277D01*
X199582Y100442D01*
X199709Y100633D01*
X199785Y100849D01*
X199811Y101090D01*
Y96010D01*
D02*
G37*
G36*
X189396Y100849D02*
X189472Y100633D01*
X189599Y100442D01*
X189777Y100277D01*
X190005Y100138D01*
X190285Y100023D01*
X190615Y99934D01*
X190996Y99871D01*
X191428Y99833D01*
X191910Y99820D01*
Y97280D01*
X191428Y97267D01*
X190996Y97229D01*
X190615Y97166D01*
X190285Y97077D01*
X190005Y96962D01*
X189777Y96823D01*
X189599Y96658D01*
X189472Y96467D01*
X189396Y96251D01*
X189370Y96010D01*
Y101090D01*
X189396Y100849D01*
D02*
G37*
G36*
X240403Y78787D02*
X240441Y78355D01*
X240504Y77974D01*
X240593Y77644D01*
X240707Y77365D01*
X240847Y77136D01*
X241012Y76958D01*
X241203Y76831D01*
X241419Y76755D01*
X241660Y76729D01*
X236580D01*
X236821Y76755D01*
X237037Y76831D01*
X237228Y76958D01*
X237393Y77136D01*
X237533Y77365D01*
X237647Y77644D01*
X237736Y77974D01*
X237799Y78355D01*
X237837Y78787D01*
X237850Y79269D01*
X240390D01*
X240403Y78787D01*
D02*
G37*
G36*
X460769Y153325D02*
X460553Y153249D01*
X460362Y153122D01*
X460197Y152944D01*
X460057Y152716D01*
X459943Y152436D01*
X459854Y152106D01*
X459791Y151725D01*
X459753Y151293D01*
X459740Y150810D01*
X457200D01*
X457187Y151293D01*
X457149Y151725D01*
X457086Y152106D01*
X456997Y152436D01*
X456883Y152716D01*
X456743Y152944D01*
X456578Y153122D01*
X456387Y153249D01*
X456171Y153325D01*
X455930Y153350D01*
X461010D01*
X460769Y153325D01*
D02*
G37*
G36*
X312490Y141002D02*
X313677Y139986D01*
X314248Y139573D01*
X314805Y139224D01*
X315347Y138938D01*
X315875Y138716D01*
X316389Y138557D01*
X316887Y138462D01*
X317372Y138430D01*
Y135890D01*
X316887Y135858D01*
X316389Y135763D01*
X315875Y135604D01*
X315347Y135382D01*
X314805Y135096D01*
X314248Y134747D01*
X313677Y134334D01*
X313091Y133858D01*
X311875Y132715D01*
Y141605D01*
X312490Y141002D01*
D02*
G37*
G36*
X62262Y218370D02*
X61246Y217183D01*
X60833Y216612D01*
X60484Y216055D01*
X60198Y215513D01*
X59976Y214985D01*
X59817Y214471D01*
X59722Y213972D01*
X59690Y213488D01*
X57150D01*
X57118Y213972D01*
X57023Y214471D01*
X56864Y214985D01*
X56642Y215513D01*
X56356Y216055D01*
X56007Y216612D01*
X55594Y217183D01*
X55118Y217769D01*
X53975Y218985D01*
X62865D01*
X62262Y218370D01*
D02*
G37*
G36*
X68086Y167695D02*
X68445Y167390D01*
X68804Y167121D01*
X69163Y166887D01*
X69523Y166690D01*
X69882Y166528D01*
X70241Y166402D01*
X70600Y166312D01*
X70960Y166259D01*
X71319Y166241D01*
X67727Y162649D01*
X67709Y163008D01*
X67655Y163367D01*
X67565Y163726D01*
X67439Y164085D01*
X67278Y164445D01*
X67080Y164804D01*
X66847Y165163D01*
X66577Y165522D01*
X66272Y165881D01*
X65931Y166241D01*
X67727Y168037D01*
X68086Y167695D01*
D02*
G37*
G36*
X75959Y148694D02*
X75743Y148618D01*
X75552Y148491D01*
X75387Y148313D01*
X75248Y148084D01*
X75133Y147805D01*
X75044Y147475D01*
X74981Y147094D01*
X74943Y146662D01*
X74930Y146179D01*
X72390D01*
X72377Y146662D01*
X72339Y147094D01*
X72276Y147475D01*
X72187Y147805D01*
X72073Y148084D01*
X71933Y148313D01*
X71768Y148491D01*
X71577Y148618D01*
X71361Y148694D01*
X71120Y148719D01*
X76200D01*
X75959Y148694D01*
D02*
G37*
G36*
X74943Y140367D02*
X74981Y139935D01*
X75044Y139554D01*
X75133Y139224D01*
X75248Y138945D01*
X75387Y138716D01*
X75552Y138538D01*
X75743Y138411D01*
X75959Y138335D01*
X76200Y138309D01*
X71120D01*
X71361Y138335D01*
X71577Y138411D01*
X71768Y138538D01*
X71933Y138716D01*
X72073Y138945D01*
X72187Y139224D01*
X72276Y139554D01*
X72339Y139935D01*
X72377Y140367D01*
X72390Y140850D01*
X74930D01*
X74943Y140367D01*
D02*
G37*
G36*
X109339Y146765D02*
X109123Y146689D01*
X108932Y146562D01*
X108767Y146384D01*
X108628Y146156D01*
X108513Y145876D01*
X108424Y145546D01*
X108361Y145165D01*
X108323Y144733D01*
X108310Y144250D01*
X105770D01*
X105757Y144733D01*
X105719Y145165D01*
X105656Y145546D01*
X105567Y145876D01*
X105452Y146156D01*
X105313Y146384D01*
X105148Y146562D01*
X104957Y146689D01*
X104741Y146765D01*
X104500Y146791D01*
X109580D01*
X109339Y146765D01*
D02*
G37*
G36*
X108310Y106680D02*
X105770Y101074D01*
X105752Y101539D01*
X105698Y101917D01*
X105608Y102208D01*
X105483Y102412D01*
X105321Y102530D01*
X105123Y102561D01*
X104890Y102505D01*
X104621Y102363D01*
X104315Y102134D01*
X103974Y101818D01*
Y105410D01*
X104315Y105777D01*
X104621Y106158D01*
X104890Y106555D01*
X105123Y106966D01*
X105321Y107392D01*
X105483Y107833D01*
X105608Y108289D01*
X105698Y108760D01*
X105752Y109246D01*
X105770Y109746D01*
X108310Y106680D01*
D02*
G37*
G36*
X82155Y103389D02*
X82231Y103173D01*
X82358Y102982D01*
X82536Y102817D01*
X82765Y102677D01*
X83044Y102563D01*
X83374Y102474D01*
X83755Y102411D01*
X84187Y102373D01*
X84670Y102360D01*
Y99820D01*
X84187Y99807D01*
X83755Y99769D01*
X83374Y99706D01*
X83044Y99617D01*
X82765Y99502D01*
X82536Y99363D01*
X82358Y99198D01*
X82231Y99007D01*
X82155Y98791D01*
X82129Y98550D01*
Y103630D01*
X82155Y103389D01*
D02*
G37*
G36*
X65191Y98550D02*
X65165Y98791D01*
X65089Y99007D01*
X64962Y99198D01*
X64784Y99363D01*
X64556Y99502D01*
X64276Y99617D01*
X63946Y99706D01*
X63565Y99769D01*
X63133Y99807D01*
X62650Y99820D01*
Y102360D01*
X63133Y102373D01*
X63565Y102411D01*
X63946Y102474D01*
X64276Y102563D01*
X64556Y102677D01*
X64784Y102817D01*
X64962Y102982D01*
X65089Y103173D01*
X65165Y103389D01*
X65191Y103630D01*
Y98550D01*
D02*
G37*
G36*
X52236Y103389D02*
X52312Y103173D01*
X52439Y102982D01*
X52617Y102817D01*
X52845Y102677D01*
X53125Y102563D01*
X53455Y102474D01*
X53836Y102411D01*
X54268Y102373D01*
X54750Y102360D01*
Y99820D01*
X54268Y99807D01*
X53836Y99769D01*
X53455Y99706D01*
X53125Y99617D01*
X52845Y99502D01*
X52617Y99363D01*
X52439Y99198D01*
X52312Y99007D01*
X52236Y98791D01*
X52210Y98550D01*
Y103630D01*
X52236Y103389D01*
D02*
G37*
G36*
X108323Y78787D02*
X108361Y78355D01*
X108424Y77974D01*
X108513Y77644D01*
X108628Y77365D01*
X108767Y77136D01*
X108932Y76958D01*
X109123Y76831D01*
X109339Y76755D01*
X109580Y76729D01*
X104500D01*
X104741Y76755D01*
X104957Y76831D01*
X105148Y76958D01*
X105313Y77136D01*
X105452Y77365D01*
X105567Y77644D01*
X105656Y77974D01*
X105719Y78355D01*
X105757Y78787D01*
X105770Y79269D01*
X108310D01*
X108323Y78787D01*
D02*
G37*
G36*
X671131Y83852D02*
X671080Y84335D01*
X670927Y84766D01*
X670673Y85147D01*
X670318Y85478D01*
X669861Y85757D01*
X669302Y85986D01*
X668641Y86163D01*
X667879Y86290D01*
X667016Y86367D01*
X666050Y86392D01*
Y91472D01*
X667016Y91497D01*
X667879Y91574D01*
X668641Y91701D01*
X669302Y91878D01*
X669861Y92107D01*
X670318Y92386D01*
X670673Y92717D01*
X670927Y93098D01*
X671080Y93529D01*
X671131Y94012D01*
Y83852D01*
D02*
G37*
G36*
X645391Y93529D02*
X645544Y93098D01*
X645798Y92717D01*
X646153Y92386D01*
X646610Y92107D01*
X647169Y91878D01*
X647830Y91701D01*
X648592Y91574D01*
X649455Y91497D01*
X650421Y91472D01*
Y86392D01*
X649455Y86367D01*
X648592Y86290D01*
X647830Y86163D01*
X647169Y85986D01*
X646610Y85757D01*
X646153Y85478D01*
X645798Y85147D01*
X645544Y84766D01*
X645391Y84335D01*
X645340Y83852D01*
Y94012D01*
X645391Y93529D01*
D02*
G37*
G36*
X671131Y43212D02*
X671080Y43695D01*
X670927Y44126D01*
X670673Y44507D01*
X670318Y44838D01*
X669861Y45117D01*
X669302Y45346D01*
X668641Y45523D01*
X667879Y45650D01*
X667016Y45727D01*
X666050Y45752D01*
Y50832D01*
X667016Y50857D01*
X667879Y50934D01*
X668641Y51061D01*
X669302Y51238D01*
X669861Y51467D01*
X670318Y51746D01*
X670673Y52077D01*
X670927Y52458D01*
X671080Y52889D01*
X671131Y53372D01*
Y43212D01*
D02*
G37*
G36*
X645391Y52889D02*
X645544Y52458D01*
X645798Y52077D01*
X646153Y51746D01*
X646610Y51467D01*
X647169Y51238D01*
X647830Y51061D01*
X648592Y50934D01*
X649455Y50857D01*
X650421Y50832D01*
Y45752D01*
X649455Y45727D01*
X648592Y45650D01*
X647830Y45523D01*
X647169Y45346D01*
X646610Y45117D01*
X646153Y44838D01*
X645798Y44507D01*
X645544Y44126D01*
X645391Y43695D01*
X645340Y43212D01*
Y53372D01*
X645391Y52889D01*
D02*
G37*
G36*
X614439Y80121D02*
X614007Y79968D01*
X613626Y79714D01*
X613296Y79359D01*
X613017Y78901D01*
X612788Y78343D01*
X612610Y77682D01*
X612483Y76920D01*
X612472Y76789D01*
X612547Y76315D01*
X612675Y75761D01*
X612840Y75233D01*
X613041Y74730D01*
X613280Y74253D01*
X613555Y73801D01*
X613866Y73375D01*
X614214Y72974D01*
X605331Y73313D01*
X605705Y73685D01*
X606040Y74087D01*
X606336Y74517D01*
X606592Y74977D01*
X606809Y75465D01*
X606986Y75982D01*
X607124Y76529D01*
X607196Y76946D01*
X607073Y77682D01*
X606895Y78343D01*
X606667Y78901D01*
X606387Y79359D01*
X606057Y79714D01*
X605676Y79968D01*
X605244Y80121D01*
X604762Y80171D01*
X614922D01*
X614439Y80121D01*
D02*
G37*
G36*
X613866Y63849D02*
X613555Y63423D01*
X613280Y62972D01*
X613041Y62494D01*
X612840Y61991D01*
X612675Y61463D01*
X612547Y60909D01*
X612472Y60435D01*
X612483Y60304D01*
X612610Y59542D01*
X612788Y58881D01*
X613017Y58323D01*
X613296Y57865D01*
X613626Y57510D01*
X614007Y57256D01*
X614439Y57103D01*
X614922Y57053D01*
X604762D01*
X605244Y57103D01*
X605676Y57256D01*
X606057Y57510D01*
X606387Y57865D01*
X606667Y58323D01*
X606895Y58881D01*
X607073Y59542D01*
X607196Y60278D01*
X607124Y60695D01*
X606986Y61242D01*
X606809Y61759D01*
X606592Y62248D01*
X606336Y62707D01*
X606040Y63137D01*
X605705Y63539D01*
X605331Y63911D01*
X614214Y64250D01*
X613866Y63849D01*
D02*
G37*
D19*
X261620Y515920D02*
D03*
Y489920D02*
D03*
X492760Y289560D02*
D03*
Y263560D02*
D03*
D20*
X113353Y464820D02*
D03*
X89847D02*
D03*
D21*
X257048Y365370D02*
D03*
Y347354D02*
D03*
D22*
X339896Y279400D02*
D03*
X309880D02*
D03*
D23*
X172060Y405272D02*
D03*
X153060D02*
D03*
Y427272D02*
D03*
D24*
X170060D02*
D03*
D25*
X69820Y393980D02*
D03*
Y398980D02*
D03*
Y403980D02*
D03*
Y408980D02*
D03*
Y413980D02*
D03*
Y418980D02*
D03*
Y423980D02*
D03*
Y428980D02*
D03*
D26*
X64070Y360380D02*
D03*
Y462580D02*
D03*
X24770Y360380D02*
D03*
Y462580D02*
D03*
D27*
X69820Y387480D02*
D03*
Y435480D02*
D03*
Y379480D02*
D03*
Y443480D02*
D03*
D28*
X104368Y345440D02*
D03*
X134392D02*
D03*
X154712Y373380D02*
D03*
X124688D02*
D03*
D29*
X73660Y101090D02*
D03*
Y132590D02*
D03*
X208280Y130050D02*
D03*
Y98550D02*
D03*
D30*
X107040Y66260D02*
D03*
Y157260D02*
D03*
X152040Y66260D02*
D03*
Y157260D02*
D03*
X284120D02*
D03*
Y66260D02*
D03*
X239120Y157260D02*
D03*
Y66260D02*
D03*
D31*
X96090Y495260D02*
D03*
Y518160D02*
D03*
D32*
X162990D02*
D03*
D33*
X96090Y541060D02*
D03*
D34*
X303740Y409962D02*
D03*
Y403462D02*
D03*
Y396962D02*
D03*
Y390462D02*
D03*
Y383962D02*
D03*
Y377462D02*
D03*
Y364462D02*
D03*
Y351462D02*
D03*
X361740D02*
D03*
Y357962D02*
D03*
Y364462D02*
D03*
Y370962D02*
D03*
Y377462D02*
D03*
Y383962D02*
D03*
Y390462D02*
D03*
Y396962D02*
D03*
Y403462D02*
D03*
Y409962D02*
D03*
X303740Y357962D02*
D03*
Y370962D02*
D03*
D35*
X231100Y438562D02*
D03*
X226100D02*
D03*
X241100Y399062D02*
D03*
X236100D02*
D03*
X231100D02*
D03*
X226100D02*
D03*
X221100D02*
D03*
X216100D02*
D03*
Y438562D02*
D03*
X241100D02*
D03*
X221100D02*
D03*
X236100D02*
D03*
D36*
X248350Y416312D02*
D03*
Y411312D02*
D03*
Y431312D02*
D03*
Y426312D02*
D03*
Y421312D02*
D03*
Y406312D02*
D03*
X208850D02*
D03*
Y411312D02*
D03*
Y416312D02*
D03*
Y421312D02*
D03*
Y426312D02*
D03*
Y431312D02*
D03*
D37*
X544830Y390022D02*
D03*
X557530Y442522D02*
D03*
X519430Y390022D02*
D03*
X532130Y442522D02*
D03*
X544830D02*
D03*
X532130Y390022D02*
D03*
X519430Y442522D02*
D03*
X557530Y390022D02*
D03*
D38*
X639596Y48292D02*
D03*
X610084D02*
D03*
Y88932D02*
D03*
X639596D02*
D03*
D39*
X642650Y467360D02*
D03*
X612110D02*
D03*
X612080Y502920D02*
D03*
X467390Y317500D02*
D03*
X309850Y307340D02*
D03*
X286990Y429260D02*
D03*
X436850Y317500D02*
D03*
X642620Y502920D02*
D03*
X317530Y429260D02*
D03*
X340390Y307340D02*
D03*
D40*
X394970Y258820D02*
D03*
X445770Y162820D02*
D03*
X407670D02*
D03*
X369570D02*
D03*
X420370Y258820D02*
D03*
Y162820D02*
D03*
X458470D02*
D03*
X382270D02*
D03*
X433070Y258820D02*
D03*
Y162820D02*
D03*
X394970D02*
D03*
X445770Y258820D02*
D03*
X471170Y162820D02*
D03*
Y258820D02*
D03*
X458470D02*
D03*
X369570D02*
D03*
X356870D02*
D03*
X382270D02*
D03*
X407670D02*
D03*
X356870Y162820D02*
D03*
D41*
X216660Y497840D02*
D03*
X184660D02*
D03*
X164340Y472440D02*
D03*
X196340D02*
D03*
D42*
X214174Y525780D02*
D03*
X187146D02*
D03*
X47446Y157480D02*
D03*
X182066Y154940D02*
D03*
X298093Y332740D02*
D03*
X325120D02*
D03*
X209094Y154940D02*
D03*
X74474Y157480D02*
D03*
D43*
X43180Y132110D02*
D03*
X180340Y129570D02*
D03*
X43180Y101570D02*
D03*
X180340Y99030D02*
D03*
D44*
X406400Y347516D02*
D03*
Y317500D02*
D03*
D45*
X515620Y263346D02*
D03*
Y290374D02*
D03*
D50*
X228600Y418812D02*
D03*
D56*
X59070Y382580D02*
D03*
Y440380D02*
D03*
D64*
X157044Y543560D02*
G03*
X153996Y542544I0J-5080D01*
G01*
X93684Y436496D02*
G03*
X94228Y436968I-3048J4064D01*
G01*
X90636Y435480D02*
G03*
X93684Y436496I0J5080D01*
G01*
X108676Y387480D02*
G03*
X111724Y388496I0J5080D01*
G01*
D02*
G03*
X112268Y388968I-3048J4064D01*
G01*
X162990Y528750D02*
X177800Y543560D01*
X162990Y518160D02*
Y528750D01*
X177800Y543560D02*
X228600D01*
X157044D02*
X177800D01*
X129540Y518160D02*
X153924Y542544D01*
X243840Y515620D02*
X244140Y515920D01*
X261620D01*
X243840Y515620D02*
Y528320D01*
X228600Y543560D02*
X243840Y528320D01*
Y483456D02*
Y515620D01*
X292085Y457200D02*
X292100D01*
X221100Y472160D02*
X227113Y478173D01*
X287020Y434310D02*
X292070Y429260D01*
X220980Y464660D02*
X221100Y472160D01*
X227113Y478173D02*
X238557D01*
X153924Y542544D02*
X153996D01*
X96090Y518160D02*
X129540D01*
X356610Y162560D02*
X356870Y162820D01*
X337820Y162560D02*
X356610D01*
X492760Y246380D02*
Y258373D01*
Y258480D02*
X492867Y258373D01*
X492760D02*
Y263560D01*
X113353Y464820D02*
X113641Y464532D01*
X145068D01*
X94228Y436968D02*
X101600Y444340D01*
X69820Y435480D02*
X90636D01*
X69820Y387480D02*
X108676D01*
X112268Y388968D02*
X121920Y398620D01*
X141528Y427272D02*
X153060D01*
X586740Y543272D02*
X718820Y543272D01*
X731520Y530572D01*
Y517872D02*
Y530572D01*
X538768Y495300D02*
X586740Y543272D01*
X518160Y495300D02*
X538768D01*
X518160D02*
X519510Y493950D01*
Y442602D02*
Y493950D01*
X196340Y469867D02*
Y472440D01*
Y445260D02*
Y469867D01*
X284120Y66260D02*
Y157260D01*
Y43540D02*
Y66260D01*
X418480Y294020D02*
X488300D01*
X407670Y283210D02*
X418480Y294020D01*
X488300D02*
X492760Y289560D01*
X467390Y317500D02*
X510540D01*
X723900Y510252D02*
X731520Y517872D01*
Y474692D02*
Y517872D01*
X706120Y467072D02*
X723900D01*
X706120Y510252D02*
X723900D01*
Y467072D02*
X731520Y474692D01*
X519430Y442522D02*
X519510Y442602D01*
X609842Y68854D02*
Y88690D01*
X515213Y289967D02*
X515620Y290374D01*
X609842Y48534D02*
Y68370D01*
X510540Y294611D02*
Y317500D01*
Y294611D02*
X514777Y290374D01*
X515620D01*
X493167Y289967D02*
X515213D01*
X492760Y289560D02*
X493167Y289967D01*
X407670Y258820D02*
Y283210D01*
X238557Y478173D02*
X243840Y483456D01*
Y479093D02*
X265733Y457200D01*
X292085Y457425D02*
X292100Y457440D01*
X292085Y457200D02*
Y457425D01*
Y447025D02*
Y457200D01*
X287020Y441960D02*
X292085Y447025D01*
X265733Y457200D02*
X292085D01*
X287020Y434310D02*
Y441960D01*
X243840Y479093D02*
Y483456D01*
X321548Y336312D02*
Y354092D01*
X303926Y357776D02*
X317864D01*
X321548Y354092D01*
X325120Y332740D02*
X342900D01*
X321548Y336312D02*
X325120Y332740D01*
X289560Y307340D02*
X309850D01*
X292100Y35560D02*
X347980D01*
X152040Y66260D02*
Y157260D01*
X284120Y43540D02*
X292100Y35560D01*
X152040Y46080D02*
Y66260D01*
X162560Y35560D02*
X292100D01*
X152040Y46080D02*
X162560Y35560D01*
X152730Y453102D02*
X166370D01*
X152730Y427602D02*
Y453102D01*
X101600Y444340D02*
X124460D01*
X141528Y427272D01*
X132792D02*
X141528D01*
X121920Y416400D02*
X132792Y427272D01*
X121920Y398620D02*
Y416400D01*
X145068Y464532D02*
X152730Y456870D01*
Y453102D02*
Y456870D01*
X166370Y453102D02*
X185420Y434052D01*
X173702Y453102D02*
X186257Y465657D01*
X166370Y453102D02*
X173702D01*
X186257Y465657D02*
X192130D01*
X196340Y469867D01*
X639596Y88932D02*
X678180D01*
X639596Y48292D02*
X678180D01*
D65*
X46066Y345483D02*
G03*
X46533Y345440I468J2497D01*
G01*
X43180Y348714D02*
G03*
X45804Y345533I3251J9D01*
G01*
X43677Y376381D02*
G03*
X43169Y374867I2032J-1524D01*
G01*
X43913Y376653D02*
G03*
X43677Y376381I1796J-1796D01*
G01*
X54630Y406520D02*
G03*
X57170Y403980I2540J0D01*
G01*
X90588Y408980D02*
G03*
X92112Y409488I0J2540D01*
G01*
D02*
G03*
X92378Y409718I-1524J2032D01*
G01*
D02*
G03*
X92379Y409719I-1786J1806D01*
G01*
X92144Y418236D02*
G03*
X90348Y418980I-1796J-1796D01*
G01*
X89332Y424488D02*
G03*
X89598Y424718I-1524J2032D01*
G01*
X87808Y423980D02*
G03*
X89332Y424488I0J2540D01*
G01*
X89598Y424718D02*
G03*
X89599Y424719I-1786J1806D01*
G01*
X214174Y497786D02*
X216660Y495300D01*
X214174Y497786D02*
Y525780D01*
X216660Y495300D02*
X218440Y493520D01*
Y482600D02*
Y493520D01*
X213360Y477520D02*
X218440Y482600D01*
X213360Y454660D02*
Y477520D01*
Y454660D02*
X216100Y451920D01*
Y438562D02*
Y451920D01*
X220980Y464660D02*
X221100Y438562D01*
X236100Y431292D02*
Y438562D01*
X228600Y418812D02*
X236100Y431292D01*
X46533Y345440D02*
X104368D01*
X43180Y348725D02*
X43180Y348714D01*
X43169Y374867D02*
X43180Y348725D01*
X45804Y345533D02*
X46066Y345483D01*
X43913Y376653D02*
X61634Y394374D01*
X69820D01*
X54630Y406520D02*
Y412570D01*
X57170Y403980D02*
X69820D01*
Y408980D02*
X90588D01*
X92379Y409719D02*
X96520Y413860D01*
X69820Y418980D02*
X90348D01*
X92144Y418236D02*
X96520Y413860D01*
X89599Y424719D02*
X93980Y429100D01*
X69820Y423980D02*
X87808D01*
X124688Y373380D02*
X127000D01*
X120991D02*
X124688D01*
X53624Y414144D02*
X69820D01*
X170468Y391160D02*
X172060Y392752D01*
X152361Y393700D02*
X154901Y391160D01*
X170468D01*
X172060Y392752D02*
Y405272D01*
X134620Y393700D02*
X152361D01*
X642620Y502760D02*
X660240D01*
X645190Y467200D02*
X645318Y467072D01*
X680720D01*
X196340Y433580D02*
Y445260D01*
Y433580D02*
X198608Y431312D01*
X208850D01*
X257048Y365370D02*
X302832D01*
X303740Y364462D01*
X193160Y426312D02*
X208850D01*
X185420Y434052D02*
X193160Y426312D01*
X147320Y193040D02*
Y207992D01*
Y193040D02*
X152400Y187960D01*
X304800D01*
X307340Y185420D01*
Y175260D02*
Y185420D01*
Y137160D02*
X452120D01*
X458470Y143510D01*
Y162820D01*
X292100Y175260D02*
X322580Y144780D01*
X337820Y220980D02*
Y233680D01*
X369570Y162820D02*
Y189230D01*
X337820Y220980D02*
X369570Y189230D01*
X444500Y198120D02*
X445135Y197485D01*
Y163455D02*
Y197485D01*
Y163455D02*
X445770Y162820D01*
X433070D02*
Y204470D01*
X403860Y233680D02*
X433070Y204470D01*
X393700Y208280D02*
X394335Y207645D01*
Y163455D02*
Y207645D01*
X370840Y233680D02*
X382270Y222250D01*
Y162820D02*
Y222250D01*
X358140Y233680D02*
X370840D01*
X394335Y163455D02*
X394970Y162820D01*
X111760Y175260D02*
X292100D01*
X322580Y144780D02*
X418882D01*
X388620Y233680D02*
X403860D01*
X119380Y243840D02*
X418882D01*
X96520Y190500D02*
Y207992D01*
Y190500D02*
X111760Y175260D01*
X418882Y144780D02*
X420370Y146268D01*
Y162820D01*
X406400Y187960D02*
X407035Y187325D01*
Y163455D02*
Y187325D01*
Y163455D02*
X407670Y162820D01*
X96520Y266700D02*
X119380Y243840D01*
X96520Y266700D02*
Y309592D01*
X223520Y264160D02*
Y309592D01*
X375920Y279400D02*
X382270Y273050D01*
Y258820D02*
Y273050D01*
X418882Y243840D02*
X420370Y245328D01*
Y258820D01*
X457796Y279996D02*
X459740Y281940D01*
X445770Y275381D02*
X450385Y279996D01*
X457796D01*
X445770Y258820D02*
Y275381D01*
X431800Y281940D02*
X432435Y281305D01*
Y259455D02*
Y281305D01*
Y259455D02*
X433070Y258820D01*
X475102Y370962D02*
X532130Y427990D01*
Y442522D01*
X361740Y370962D02*
X475102D01*
X519430Y377190D02*
Y390022D01*
X507682Y365442D02*
X519430Y377190D01*
X362720Y365442D02*
X507682D01*
X361740Y351462D02*
X380058D01*
X386080Y345440D01*
Y320040D02*
Y345440D01*
Y320040D02*
X388620Y317500D01*
X406400D01*
X339896Y279400D02*
X375920D01*
X339896Y293123D02*
X356623D01*
X360680Y297180D01*
Y330200D01*
X345440Y345440D02*
X360680Y330200D01*
X345440Y345440D02*
Y355600D01*
X347802Y357962D01*
X361740D01*
X339896Y293123D02*
Y306846D01*
Y279400D02*
Y293123D01*
Y306846D02*
X340390Y307340D01*
X403860Y314960D02*
X406400Y317500D01*
X403860Y299720D02*
Y314960D01*
X394970Y290830D02*
X403860Y299720D01*
X394970Y258820D02*
Y290830D01*
X406400Y317500D02*
X436850D01*
X361740Y364462D02*
X362720Y365442D01*
X228600Y132080D02*
Y144780D01*
X218440Y154940D02*
X228600Y144780D01*
X239120Y66260D02*
Y109220D01*
Y157260D01*
X228450Y98550D02*
X239120Y109220D01*
X209094Y154940D02*
X218440D01*
X208280Y130050D02*
Y152926D01*
X209094D02*
Y154940D01*
X180340Y99030D02*
X180820Y98550D01*
X208280D01*
X228450D01*
X43180Y101570D02*
X43660Y101090D01*
X73660D01*
X101450D02*
X107040Y106680D01*
X73660Y101090D02*
X101450D01*
X107040Y106680D02*
Y157260D01*
Y66260D02*
Y106680D01*
X58420Y175547D02*
Y223520D01*
Y175547D02*
X74474Y159494D01*
Y157480D02*
Y159494D01*
X73660Y156666D02*
X74474Y157480D01*
X73660Y132590D02*
Y156666D01*
X660240Y502760D02*
X667732Y510252D01*
X680720D01*
X678235Y512737D02*
Y519212D01*
Y512737D02*
X680720Y510252D01*
X601980Y520700D02*
X676747D01*
X678235Y519212D01*
X557530Y476250D02*
X601980Y520700D01*
X680395Y456875D02*
Y466747D01*
X594648Y449580D02*
X673100D01*
X680395Y466747D02*
X680720Y467072D01*
X673100Y449580D02*
X680395Y456875D01*
X557530Y442522D02*
Y476250D01*
X118451Y375920D02*
X120991Y373380D01*
X99060Y375920D02*
X118451D01*
X315242Y391442D02*
X317530Y393730D01*
X304720Y391442D02*
X315242D01*
X317530Y393730D02*
Y429260D01*
X303740Y390462D02*
X304720Y391442D01*
X317530Y429260D02*
X335280D01*
X342900Y457440D02*
X345440Y454900D01*
Y401032D02*
X349510Y396962D01*
X345440Y401032D02*
Y454900D01*
X93980Y429100D02*
X116840D01*
X96520Y413860D02*
X109220D01*
X137776Y405060D02*
Y413116D01*
X137160Y413732D02*
X137776Y413116D01*
X139264Y403572D02*
X151360D01*
X137776Y405060D02*
X139264Y403572D01*
X53340Y413860D02*
X54630Y412570D01*
X53340Y413860D02*
X53624Y414144D01*
X151360Y403572D02*
X153060Y405272D01*
X188800D02*
X190500Y403572D01*
X172060Y405272D02*
X188800D01*
X190500Y393412D02*
Y403572D01*
X231100Y438562D02*
X231120Y438582D01*
Y451940D01*
X245110Y455770D02*
X246380Y457040D01*
X234950Y455770D02*
X245110D01*
X231120Y451940D02*
X234950Y455770D01*
X152400Y405932D02*
X153060Y405272D01*
X152400Y405932D02*
Y413732D01*
X154940Y416272D01*
X190500D01*
X232664Y465452D02*
Y466692D01*
X226100Y458888D02*
X232664Y465452D01*
X226100Y438562D02*
Y458888D01*
X544830Y390022D02*
Y399762D01*
X594648Y449580D01*
X284480Y374818D02*
X286144Y376482D01*
X227890Y383962D02*
X303740D01*
X286144Y376482D02*
X302760D01*
X303740Y377462D01*
X226060Y385792D02*
X227890Y383962D01*
X535106Y417978D02*
X542726D01*
X532130Y415002D02*
X535106Y417978D01*
X532130Y390022D02*
Y415002D01*
X542726Y417978D02*
X544264Y419516D01*
Y441956D02*
X544830Y442522D01*
X544264Y419516D02*
Y441956D01*
X266860Y411312D02*
X281210Y396962D01*
X280460Y403462D02*
X303740D01*
X267610Y416312D02*
X280460Y403462D01*
X281210Y396962D02*
X303740D01*
X248350Y416312D02*
X267610D01*
X248350Y411312D02*
X266860D01*
X349510Y396962D02*
X361740D01*
D66*
X96090Y495260D02*
X104180D01*
X113353Y486087D01*
Y464820D02*
Y486087D01*
D67*
X198120Y309592D02*
D03*
X172720Y207992D02*
D03*
X147320Y309592D02*
D03*
X172720D02*
D03*
X223520D02*
D03*
X147320Y207992D02*
D03*
X96520Y309592D02*
D03*
X121920D02*
D03*
Y207992D02*
D03*
X198120D02*
D03*
D68*
X96520D02*
D03*
D69*
X292100Y457440D02*
D03*
D70*
X342900D02*
D03*
X368300D02*
D03*
X317500D02*
D03*
D71*
X678180Y48292D02*
D03*
Y88932D02*
D03*
D72*
X703580Y48292D02*
D03*
Y88932D02*
D03*
D73*
X680720Y467072D02*
D03*
X706120D02*
D03*
Y510252D02*
D03*
X680720D02*
D03*
D74*
X487680Y444340D02*
D03*
X462280Y418940D02*
D03*
D75*
Y469740D02*
D03*
D76*
X162560Y441960D02*
D03*
X840740Y467962D02*
D03*
Y442562D02*
D03*
Y417162D02*
D03*
Y391762D02*
D03*
Y366362D02*
D03*
Y340962D02*
D03*
Y315562D02*
D03*
Y239362D02*
D03*
Y213962D02*
D03*
Y188562D02*
D03*
Y163162D02*
D03*
Y137762D02*
D03*
Y112362D02*
D03*
Y86962D02*
D03*
X815340Y467962D02*
D03*
Y442562D02*
D03*
Y417162D02*
D03*
Y391762D02*
D03*
Y366362D02*
D03*
Y340962D02*
D03*
Y239362D02*
D03*
Y213962D02*
D03*
Y188562D02*
D03*
Y163162D02*
D03*
Y137762D02*
D03*
Y112362D02*
D03*
Y86962D02*
D03*
Y10762D02*
D03*
X789940Y467962D02*
D03*
Y442562D02*
D03*
Y417162D02*
D03*
Y391762D02*
D03*
Y366362D02*
D03*
Y340962D02*
D03*
Y315562D02*
D03*
Y239362D02*
D03*
Y213962D02*
D03*
Y188562D02*
D03*
Y163162D02*
D03*
Y137762D02*
D03*
Y112362D02*
D03*
Y86962D02*
D03*
Y10762D02*
D03*
X764540Y518762D02*
D03*
Y493362D02*
D03*
Y467962D02*
D03*
Y442562D02*
D03*
Y417162D02*
D03*
Y391762D02*
D03*
Y366362D02*
D03*
Y340962D02*
D03*
Y213962D02*
D03*
Y188562D02*
D03*
Y163162D02*
D03*
Y137762D02*
D03*
Y112362D02*
D03*
Y86962D02*
D03*
Y61562D02*
D03*
Y36162D02*
D03*
Y10762D02*
D03*
X739140Y467962D02*
D03*
Y442562D02*
D03*
Y417162D02*
D03*
Y391762D02*
D03*
Y366362D02*
D03*
Y188562D02*
D03*
Y163162D02*
D03*
Y137762D02*
D03*
Y112362D02*
D03*
Y86962D02*
D03*
Y61562D02*
D03*
Y36162D02*
D03*
Y10762D02*
D03*
X713740Y493362D02*
D03*
Y442562D02*
D03*
Y417162D02*
D03*
Y391762D02*
D03*
Y366362D02*
D03*
Y188562D02*
D03*
Y163162D02*
D03*
Y137762D02*
D03*
Y112362D02*
D03*
Y61562D02*
D03*
Y36162D02*
D03*
Y10762D02*
D03*
X688340Y493362D02*
D03*
Y442562D02*
D03*
Y417162D02*
D03*
Y391762D02*
D03*
Y366362D02*
D03*
Y188562D02*
D03*
Y163162D02*
D03*
Y137762D02*
D03*
Y112362D02*
D03*
Y61562D02*
D03*
Y36162D02*
D03*
Y10762D02*
D03*
X662940Y493362D02*
D03*
Y442562D02*
D03*
Y417162D02*
D03*
Y391762D02*
D03*
Y366362D02*
D03*
Y188562D02*
D03*
Y163162D02*
D03*
Y137762D02*
D03*
Y112362D02*
D03*
Y61562D02*
D03*
Y36162D02*
D03*
Y10762D02*
D03*
X637540Y442562D02*
D03*
Y417162D02*
D03*
Y391762D02*
D03*
Y366362D02*
D03*
Y188562D02*
D03*
Y163162D02*
D03*
Y137762D02*
D03*
Y112362D02*
D03*
Y10762D02*
D03*
X612140Y442562D02*
D03*
Y417162D02*
D03*
Y391762D02*
D03*
Y366362D02*
D03*
Y340962D02*
D03*
Y315562D02*
D03*
Y239362D02*
D03*
Y213962D02*
D03*
Y188562D02*
D03*
Y163162D02*
D03*
Y137762D02*
D03*
Y112362D02*
D03*
Y10762D02*
D03*
X586740Y518762D02*
D03*
Y493362D02*
D03*
Y467962D02*
D03*
Y417162D02*
D03*
Y391762D02*
D03*
Y366362D02*
D03*
Y340962D02*
D03*
Y315562D02*
D03*
Y239362D02*
D03*
Y213962D02*
D03*
Y188562D02*
D03*
Y163162D02*
D03*
Y137762D02*
D03*
Y112362D02*
D03*
Y86962D02*
D03*
Y36162D02*
D03*
Y10762D02*
D03*
X561340Y493362D02*
D03*
Y366362D02*
D03*
Y340962D02*
D03*
Y315562D02*
D03*
Y239362D02*
D03*
Y213962D02*
D03*
Y188562D02*
D03*
Y163162D02*
D03*
Y137762D02*
D03*
Y112362D02*
D03*
Y86962D02*
D03*
Y36162D02*
D03*
Y10762D02*
D03*
X535940Y518762D02*
D03*
Y467962D02*
D03*
Y366362D02*
D03*
Y340962D02*
D03*
Y315562D02*
D03*
Y264762D02*
D03*
Y239362D02*
D03*
Y213962D02*
D03*
Y188562D02*
D03*
Y163162D02*
D03*
Y137762D02*
D03*
Y112362D02*
D03*
Y86962D02*
D03*
Y61562D02*
D03*
Y36162D02*
D03*
Y10762D02*
D03*
X510540Y518762D02*
D03*
Y467962D02*
D03*
Y442562D02*
D03*
Y239362D02*
D03*
Y213962D02*
D03*
Y188562D02*
D03*
Y163162D02*
D03*
Y137762D02*
D03*
Y112362D02*
D03*
Y61562D02*
D03*
Y36162D02*
D03*
Y10762D02*
D03*
X485140Y518762D02*
D03*
Y467962D02*
D03*
Y391762D02*
D03*
Y340962D02*
D03*
Y137762D02*
D03*
Y112362D02*
D03*
Y86962D02*
D03*
Y36162D02*
D03*
Y10762D02*
D03*
X459740Y518762D02*
D03*
Y391762D02*
D03*
Y340962D02*
D03*
Y239362D02*
D03*
Y213962D02*
D03*
Y188562D02*
D03*
Y112362D02*
D03*
Y86962D02*
D03*
Y61562D02*
D03*
Y10762D02*
D03*
X434340Y518762D02*
D03*
Y493362D02*
D03*
Y442562D02*
D03*
Y417162D02*
D03*
Y391762D02*
D03*
Y340962D02*
D03*
Y239362D02*
D03*
Y213962D02*
D03*
Y112362D02*
D03*
Y86962D02*
D03*
Y61562D02*
D03*
Y10762D02*
D03*
X408940Y518762D02*
D03*
Y493362D02*
D03*
Y442562D02*
D03*
Y417162D02*
D03*
Y391762D02*
D03*
Y213962D02*
D03*
Y112362D02*
D03*
Y86962D02*
D03*
Y61562D02*
D03*
Y10762D02*
D03*
X383540Y518762D02*
D03*
Y493362D02*
D03*
Y391762D02*
D03*
Y112362D02*
D03*
Y86962D02*
D03*
Y61562D02*
D03*
Y10762D02*
D03*
X358140Y518762D02*
D03*
Y493362D02*
D03*
Y442562D02*
D03*
Y213962D02*
D03*
Y112362D02*
D03*
Y86962D02*
D03*
Y61562D02*
D03*
Y10762D02*
D03*
X332740Y518762D02*
D03*
Y493362D02*
D03*
Y442562D02*
D03*
Y417162D02*
D03*
Y391762D02*
D03*
Y213962D02*
D03*
Y112362D02*
D03*
Y86962D02*
D03*
Y61562D02*
D03*
Y10762D02*
D03*
X307340Y518762D02*
D03*
Y493362D02*
D03*
Y442562D02*
D03*
Y213962D02*
D03*
Y112362D02*
D03*
Y86962D02*
D03*
Y61562D02*
D03*
Y10762D02*
D03*
X281940Y518762D02*
D03*
Y493362D02*
D03*
Y340962D02*
D03*
Y213962D02*
D03*
Y10762D02*
D03*
X256540Y442562D02*
D03*
Y391762D02*
D03*
Y315562D02*
D03*
Y213962D02*
D03*
Y163162D02*
D03*
Y137762D02*
D03*
Y112362D02*
D03*
Y86962D02*
D03*
Y61562D02*
D03*
Y10762D02*
D03*
X231140Y518762D02*
D03*
Y493362D02*
D03*
Y340962D02*
D03*
Y213962D02*
D03*
Y112362D02*
D03*
Y86962D02*
D03*
Y10762D02*
D03*
X205740Y264762D02*
D03*
Y112362D02*
D03*
Y86962D02*
D03*
Y61562D02*
D03*
Y10762D02*
D03*
X180340Y264762D02*
D03*
Y112362D02*
D03*
Y86962D02*
D03*
Y61562D02*
D03*
Y10762D02*
D03*
X154940Y493362D02*
D03*
Y10762D02*
D03*
X129540Y493362D02*
D03*
Y264762D02*
D03*
Y137762D02*
D03*
Y112362D02*
D03*
Y86962D02*
D03*
Y61562D02*
D03*
Y36162D02*
D03*
Y10762D02*
D03*
X104140Y290162D02*
D03*
Y239362D02*
D03*
Y36162D02*
D03*
Y10762D02*
D03*
X78740Y290162D02*
D03*
Y264762D02*
D03*
Y239362D02*
D03*
Y213962D02*
D03*
Y188562D02*
D03*
Y112362D02*
D03*
Y86962D02*
D03*
Y10762D02*
D03*
X53340Y315562D02*
D03*
Y86962D02*
D03*
Y10762D02*
D03*
X27940Y442562D02*
D03*
Y417162D02*
D03*
Y391762D02*
D03*
Y340962D02*
D03*
Y315562D02*
D03*
Y290162D02*
D03*
Y264762D02*
D03*
Y239362D02*
D03*
Y213962D02*
D03*
Y188562D02*
D03*
Y163162D02*
D03*
Y137762D02*
D03*
Y112362D02*
D03*
Y86962D02*
D03*
Y10762D02*
D03*
X75000Y325000D02*
D03*
X475000Y485000D02*
D03*
D77*
X337820Y162560D02*
D03*
X492760Y246380D02*
D03*
X307340Y175260D02*
D03*
X406400Y187960D02*
D03*
X347980Y35560D02*
D03*
X307340Y137160D02*
D03*
X134620Y393700D02*
D03*
X518160Y495300D02*
D03*
X609600Y68612D02*
D03*
X510540Y317500D02*
D03*
X342900Y332740D02*
D03*
X289560Y307340D02*
D03*
X444500Y198120D02*
D03*
X393700Y208280D02*
D03*
X388620Y233680D02*
D03*
X337820D02*
D03*
X358140D02*
D03*
X223520Y264160D02*
D03*
X459740Y281940D02*
D03*
X431800D02*
D03*
X228600Y132080D02*
D03*
X58420Y223520D02*
D03*
X99060Y375920D02*
D03*
X335280Y429260D02*
D03*
X116840Y429100D02*
D03*
X109220Y413860D02*
D03*
X137160Y413732D02*
D03*
X53340Y413860D02*
D03*
X190500Y393412D02*
D03*
X246380Y457040D02*
D03*
X190500Y416272D02*
D03*
X232664Y466692D02*
D03*
X284480Y374818D02*
D03*
X226060Y385792D02*
D03*
X543560Y418812D02*
D03*
M02*
