G04*
G04 #@! TF.GenerationSoftware,Altium Limited,Altium Designer,25.8.1 (18)*
G04*
G04 Layer_Color=8388736*
%FSLAX44Y44*%
%MOMM*%
G71*
G04*
G04 #@! TF.SameCoordinates,E998E950-8115-44E0-8776-06CA77E6E8E1*
G04*
G04*
G04 #@! TF.FilePolarity,Negative*
G04*
G01*
G75*
%ADD19R,1.1500X0.3000*%
%ADD20R,2.0000X2.1800*%
%ADD21R,1.1500X0.6000*%
%ADD22R,0.2500X0.7000*%
%ADD24R,1.3555X1.7582*%
%ADD26R,1.8121X1.2581*%
%ADD27R,1.4557X1.8582*%
%ADD29R,1.5562X1.5046*%
%ADD30R,1.5046X1.9062*%
%ADD31R,1.9062X1.5046*%
%ADD33R,1.5525X1.9031*%
%ADD34R,1.3043X0.9121*%
%ADD35R,1.8000X1.4000*%
%ADD36R,1.7582X1.3555*%
%ADD38R,1.2581X1.8121*%
%ADD40R,0.7000X0.2500*%
G04:AMPARAMS|DCode=41|XSize=1.3043mm|YSize=0.9121mm|CornerRadius=0.4561mm|HoleSize=0mm|Usage=FLASHONLY|Rotation=0.000|XOffset=0mm|YOffset=0mm|HoleType=Round|Shape=RoundedRectangle|*
%AMROUNDEDRECTD41*
21,1,1.3043,0.0000,0,0,0.0*
21,1,0.3922,0.9121,0,0,0.0*
1,1,0.9121,0.1961,0.0000*
1,1,0.9121,-0.1961,0.0000*
1,1,0.9121,-0.1961,0.0000*
1,1,0.9121,0.1961,0.0000*
%
%ADD41ROUNDEDRECTD41*%
%ADD42R,1.7000X1.1500*%
G04:AMPARAMS|DCode=44|XSize=1.3043mm|YSize=3.2221mm|CornerRadius=0.4565mm|HoleSize=0mm|Usage=FLASHONLY|Rotation=0.000|XOffset=0mm|YOffset=0mm|HoleType=Round|Shape=RoundedRectangle|*
%AMROUNDEDRECTD44*
21,1,1.3043,2.3091,0,0,0.0*
21,1,0.3913,3.2221,0,0,0.0*
1,1,0.9130,0.1956,-1.1546*
1,1,0.9130,-0.1956,-1.1546*
1,1,0.9130,-0.1956,1.1546*
1,1,0.9130,0.1956,1.1546*
%
%ADD44ROUNDEDRECTD44*%
%ADD45R,1.1549X1.7582*%
%ADD46R,1.1032X1.6032*%
%ADD47R,1.5532X2.1032*%
%ADD48R,0.9032X2.1032*%
%ADD49R,1.3032X1.6032*%
%ADD50R,2.7500X2.7500*%
%ADD51O,0.7532X1.4532*%
%ADD52R,1.7032X0.6532*%
%ADD53R,1.6032X2.3032*%
%ADD54C,0.6500*%
%ADD55C,1.6192*%
%ADD56C,1.4132*%
%ADD57C,1.8532*%
%ADD58C,1.4202*%
%ADD59R,1.4202X1.4202*%
G04:AMPARAMS|DCode=60|XSize=1.8532mm|YSize=1.8532mm|CornerRadius=0.5141mm|HoleSize=0mm|Usage=FLASHONLY|Rotation=180.000|XOffset=0mm|YOffset=0mm|HoleType=Round|Shape=RoundedRectangle|*
%AMROUNDEDRECTD60*
21,1,1.8532,0.8250,0,0,180.0*
21,1,0.8250,1.8532,0,0,180.0*
1,1,1.0282,-0.4125,0.4125*
1,1,1.0282,0.4125,0.4125*
1,1,1.0282,0.4125,-0.4125*
1,1,1.0282,-0.4125,-0.4125*
%
%ADD60ROUNDEDRECTD60*%
%ADD61R,1.6192X1.6192*%
%ADD62C,1.7782*%
%ADD63R,1.4132X1.4132*%
D19*
X69820Y393980D02*
D03*
Y398980D02*
D03*
Y403980D02*
D03*
Y408980D02*
D03*
Y413980D02*
D03*
Y418980D02*
D03*
Y423980D02*
D03*
Y428980D02*
D03*
D20*
X64070Y360380D02*
D03*
Y462580D02*
D03*
X24770Y360380D02*
D03*
Y462580D02*
D03*
D21*
X69820Y387480D02*
D03*
Y435480D02*
D03*
Y379480D02*
D03*
Y443480D02*
D03*
D22*
X226100Y438562D02*
D03*
X236100D02*
D03*
X231100D02*
D03*
X241100Y399062D02*
D03*
X236100D02*
D03*
X231100D02*
D03*
X226100D02*
D03*
X221100D02*
D03*
X216100D02*
D03*
Y438562D02*
D03*
X241100D02*
D03*
X221100D02*
D03*
D24*
X187146Y525780D02*
D03*
X47446Y157480D02*
D03*
X182066Y154940D02*
D03*
X298093Y332740D02*
D03*
X214174Y525780D02*
D03*
X325120Y332740D02*
D03*
X209094Y154940D02*
D03*
X74474Y157480D02*
D03*
D26*
X43180Y132110D02*
D03*
X180340Y129570D02*
D03*
X43180Y101570D02*
D03*
X180340Y99030D02*
D03*
D27*
X134392Y345440D02*
D03*
X154712Y373380D02*
D03*
X124688D02*
D03*
X104368Y345440D02*
D03*
D29*
X257048Y347354D02*
D03*
Y365370D02*
D03*
D30*
X309880Y279400D02*
D03*
X339896D02*
D03*
D31*
X406400Y347516D02*
D03*
Y317500D02*
D03*
D33*
X89847Y464820D02*
D03*
X113353D02*
D03*
D34*
X96090Y541060D02*
D03*
D35*
X261620Y489920D02*
D03*
X492760Y263560D02*
D03*
X261620Y515920D02*
D03*
X492760Y289560D02*
D03*
D36*
X515620Y263346D02*
D03*
Y290374D02*
D03*
D38*
X612080Y502920D02*
D03*
X612110Y467360D02*
D03*
X642650D02*
D03*
X467390Y317500D02*
D03*
X309850Y307340D02*
D03*
X286990Y429260D02*
D03*
X436850Y317500D02*
D03*
X642620Y502920D02*
D03*
X317530Y429260D02*
D03*
X340390Y307340D02*
D03*
D40*
X208850Y431312D02*
D03*
Y426312D02*
D03*
X248350Y416312D02*
D03*
Y411312D02*
D03*
Y431312D02*
D03*
Y426312D02*
D03*
Y421312D02*
D03*
Y406312D02*
D03*
X208850D02*
D03*
Y411312D02*
D03*
Y416312D02*
D03*
Y421312D02*
D03*
D41*
X96090Y495260D02*
D03*
Y518160D02*
D03*
D42*
X73660Y101090D02*
D03*
Y132590D02*
D03*
X208280Y130050D02*
D03*
Y98550D02*
D03*
D44*
X162990Y518160D02*
D03*
D45*
X639596Y48292D02*
D03*
X610084D02*
D03*
Y88932D02*
D03*
X639596D02*
D03*
D46*
X153060Y405272D02*
D03*
Y427272D02*
D03*
X172060Y405272D02*
D03*
D47*
X184660Y497840D02*
D03*
X164340Y472440D02*
D03*
X196340D02*
D03*
X216660Y497840D02*
D03*
D48*
X356870Y162820D02*
D03*
X394970Y258820D02*
D03*
X445770Y162820D02*
D03*
X407670D02*
D03*
X369570D02*
D03*
X420370Y258820D02*
D03*
Y162820D02*
D03*
X458470D02*
D03*
X382270D02*
D03*
X433070Y258820D02*
D03*
Y162820D02*
D03*
X394970D02*
D03*
X445770Y258820D02*
D03*
X471170Y162820D02*
D03*
Y258820D02*
D03*
X458470D02*
D03*
X369570D02*
D03*
X356870D02*
D03*
X382270D02*
D03*
X407670D02*
D03*
D49*
X170060Y427272D02*
D03*
D50*
X228600Y418812D02*
D03*
D51*
X557530Y390022D02*
D03*
X544830D02*
D03*
X557530Y442522D02*
D03*
X519430Y390022D02*
D03*
X532130Y442522D02*
D03*
X544830D02*
D03*
X532130Y390022D02*
D03*
X519430Y442522D02*
D03*
D52*
X303740Y370962D02*
D03*
Y409962D02*
D03*
Y403462D02*
D03*
Y396962D02*
D03*
Y390462D02*
D03*
Y383962D02*
D03*
Y377462D02*
D03*
Y364462D02*
D03*
Y351462D02*
D03*
X361740D02*
D03*
Y357962D02*
D03*
Y364462D02*
D03*
Y370962D02*
D03*
Y377462D02*
D03*
Y383962D02*
D03*
Y390462D02*
D03*
Y396962D02*
D03*
Y403462D02*
D03*
Y409962D02*
D03*
X303740Y357962D02*
D03*
D53*
X107040Y66260D02*
D03*
Y157260D02*
D03*
X152040Y66260D02*
D03*
Y157260D02*
D03*
X284120D02*
D03*
Y66260D02*
D03*
X239120Y157260D02*
D03*
Y66260D02*
D03*
D54*
X59070Y382580D02*
D03*
Y440380D02*
D03*
D55*
X703580Y88932D02*
D03*
Y48292D02*
D03*
D56*
X462280Y418940D02*
D03*
X487680Y444340D02*
D03*
D57*
X317500Y457440D02*
D03*
X342900D02*
D03*
X368300D02*
D03*
D58*
X198120Y309592D02*
D03*
X172720Y207992D02*
D03*
X147320Y309592D02*
D03*
X172720D02*
D03*
X223520D02*
D03*
X147320Y207992D02*
D03*
X96520Y309592D02*
D03*
X121920D02*
D03*
Y207992D02*
D03*
X198120D02*
D03*
D59*
X96520D02*
D03*
D60*
X292100Y457440D02*
D03*
D61*
X678180Y48292D02*
D03*
Y88932D02*
D03*
D62*
X680720Y467072D02*
D03*
X706120D02*
D03*
Y510252D02*
D03*
X680720D02*
D03*
D63*
X462280Y469740D02*
D03*
M02*
