G04*
G04 #@! TF.GenerationSoftware,Altium Limited,Altium Designer,25.8.1 (18)*
G04*
G04 Layer_Color=16711935*
%FSLAX44Y44*%
%MOMM*%
G71*
G04*
G04 #@! TF.SameCoordinates,23AB489E-9C3B-42D5-9350-948743F75CA7*
G04*
G04*
G04 #@! TF.FilePolarity,Negative*
G04*
G01*
G75*
%ADD54C,1.4202*%
%ADD55R,1.4202X1.4202*%
%ADD56C,0.6500*%
G04:AMPARAMS|DCode=57|XSize=1.8532mm|YSize=1.8532mm|CornerRadius=0.5141mm|HoleSize=0mm|Usage=FLASHONLY|Rotation=180.000|XOffset=0mm|YOffset=0mm|HoleType=Round|Shape=RoundedRectangle|*
%AMROUNDEDRECTD57*
21,1,1.8532,0.8250,0,0,180.0*
21,1,0.8250,1.8532,0,0,180.0*
1,1,1.0282,-0.4125,0.4125*
1,1,1.0282,0.4125,0.4125*
1,1,1.0282,0.4125,-0.4125*
1,1,1.0282,-0.4125,-0.4125*
%
%ADD57ROUNDEDRECTD57*%
%ADD58C,1.8532*%
%ADD59R,1.6192X1.6192*%
%ADD60C,1.6192*%
%ADD61C,1.7782*%
%ADD62C,1.4132*%
%ADD63R,1.4132X1.4132*%
D54*
X198120Y309592D02*
D03*
X172720Y207992D02*
D03*
X147320Y309592D02*
D03*
X172720D02*
D03*
X223520D02*
D03*
X147320Y207992D02*
D03*
X96520Y309592D02*
D03*
X121920D02*
D03*
Y207992D02*
D03*
X198120D02*
D03*
D55*
X96520D02*
D03*
D56*
X59070Y382580D02*
D03*
Y440380D02*
D03*
D57*
X292100Y457440D02*
D03*
D58*
X342900D02*
D03*
X368300D02*
D03*
X317500D02*
D03*
D59*
X678180Y48292D02*
D03*
Y88932D02*
D03*
D60*
X703580Y48292D02*
D03*
Y88932D02*
D03*
D61*
X680720Y467072D02*
D03*
X706120D02*
D03*
Y510252D02*
D03*
X680720D02*
D03*
D62*
X487680Y444340D02*
D03*
X462280Y418940D02*
D03*
D63*
Y469740D02*
D03*
M02*
