G04*
G04 #@! TF.GenerationSoftware,Altium Limited,Altium Designer,25.8.1 (18)*
G04*
G04 Layer_Color=8421504*
%FSLAX44Y44*%
%MOMM*%
G71*
G04*
G04 #@! TF.SameCoordinates,23AB489E-9C3B-42D5-9350-948743F75CA7*
G04*
G04*
G04 #@! TF.FilePolarity,Positive*
G04*
G01*
G75*
%ADD15R,1.1000X1.1000*%
%ADD16R,1.1000X1.1000*%
%ADD17R,1.1000X1.1000*%
%ADD18R,1.1000X1.1000*%
%ADD19R,1.8000X1.4000*%
%ADD20R,1.5525X1.9031*%
%ADD21R,1.5562X1.5046*%
%ADD22R,1.5046X1.9062*%
%ADD23R,0.9000X1.4000*%
%ADD24R,1.1000X1.4000*%
%ADD25R,1.1500X0.3000*%
%ADD26R,2.0000X2.1800*%
%ADD27R,1.1500X0.6000*%
%ADD28R,1.4557X1.8582*%
%ADD29R,1.7000X1.1500*%
%ADD30R,1.4000X2.1000*%
G04:AMPARAMS|DCode=31|XSize=1.3043mm|YSize=0.9121mm|CornerRadius=0.4561mm|HoleSize=0mm|Usage=FLASHONLY|Rotation=0.000|XOffset=0mm|YOffset=0mm|HoleType=Round|Shape=RoundedRectangle|*
%AMROUNDEDRECTD31*
21,1,1.3043,0.0000,0,0,0.0*
21,1,0.3922,0.9121,0,0,0.0*
1,1,0.9121,0.1961,0.0000*
1,1,0.9121,-0.1961,0.0000*
1,1,0.9121,-0.1961,0.0000*
1,1,0.9121,0.1961,0.0000*
%
%ADD31ROUNDEDRECTD31*%
G04:AMPARAMS|DCode=32|XSize=1.3043mm|YSize=3.2221mm|CornerRadius=0.4565mm|HoleSize=0mm|Usage=FLASHONLY|Rotation=0.000|XOffset=0mm|YOffset=0mm|HoleType=Round|Shape=RoundedRectangle|*
%AMROUNDEDRECTD32*
21,1,1.3043,2.3091,0,0,0.0*
21,1,0.3913,3.2221,0,0,0.0*
1,1,0.9130,0.1956,-1.1546*
1,1,0.9130,-0.1956,-1.1546*
1,1,0.9130,-0.1956,1.1546*
1,1,0.9130,0.1956,1.1546*
%
%ADD32ROUNDEDRECTD32*%
%ADD33R,1.3043X0.9121*%
%ADD34R,1.5000X0.4500*%
%ADD35R,0.2500X0.7000*%
%ADD36R,0.7000X0.2500*%
%ADD37O,0.5500X1.2500*%
%ADD38R,1.1549X1.7582*%
%ADD39R,1.2581X1.8121*%
%ADD40R,0.7000X1.9000*%
%ADD41R,1.3500X1.9000*%
%ADD42R,1.3555X1.7582*%
%ADD43R,1.8121X1.2581*%
%ADD44R,1.9062X1.5046*%
%ADD45R,1.7582X1.3555*%
D15*
X222100Y412312D02*
D03*
D16*
Y425312D02*
D03*
D17*
X235100Y412312D02*
D03*
D18*
Y425312D02*
D03*
D19*
X261620Y515920D02*
D03*
Y489920D02*
D03*
X492760Y289560D02*
D03*
Y263560D02*
D03*
D20*
X113353Y464820D02*
D03*
X89847D02*
D03*
D21*
X257048Y365370D02*
D03*
Y347354D02*
D03*
D22*
X339896Y279400D02*
D03*
X309880D02*
D03*
D23*
X172060Y405272D02*
D03*
X153060D02*
D03*
Y427272D02*
D03*
D24*
X170060D02*
D03*
D25*
X69820Y393980D02*
D03*
Y398980D02*
D03*
Y403980D02*
D03*
Y408980D02*
D03*
Y413980D02*
D03*
Y418980D02*
D03*
Y423980D02*
D03*
Y428980D02*
D03*
D26*
X64070Y360380D02*
D03*
Y462580D02*
D03*
X24770Y360380D02*
D03*
Y462580D02*
D03*
D27*
X69820Y387480D02*
D03*
Y435480D02*
D03*
Y379480D02*
D03*
Y443480D02*
D03*
D28*
X104368Y345440D02*
D03*
X134392D02*
D03*
X154712Y373380D02*
D03*
X124688D02*
D03*
D29*
X73660Y101090D02*
D03*
Y132590D02*
D03*
X208280Y130050D02*
D03*
Y98550D02*
D03*
D30*
X107040Y66260D02*
D03*
Y157260D02*
D03*
X152040Y66260D02*
D03*
Y157260D02*
D03*
X284120D02*
D03*
Y66260D02*
D03*
X239120Y157260D02*
D03*
Y66260D02*
D03*
D31*
X96090Y495260D02*
D03*
Y518160D02*
D03*
D32*
X162990D02*
D03*
D33*
X96090Y541060D02*
D03*
D34*
X303740Y409962D02*
D03*
Y403462D02*
D03*
Y396962D02*
D03*
Y390462D02*
D03*
Y383962D02*
D03*
Y377462D02*
D03*
Y364462D02*
D03*
Y351462D02*
D03*
X361740D02*
D03*
Y357962D02*
D03*
Y364462D02*
D03*
Y370962D02*
D03*
Y377462D02*
D03*
Y383962D02*
D03*
Y390462D02*
D03*
Y396962D02*
D03*
Y403462D02*
D03*
Y409962D02*
D03*
X303740Y357962D02*
D03*
Y370962D02*
D03*
D35*
X231100Y438562D02*
D03*
X226100D02*
D03*
X241100Y399062D02*
D03*
X236100D02*
D03*
X231100D02*
D03*
X226100D02*
D03*
X221100D02*
D03*
X216100D02*
D03*
Y438562D02*
D03*
X241100D02*
D03*
X221100D02*
D03*
X236100D02*
D03*
D36*
X248350Y416312D02*
D03*
Y411312D02*
D03*
Y431312D02*
D03*
Y426312D02*
D03*
Y421312D02*
D03*
Y406312D02*
D03*
X208850D02*
D03*
Y411312D02*
D03*
Y416312D02*
D03*
Y421312D02*
D03*
Y426312D02*
D03*
Y431312D02*
D03*
D37*
X544830Y390022D02*
D03*
X557530Y442522D02*
D03*
X519430Y390022D02*
D03*
X532130Y442522D02*
D03*
X544830D02*
D03*
X532130Y390022D02*
D03*
X519430Y442522D02*
D03*
X557530Y390022D02*
D03*
D38*
X639596Y48292D02*
D03*
X610084D02*
D03*
Y88932D02*
D03*
X639596D02*
D03*
D39*
X642650Y467360D02*
D03*
X612110D02*
D03*
X612080Y502920D02*
D03*
X467390Y317500D02*
D03*
X309850Y307340D02*
D03*
X286990Y429260D02*
D03*
X436850Y317500D02*
D03*
X642620Y502920D02*
D03*
X317530Y429260D02*
D03*
X340390Y307340D02*
D03*
D40*
X394970Y258820D02*
D03*
X445770Y162820D02*
D03*
X407670D02*
D03*
X369570D02*
D03*
X420370Y258820D02*
D03*
Y162820D02*
D03*
X458470D02*
D03*
X382270D02*
D03*
X433070Y258820D02*
D03*
Y162820D02*
D03*
X394970D02*
D03*
X445770Y258820D02*
D03*
X471170Y162820D02*
D03*
Y258820D02*
D03*
X458470D02*
D03*
X369570D02*
D03*
X356870D02*
D03*
X382270D02*
D03*
X407670D02*
D03*
X356870Y162820D02*
D03*
D41*
X216660Y497840D02*
D03*
X184660D02*
D03*
X164340Y472440D02*
D03*
X196340D02*
D03*
D42*
X214174Y525780D02*
D03*
X187146D02*
D03*
X47446Y157480D02*
D03*
X182066Y154940D02*
D03*
X298093Y332740D02*
D03*
X325120D02*
D03*
X209094Y154940D02*
D03*
X74474Y157480D02*
D03*
D43*
X43180Y132110D02*
D03*
X180340Y129570D02*
D03*
X43180Y101570D02*
D03*
X180340Y99030D02*
D03*
D44*
X406400Y347516D02*
D03*
Y317500D02*
D03*
D45*
X515620Y263346D02*
D03*
Y290374D02*
D03*
M02*
